%TF.GenerationSoftware,KiCad,Pcbnew,(6.0.7)*%
%TF.CreationDate,2022-10-31T13:10:49+02:00*%
%TF.ProjectId,DeltaX_SAGA,44656c74-6158-45f5-9341-47412e6b6963,rev?*%
%TF.SameCoordinates,Original*%
%TF.FileFunction,Copper,L1,Top*%
%TF.FilePolarity,Positive*%
%FSLAX46Y46*%
G04 Gerber Fmt 4.6, Leading zero omitted, Abs format (unit mm)*
G04 Created by KiCad (PCBNEW (6.0.7)) date 2022-10-31 13:10:49*
%MOMM*%
%LPD*%
G01*
G04 APERTURE LIST*
G04 Aperture macros list*
%AMRoundRect*
0 Rectangle with rounded corners*
0 $1 Rounding radius*
0 $2 $3 $4 $5 $6 $7 $8 $9 X,Y pos of 4 corners*
0 Add a 4 corners polygon primitive as box body*
4,1,4,$2,$3,$4,$5,$6,$7,$8,$9,$2,$3,0*
0 Add four circle primitives for the rounded corners*
1,1,$1+$1,$2,$3*
1,1,$1+$1,$4,$5*
1,1,$1+$1,$6,$7*
1,1,$1+$1,$8,$9*
0 Add four rect primitives between the rounded corners*
20,1,$1+$1,$2,$3,$4,$5,0*
20,1,$1+$1,$4,$5,$6,$7,0*
20,1,$1+$1,$6,$7,$8,$9,0*
20,1,$1+$1,$8,$9,$2,$3,0*%
G04 Aperture macros list end*
%TA.AperFunction,ComponentPad*%
%ADD10R,1.800000X1.200000*%
%TD*%
%TA.AperFunction,ComponentPad*%
%ADD11O,1.800000X1.200000*%
%TD*%
%TA.AperFunction,ComponentPad*%
%ADD12R,2.000000X1.358000*%
%TD*%
%TA.AperFunction,ComponentPad*%
%ADD13O,2.000000X1.358000*%
%TD*%
%TA.AperFunction,SMDPad,CuDef*%
%ADD14RoundRect,0.225000X-0.225000X-0.250000X0.225000X-0.250000X0.225000X0.250000X-0.225000X0.250000X0*%
%TD*%
%TA.AperFunction,SMDPad,CuDef*%
%ADD15RoundRect,0.225000X-0.250000X0.225000X-0.250000X-0.225000X0.250000X-0.225000X0.250000X0.225000X0*%
%TD*%
%TA.AperFunction,ComponentPad*%
%ADD16R,2.500000X1.750000*%
%TD*%
%TA.AperFunction,ComponentPad*%
%ADD17O,2.500000X1.750000*%
%TD*%
%TA.AperFunction,SMDPad,CuDef*%
%ADD18RoundRect,0.218750X-0.256250X0.218750X-0.256250X-0.218750X0.256250X-0.218750X0.256250X0.218750X0*%
%TD*%
%TA.AperFunction,SMDPad,CuDef*%
%ADD19R,2.790000X0.740000*%
%TD*%
%TA.AperFunction,SMDPad,CuDef*%
%ADD20R,4.000000X2.500000*%
%TD*%
%TA.AperFunction,SMDPad,CuDef*%
%ADD21RoundRect,0.038500X-0.741500X-0.236500X0.741500X-0.236500X0.741500X0.236500X-0.741500X0.236500X0*%
%TD*%
%TA.AperFunction,SMDPad,CuDef*%
%ADD22RoundRect,0.038500X0.236500X-0.741500X0.236500X0.741500X-0.236500X0.741500X-0.236500X-0.741500X0*%
%TD*%
%TA.AperFunction,SMDPad,CuDef*%
%ADD23RoundRect,0.038500X0.741500X0.236500X-0.741500X0.236500X-0.741500X-0.236500X0.741500X-0.236500X0*%
%TD*%
%TA.AperFunction,SMDPad,CuDef*%
%ADD24RoundRect,0.038500X-0.236500X0.741500X-0.236500X-0.741500X0.236500X-0.741500X0.236500X0.741500X0*%
%TD*%
%TA.AperFunction,SMDPad,CuDef*%
%ADD25RoundRect,0.218750X0.256250X-0.218750X0.256250X0.218750X-0.256250X0.218750X-0.256250X-0.218750X0*%
%TD*%
%TA.AperFunction,SMDPad,CuDef*%
%ADD26RoundRect,0.225000X0.250000X-0.225000X0.250000X0.225000X-0.250000X0.225000X-0.250000X-0.225000X0*%
%TD*%
%TA.AperFunction,SMDPad,CuDef*%
%ADD27RoundRect,0.200000X0.275000X-0.200000X0.275000X0.200000X-0.275000X0.200000X-0.275000X-0.200000X0*%
%TD*%
%TA.AperFunction,SMDPad,CuDef*%
%ADD28R,0.599999X0.249999*%
%TD*%
%TA.AperFunction,SMDPad,CuDef*%
%ADD29R,3.500001X0.499999*%
%TD*%
%TA.AperFunction,SMDPad,CuDef*%
%ADD30R,1.675000X0.499999*%
%TD*%
%TA.AperFunction,SMDPad,CuDef*%
%ADD31R,3.500001X1.400000*%
%TD*%
%TA.AperFunction,SMDPad,CuDef*%
%ADD32R,0.249999X0.599999*%
%TD*%
%TA.AperFunction,SMDPad,CuDef*%
%ADD33R,2.500000X4.000000*%
%TD*%
%TA.AperFunction,ComponentPad*%
%ADD34R,1.200000X1.800000*%
%TD*%
%TA.AperFunction,ComponentPad*%
%ADD35O,1.200000X1.800000*%
%TD*%
%TA.AperFunction,SMDPad,CuDef*%
%ADD36RoundRect,0.200000X0.200000X0.275000X-0.200000X0.275000X-0.200000X-0.275000X0.200000X-0.275000X0*%
%TD*%
%TA.AperFunction,SMDPad,CuDef*%
%ADD37RoundRect,0.042000X-0.258000X0.638000X-0.258000X-0.638000X0.258000X-0.638000X0.258000X0.638000X0*%
%TD*%
%TA.AperFunction,SMDPad,CuDef*%
%ADD38R,1.400000X1.600000*%
%TD*%
%TA.AperFunction,ComponentPad*%
%ADD39O,1.800000X0.900000*%
%TD*%
%TA.AperFunction,SMDPad,CuDef*%
%ADD40R,1.900000X1.900000*%
%TD*%
%TA.AperFunction,SMDPad,CuDef*%
%ADD41R,1.350000X0.400000*%
%TD*%
%TA.AperFunction,SMDPad,CuDef*%
%ADD42RoundRect,0.250000X-0.475000X0.250000X-0.475000X-0.250000X0.475000X-0.250000X0.475000X0.250000X0*%
%TD*%
%TA.AperFunction,SMDPad,CuDef*%
%ADD43RoundRect,0.041300X-0.253700X0.943700X-0.253700X-0.943700X0.253700X-0.943700X0.253700X0.943700X0*%
%TD*%
%TA.AperFunction,SMDPad,CuDef*%
%ADD44R,0.580000X1.420000*%
%TD*%
%TA.AperFunction,ViaPad*%
%ADD45C,6.000000*%
%TD*%
%TA.AperFunction,ViaPad*%
%ADD46C,0.450000*%
%TD*%
%TA.AperFunction,Conductor*%
%ADD47C,0.250000*%
%TD*%
%TA.AperFunction,Conductor*%
%ADD48C,0.254000*%
%TD*%
%TA.AperFunction,Conductor*%
%ADD49C,0.153162*%
%TD*%
%TA.AperFunction,Conductor*%
%ADD50C,0.200000*%
%TD*%
%TA.AperFunction,Conductor*%
%ADD51C,0.500000*%
%TD*%
G04 APERTURE END LIST*
D10*
%TO.P,J8,1,Pin_1*%
%TO.N,GND*%
X123443700Y-123206900D03*
D11*
%TO.P,J8,2,Pin_2*%
%TO.N,+3.3V*%
X120903700Y-121936900D03*
%TO.P,J8,3,Pin_3*%
%TO.N,/Motor1_ENCA*%
X123443700Y-120666900D03*
%TO.P,J8,4,Pin_4*%
%TO.N,/Motor1_ENCB*%
X120903700Y-119396900D03*
%TD*%
D12*
%TO.P,J6,1,Pin_1*%
%TO.N,GND2*%
X121650300Y-106001700D03*
D13*
%TO.P,J6,2,Pin_2*%
%TO.N,/Thrower_PWM_Isolated*%
X124190300Y-107271700D03*
%TO.P,J6,3,Pin_3*%
%TO.N,unconnected-(J6-Pad3)*%
X121650300Y-108541700D03*
%TO.P,J6,4,Pin_4*%
%TO.N,unconnected-(J6-Pad4)*%
X124190300Y-109811700D03*
%TD*%
D14*
%TO.P,C2,1*%
%TO.N,GND*%
X125383200Y-112757600D03*
%TO.P,C2,2*%
%TO.N,+3.3V*%
X126933200Y-112757600D03*
%TD*%
D15*
%TO.P,C1,1*%
%TO.N,+3.3V*%
X143354000Y-119577200D03*
%TO.P,C1,2*%
%TO.N,GND*%
X143354000Y-121127200D03*
%TD*%
D16*
%TO.P,J3,1,Pin_1*%
%TO.N,/Servo_PWM_Isolated*%
X122038800Y-101684200D03*
D17*
%TO.P,J3,2,Pin_2*%
%TO.N,+5VD*%
X122038800Y-99144200D03*
%TO.P,J3,3,Pin_3*%
%TO.N,GND2*%
X122038800Y-96604200D03*
%TD*%
D18*
%TO.P,FB1,1*%
%TO.N,/3.3VA*%
X150466000Y-131502700D03*
%TO.P,FB1,2*%
%TO.N,+3.3V*%
X150466000Y-133077700D03*
%TD*%
D15*
%TO.P,C8,1*%
%TO.N,/3.3VA*%
X150466000Y-128441800D03*
%TO.P,C8,2*%
%TO.N,GND*%
X150466000Y-129991800D03*
%TD*%
D19*
%TO.P,J2,1,Pin_1*%
%TO.N,+3.3V*%
X133267200Y-117253400D03*
%TO.P,J2,2,Pin_2*%
%TO.N,/SWDIO*%
X137337200Y-117253400D03*
%TO.P,J2,3,Pin_3*%
%TO.N,GND*%
X133267200Y-118523400D03*
%TO.P,J2,4,Pin_4*%
%TO.N,/SWCLK*%
X137337200Y-118523400D03*
%TO.P,J2,5,Pin_5*%
%TO.N,GND*%
X133267200Y-119793400D03*
%TO.P,J2,6,Pin_6*%
%TO.N,unconnected-(J2-Pad6)*%
X137337200Y-119793400D03*
%TO.P,J2,7,Pin_7*%
%TO.N,unconnected-(J2-Pad7)*%
X133267200Y-121063400D03*
%TO.P,J2,8,Pin_8*%
%TO.N,unconnected-(J2-Pad8)*%
X137337200Y-121063400D03*
%TO.P,J2,9,Pin_9*%
%TO.N,GND*%
X133267200Y-122333400D03*
%TO.P,J2,10,Pin_10*%
%TO.N,/NRST*%
X137337200Y-122333400D03*
%TD*%
D20*
%TO.P,J16,1,Pin_1*%
%TO.N,/V+*%
X164768800Y-104054200D03*
%TD*%
D21*
%TO.P,U3,1,VDD*%
%TO.N,+3.3V*%
X145295400Y-119635000D03*
%TO.P,U3,2,PF0-OSC_IN*%
%TO.N,unconnected-(U3-Pad2)*%
X145295400Y-120435000D03*
%TO.P,U3,3,PF1-OSC_OUT*%
%TO.N,unconnected-(U3-Pad3)*%
X145295400Y-121235000D03*
%TO.P,U3,4,PG10-NRST*%
%TO.N,/NRST*%
X145295400Y-122035000D03*
%TO.P,U3,5,PA0*%
%TO.N,/Motor1_ENCA*%
X145295400Y-122835000D03*
%TO.P,U3,6,PA1*%
%TO.N,/Motor1_ENCB*%
X145295400Y-123635000D03*
%TO.P,U3,7,PA2*%
%TO.N,/Thrower_PWM*%
X145295400Y-124435000D03*
%TO.P,U3,8,PA3*%
%TO.N,unconnected-(U3-Pad8)*%
X145295400Y-125235000D03*
D22*
%TO.P,U3,9,PA4*%
%TO.N,/Motor2_ENCB*%
X146675400Y-126615000D03*
%TO.P,U3,10,PA5*%
%TO.N,unconnected-(U3-Pad10)*%
X147475400Y-126615000D03*
%TO.P,U3,11,PA6*%
%TO.N,/Motor2_ENCA*%
X148275400Y-126615000D03*
%TO.P,U3,12,PA7*%
%TO.N,unconnected-(U3-Pad12)*%
X149075400Y-126615000D03*
%TO.P,U3,13,PB0*%
%TO.N,unconnected-(U3-Pad13)*%
X149875400Y-126615000D03*
%TO.P,U3,14,VSSA*%
%TO.N,GND*%
X150675400Y-126615000D03*
%TO.P,U3,15,VDDA*%
%TO.N,/3.3VA*%
X151475400Y-126615000D03*
%TO.P,U3,16,VSS*%
%TO.N,GND*%
X152275400Y-126615000D03*
D23*
%TO.P,U3,17,VDD*%
%TO.N,+3.3V*%
X153655400Y-125235000D03*
%TO.P,U3,18,PA8*%
%TO.N,/Motor3_ENCA*%
X153655400Y-124435000D03*
%TO.P,U3,19,PA9*%
%TO.N,/Motor3_ENCB*%
X153655400Y-123635000D03*
%TO.P,U3,20,PA10*%
%TO.N,/nSLEEP*%
X153655400Y-122835000D03*
%TO.P,U3,21,PA11*%
%TO.N,/USB_D-*%
X153655400Y-122035000D03*
%TO.P,U3,22,PA12*%
%TO.N,/USB_D+*%
X153655400Y-121235000D03*
%TO.P,U3,23,PA13*%
%TO.N,/SWDIO*%
X153655400Y-120435000D03*
%TO.P,U3,24,PA14*%
%TO.N,/SWCLK*%
X153655400Y-119635000D03*
D24*
%TO.P,U3,25,PA15*%
%TO.N,/Servo_PWM*%
X152275400Y-118255000D03*
%TO.P,U3,26,PB3*%
%TO.N,/Motor3_DIR*%
X151475400Y-118255000D03*
%TO.P,U3,27,PB4*%
%TO.N,/Motor3_PWM*%
X150675400Y-118255000D03*
%TO.P,U3,28,PB5*%
%TO.N,/Motor2_DIR*%
X149875400Y-118255000D03*
%TO.P,U3,29,PB6*%
%TO.N,/Motor2_PWM*%
X149075400Y-118255000D03*
%TO.P,U3,30,PB7*%
%TO.N,/Motor1_DIR*%
X148275400Y-118255000D03*
%TO.P,U3,31,PB8-BOOT0*%
%TO.N,/Motor1_PWM*%
X147475400Y-118255000D03*
%TO.P,U3,32,VSS*%
%TO.N,GND*%
X146675400Y-118255000D03*
%TD*%
D25*
%TO.P,D1,1,K*%
%TO.N,Net-(D1-Pad1)*%
X156583300Y-131506800D03*
%TO.P,D1,2,A*%
%TO.N,+3.3V*%
X156583300Y-129931800D03*
%TD*%
D20*
%TO.P,J17,1,Pin_1*%
%TO.N,GND2*%
X164743400Y-100752200D03*
%TD*%
D26*
%TO.P,C11,1*%
%TO.N,+3.3V*%
X152091600Y-133065200D03*
%TO.P,C11,2*%
%TO.N,GND*%
X152091600Y-131515200D03*
%TD*%
D27*
%TO.P,R4,1*%
%TO.N,Net-(D1-Pad1)*%
X158208800Y-131544200D03*
%TO.P,R4,2*%
%TO.N,GND*%
X158208800Y-129894200D03*
%TD*%
D28*
%TO.P,U9,1,nFAULT*%
%TO.N,unconnected-(U9-Pad1)*%
X143966600Y-93983000D03*
%TO.P,U9,2,IPROPI*%
%TO.N,Net-(R10-Pad2)*%
X143966600Y-93482998D03*
%TO.P,U9,3,nSLEEP*%
%TO.N,/nSLEEP_Isolated*%
X143966600Y-92982999D03*
D29*
%TO.P,U9,4,VM*%
%TO.N,/VM*%
X142566600Y-92407999D03*
D30*
%TO.P,U9,5,OUT2*%
%TO.N,/Motor2_OUT2*%
X143479100Y-91707998D03*
D31*
%TO.P,U9,6,GND*%
%TO.N,GND2*%
X142566600Y-90558000D03*
D30*
%TO.P,U9,7,OUT1*%
%TO.N,/Motor2_OUT1*%
X141654100Y-91707998D03*
D28*
%TO.P,U9,8,DRVOFF*%
%TO.N,GND2*%
X141166600Y-92982999D03*
%TO.P,U9,9,EN/IN1*%
%TO.N,/Motor2_PWM_Isolated*%
X141166600Y-93482998D03*
%TO.P,U9,10,PH/IN2*%
%TO.N,/Motor2_DIR_Isolated*%
X141166600Y-93983000D03*
D32*
%TO.P,U9,11,DIAG*%
%TO.N,GND2*%
X141816599Y-94508000D03*
%TO.P,U9,12,SR*%
%TO.N,unconnected-(U9-Pad12)*%
X142316600Y-94508000D03*
%TO.P,U9,13,ITRIP*%
%TO.N,unconnected-(U9-Pad13)*%
X142816600Y-94508000D03*
%TO.P,U9,14,MODE*%
%TO.N,GND2*%
X143316601Y-94508000D03*
%TD*%
D33*
%TO.P,J4,1,Pin_1*%
%TO.N,/Motor1_OUT1*%
X128253400Y-86883400D03*
%TD*%
D34*
%TO.P,J10,1,Pin_1*%
%TO.N,GND*%
X142830500Y-129746900D03*
D35*
%TO.P,J10,2,Pin_2*%
%TO.N,+3.3V*%
X141560500Y-132286900D03*
%TO.P,J10,3,Pin_3*%
%TO.N,/Motor2_ENCA*%
X140290500Y-129746900D03*
%TO.P,J10,4,Pin_4*%
%TO.N,/Motor2_ENCB*%
X139020500Y-132286900D03*
%TD*%
D20*
%TO.P,J7,1,Pin_1*%
%TO.N,GND2*%
X164867800Y-96171400D03*
%TD*%
D26*
%TO.P,C5,1*%
%TO.N,+5VD*%
X126844000Y-107817600D03*
%TO.P,C5,2*%
%TO.N,GND2*%
X126844000Y-106267600D03*
%TD*%
D36*
%TO.P,R11,1*%
%TO.N,GND2*%
X135035000Y-94418800D03*
%TO.P,R11,2*%
%TO.N,Net-(R11-Pad2)*%
X133385000Y-94418800D03*
%TD*%
D14*
%TO.P,C16,1*%
%TO.N,GND*%
X135289200Y-112783000D03*
%TO.P,C16,2*%
%TO.N,+3.3V*%
X136839200Y-112783000D03*
%TD*%
D33*
%TO.P,J12,1,Pin_1*%
%TO.N,/Motor2_OUT1*%
X139315400Y-86951200D03*
%TD*%
D28*
%TO.P,U10,1,nFAULT*%
%TO.N,unconnected-(U10-Pad1)*%
X131775200Y-94266201D03*
%TO.P,U10,2,IPROPI*%
%TO.N,Net-(R11-Pad2)*%
X131775200Y-93766199D03*
%TO.P,U10,3,nSLEEP*%
%TO.N,/nSLEEP_Isolated*%
X131775200Y-93266200D03*
D29*
%TO.P,U10,4,VM*%
%TO.N,/VM*%
X130375200Y-92691200D03*
D30*
%TO.P,U10,5,OUT2*%
%TO.N,/Motor1_OUT2*%
X131287700Y-91991199D03*
D31*
%TO.P,U10,6,GND*%
%TO.N,GND2*%
X130375200Y-90841201D03*
D30*
%TO.P,U10,7,OUT1*%
%TO.N,/Motor1_OUT1*%
X129462700Y-91991199D03*
D28*
%TO.P,U10,8,DRVOFF*%
%TO.N,GND2*%
X128975200Y-93266200D03*
%TO.P,U10,9,EN/IN1*%
%TO.N,/Motor1_PWM_Isolated*%
X128975200Y-93766199D03*
%TO.P,U10,10,PH/IN2*%
%TO.N,/Motor1_DIR_Isolated*%
X128975200Y-94266201D03*
D32*
%TO.P,U10,11,DIAG*%
%TO.N,GND2*%
X129625199Y-94791201D03*
%TO.P,U10,12,SR*%
%TO.N,unconnected-(U10-Pad12)*%
X130125200Y-94791201D03*
%TO.P,U10,13,ITRIP*%
%TO.N,unconnected-(U10-Pad13)*%
X130625200Y-94791201D03*
%TO.P,U10,14,MODE*%
%TO.N,GND2*%
X131125201Y-94791201D03*
%TD*%
D33*
%TO.P,J13,1,Pin_1*%
%TO.N,/Motor2_OUT2*%
X144864200Y-86965000D03*
%TD*%
D26*
%TO.P,C6,1*%
%TO.N,+3.3V*%
X155520600Y-124759400D03*
%TO.P,C6,2*%
%TO.N,GND*%
X155520600Y-123209400D03*
%TD*%
D36*
%TO.P,R10,1*%
%TO.N,GND2*%
X147557200Y-94012400D03*
%TO.P,R10,2*%
%TO.N,Net-(R10-Pad2)*%
X145907200Y-94012400D03*
%TD*%
D37*
%TO.P,U1,1,NC*%
%TO.N,unconnected-(U1-Pad1)*%
X160915600Y-120371000D03*
%TO.P,U1,2,Vn*%
%TO.N,GND*%
X159965600Y-120371000D03*
%TO.P,U1,3,CH1*%
%TO.N,/USB_D+*%
X159015600Y-120371000D03*
%TO.P,U1,4,CH2*%
%TO.N,/USB_D-*%
X159015600Y-122971000D03*
%TO.P,U1,5,Vp*%
%TO.N,+5V*%
X160915600Y-122971000D03*
%TD*%
D26*
%TO.P,C3,1*%
%TO.N,/NRST*%
X140229800Y-122295600D03*
%TO.P,C3,2*%
%TO.N,GND*%
X140229800Y-120745600D03*
%TD*%
D38*
%TO.P,J1,*%
%TO.N,*%
X164424400Y-124568200D03*
D39*
X166874400Y-118068200D03*
X166874400Y-124668200D03*
D40*
X166874400Y-120168200D03*
X166874400Y-122568200D03*
D38*
X164424400Y-118168200D03*
D41*
%TO.P,J1,1,VBUS*%
%TO.N,+5V*%
X164199400Y-122668200D03*
%TO.P,J1,2,D-*%
%TO.N,/USB_D-*%
X164199400Y-122018200D03*
%TO.P,J1,3,D+*%
%TO.N,/USB_D+*%
X164199400Y-121368200D03*
%TO.P,J1,4,ID*%
%TO.N,unconnected-(J1-Pad4)*%
X164199400Y-120718200D03*
%TO.P,J1,5,GND*%
%TO.N,GND*%
X164199400Y-120068200D03*
%TD*%
D20*
%TO.P,J5,1,Pin_1*%
%TO.N,N/C*%
X164867800Y-92894800D03*
%TD*%
D15*
%TO.P,C7,1*%
%TO.N,+5V*%
X162018800Y-124994200D03*
%TO.P,C7,2*%
%TO.N,GND*%
X162018800Y-126544200D03*
%TD*%
D34*
%TO.P,J9,1,Pin_1*%
%TO.N,GND*%
X132736800Y-129775600D03*
D35*
%TO.P,J9,2,Pin_2*%
%TO.N,+3.3V*%
X131466800Y-132315600D03*
%TO.P,J9,3,Pin_3*%
%TO.N,/Motor3_ENCA*%
X130196800Y-129775600D03*
%TO.P,J9,4,Pin_4*%
%TO.N,/Motor3_ENCB*%
X128926800Y-132315600D03*
%TD*%
D14*
%TO.P,C19,1*%
%TO.N,GND2*%
X135289200Y-107830000D03*
%TO.P,C19,2*%
%TO.N,+5VD*%
X136839200Y-107830000D03*
%TD*%
D42*
%TO.P,C10,1*%
%TO.N,+3.3V*%
X160257600Y-129488600D03*
%TO.P,C10,2*%
%TO.N,GND*%
X160257600Y-131388600D03*
%TD*%
D33*
%TO.P,J11,1,Pin_1*%
%TO.N,/Motor1_OUT2*%
X133284200Y-86905000D03*
%TD*%
D15*
%TO.P,C4,1*%
%TO.N,+3.3V*%
X155495200Y-126333600D03*
%TO.P,C4,2*%
%TO.N,GND*%
X155495200Y-127883600D03*
%TD*%
D14*
%TO.P,C18,1*%
%TO.N,GND2*%
X150402200Y-107880800D03*
%TO.P,C18,2*%
%TO.N,+5VD*%
X151952200Y-107880800D03*
%TD*%
D27*
%TO.P,R12,1*%
%TO.N,GND2*%
X158187600Y-95447000D03*
%TO.P,R12,2*%
%TO.N,Net-(R12-Pad2)*%
X158187600Y-93797000D03*
%TD*%
D33*
%TO.P,J15,1,Pin_1*%
%TO.N,/Motor3_OUT2*%
X157118800Y-86951200D03*
%TD*%
%TO.P,J14,1,Pin_1*%
%TO.N,/Motor3_OUT1*%
X151978800Y-86951200D03*
%TD*%
D14*
%TO.P,C15,1*%
%TO.N,GND*%
X150351400Y-112833800D03*
%TO.P,C15,2*%
%TO.N,+3.3V*%
X151901400Y-112833800D03*
%TD*%
D15*
%TO.P,C9,1*%
%TO.N,/3.3VA*%
X152015400Y-128441800D03*
%TO.P,C9,2*%
%TO.N,GND*%
X152015400Y-129991800D03*
%TD*%
D28*
%TO.P,U11,1,nFAULT*%
%TO.N,unconnected-(U11-Pad1)*%
X156286200Y-94088401D03*
%TO.P,U11,2,IPROPI*%
%TO.N,Net-(R12-Pad2)*%
X156286200Y-93588399D03*
%TO.P,U11,3,nSLEEP*%
%TO.N,/nSLEEP_Isolated*%
X156286200Y-93088400D03*
D29*
%TO.P,U11,4,VM*%
%TO.N,/VM*%
X154886200Y-92513400D03*
D30*
%TO.P,U11,5,OUT2*%
%TO.N,/Motor3_OUT2*%
X155798700Y-91813399D03*
D31*
%TO.P,U11,6,GND*%
%TO.N,GND2*%
X154886200Y-90663401D03*
D30*
%TO.P,U11,7,OUT1*%
%TO.N,/Motor3_OUT1*%
X153973700Y-91813399D03*
D28*
%TO.P,U11,8,DRVOFF*%
%TO.N,GND2*%
X153486200Y-93088400D03*
%TO.P,U11,9,EN/IN1*%
%TO.N,/Motor3_PWM_Isolated*%
X153486200Y-93588399D03*
%TO.P,U11,10,PH/IN2*%
%TO.N,/Motor3_DIR_Isolated*%
X153486200Y-94088401D03*
D32*
%TO.P,U11,11,DIAG*%
%TO.N,GND2*%
X154136199Y-94613401D03*
%TO.P,U11,12,SR*%
%TO.N,unconnected-(U11-Pad12)*%
X154636200Y-94613401D03*
%TO.P,U11,13,ITRIP*%
%TO.N,unconnected-(U11-Pad13)*%
X155136200Y-94613401D03*
%TO.P,U11,14,MODE*%
%TO.N,GND2*%
X155636201Y-94613401D03*
%TD*%
D43*
%TO.P,U7,1,VDDA*%
%TO.N,+3.3V*%
X138477200Y-112794200D03*
%TO.P,U7,2,GNDA*%
%TO.N,unconnected-(U7-Pad2)*%
X139747200Y-112794200D03*
%TO.P,U7,3,INA1*%
%TO.N,/Servo_PWM*%
X141017200Y-112794200D03*
%TO.P,U7,4,INA2*%
%TO.N,/nSLEEP*%
X142287200Y-112794200D03*
%TO.P,U7,5,INA3*%
%TO.N,/Motor1_PWM*%
X143557200Y-112794200D03*
%TO.P,U7,6,INA4*%
%TO.N,/Motor1_DIR*%
X144827200Y-112794200D03*
%TO.P,U7,7,ENA*%
%TO.N,unconnected-(U7-Pad7)*%
X146097200Y-112794200D03*
%TO.P,U7,8,GNDA*%
%TO.N,GND*%
X147367200Y-112794200D03*
%TO.P,U7,9,GNDB*%
%TO.N,GND2*%
X147367200Y-107844200D03*
%TO.P,U7,10,ENB*%
%TO.N,unconnected-(U7-Pad10)*%
X146097200Y-107844200D03*
%TO.P,U7,11,INB4*%
%TO.N,/Motor1_DIR_Isolated*%
X144827200Y-107844200D03*
%TO.P,U7,12,INB3*%
%TO.N,/Motor1_PWM_Isolated*%
X143557200Y-107844200D03*
%TO.P,U7,13,INB2*%
%TO.N,/nSLEEP_Isolated*%
X142287200Y-107844200D03*
%TO.P,U7,14,INB1*%
%TO.N,/Servo_PWM_Isolated*%
X141017200Y-107844200D03*
%TO.P,U7,15,GNDB*%
%TO.N,unconnected-(U7-Pad15)*%
X139747200Y-107844200D03*
%TO.P,U7,16,VDDB*%
%TO.N,+5VD*%
X138477200Y-107844200D03*
%TD*%
%TO.P,U6,1,VDDA*%
%TO.N,+3.3V*%
X153590200Y-112821800D03*
%TO.P,U6,2,GNDA*%
%TO.N,unconnected-(U6-Pad2)*%
X154860200Y-112821800D03*
%TO.P,U6,3,INA1*%
%TO.N,/Motor2_PWM*%
X156130200Y-112821800D03*
%TO.P,U6,4,INA2*%
%TO.N,/Motor2_DIR*%
X157400200Y-112821800D03*
%TO.P,U6,5,INA3*%
%TO.N,/Motor3_PWM*%
X158670200Y-112821800D03*
%TO.P,U6,6,INA4*%
%TO.N,/Motor3_DIR*%
X159940200Y-112821800D03*
%TO.P,U6,7,ENA*%
%TO.N,unconnected-(U6-Pad7)*%
X161210200Y-112821800D03*
%TO.P,U6,8,GNDA*%
%TO.N,GND*%
X162480200Y-112821800D03*
%TO.P,U6,9,GNDB*%
%TO.N,GND2*%
X162480200Y-107871800D03*
%TO.P,U6,10,ENB*%
%TO.N,unconnected-(U6-Pad10)*%
X161210200Y-107871800D03*
%TO.P,U6,11,INB4*%
%TO.N,/Motor3_DIR_Isolated*%
X159940200Y-107871800D03*
%TO.P,U6,12,INB3*%
%TO.N,/Motor3_PWM_Isolated*%
X158670200Y-107871800D03*
%TO.P,U6,13,INB2*%
%TO.N,/Motor2_DIR_Isolated*%
X157400200Y-107871800D03*
%TO.P,U6,14,INB1*%
%TO.N,/Motor2_PWM_Isolated*%
X156130200Y-107871800D03*
%TO.P,U6,15,GNDB*%
%TO.N,unconnected-(U6-Pad15)*%
X154860200Y-107871800D03*
%TO.P,U6,16,VDDB*%
%TO.N,+5VD*%
X153590200Y-107871800D03*
%TD*%
D44*
%TO.P,U2,1,IN*%
%TO.N,+5V*%
X160250900Y-125169500D03*
%TO.P,U2,2,GND*%
%TO.N,GND*%
X159300900Y-125169500D03*
%TO.P,U2,3,EN*%
%TO.N,+5V*%
X158350900Y-125169500D03*
%TO.P,U2,4,NC/ADJ*%
%TO.N,unconnected-(U2-Pad4)*%
X158350900Y-127459500D03*
%TO.P,U2,5,OUT*%
%TO.N,+3.3V*%
X160250900Y-127459500D03*
%TD*%
D43*
%TO.P,U8,1,VDDA*%
%TO.N,+3.3V*%
X128596600Y-112771000D03*
%TO.P,U8,2,IN1*%
%TO.N,/Thrower_PWM*%
X129866600Y-112771000D03*
%TO.P,U8,3,IN2*%
%TO.N,unconnected-(U8-Pad3)*%
X131136600Y-112771000D03*
%TO.P,U8,4,GNDA*%
%TO.N,GND*%
X132406600Y-112771000D03*
%TO.P,U8,5,GNDB*%
%TO.N,GND2*%
X132406600Y-107821000D03*
%TO.P,U8,6,OUT2*%
%TO.N,unconnected-(U8-Pad6)*%
X131136600Y-107821000D03*
%TO.P,U8,7,OUT1*%
%TO.N,/Thrower_PWM_Isolated*%
X129866600Y-107821000D03*
%TO.P,U8,8,VDDB*%
%TO.N,+5VD*%
X128596600Y-107821000D03*
%TD*%
D45*
%TO.N,*%
X165000000Y-88000000D03*
X122000000Y-131000000D03*
X165000000Y-131000000D03*
X122000000Y-88000000D03*
D46*
%TO.N,/SWDIO*%
X141830000Y-121419000D03*
X147113200Y-122333400D03*
%TO.N,/V+*%
X155805200Y-100633400D03*
X159234200Y-99211000D03*
X157380000Y-101954200D03*
X155779800Y-101954200D03*
X155805200Y-99211000D03*
X159234200Y-100633400D03*
X159208800Y-101954200D03*
X157405400Y-99211000D03*
X157405400Y-100633400D03*
X159234200Y-97915600D03*
X155805200Y-97915600D03*
X157405400Y-97915600D03*
%TO.N,GND2*%
X129053800Y-91218400D03*
X132298200Y-96834200D03*
X150999400Y-108414200D03*
X166496000Y-99736200D03*
X140737800Y-89796000D03*
X138528000Y-104604200D03*
X163115200Y-95155400D03*
X140229800Y-104604200D03*
X147367200Y-107118800D03*
X131746200Y-91243800D03*
X132914600Y-89999200D03*
X153031400Y-89745200D03*
X156181000Y-91091400D03*
X159635400Y-89770600D03*
X135226000Y-94164800D03*
X152658800Y-92944200D03*
X165683200Y-100752200D03*
X129986800Y-96834200D03*
X166620400Y-97162000D03*
X133838800Y-98604200D03*
X143912800Y-90964400D03*
X130882600Y-90405600D03*
X138528000Y-105442400D03*
X137715200Y-105213800D03*
X155317400Y-90253200D03*
X129250200Y-96834200D03*
X162480200Y-107144200D03*
X139391600Y-105442400D03*
X137228800Y-98304200D03*
X162990800Y-99736200D03*
X143049200Y-90126200D03*
X125751800Y-90024600D03*
X133822200Y-96834200D03*
X157476400Y-89745200D03*
X134946600Y-89999200D03*
X144192200Y-89796000D03*
X162990800Y-101742800D03*
X131510800Y-96834200D03*
X142515800Y-90939000D03*
X130349200Y-91218400D03*
X166496000Y-101742800D03*
X137512000Y-89796000D03*
X135937200Y-108261800D03*
X132406600Y-107093400D03*
X140418800Y-92974200D03*
X125269200Y-97543000D03*
X147367200Y-89770600D03*
X147748200Y-94291800D03*
X164867800Y-95155400D03*
X137715200Y-104375600D03*
X166620400Y-95155400D03*
X163115200Y-97162000D03*
X157908200Y-95638000D03*
X164743400Y-101742800D03*
X130774200Y-96834200D03*
X150148800Y-102154200D03*
X164867800Y-97162000D03*
X140229800Y-105442400D03*
X139391600Y-104604200D03*
X154784000Y-91066000D03*
X124659600Y-96247600D03*
X163928000Y-96171400D03*
X153488600Y-91066000D03*
X163803600Y-100752200D03*
X133034800Y-96834200D03*
X128204024Y-93324846D03*
X165807600Y-96171400D03*
X154174400Y-90253200D03*
X134558800Y-96834200D03*
X141906200Y-90126200D03*
X149831000Y-89719800D03*
X128774400Y-89948400D03*
X127606000Y-106864800D03*
X141220400Y-90939000D03*
X129739600Y-90405600D03*
X164743400Y-99736200D03*
X140280600Y-103715200D03*
%TO.N,/Thrower_PWM*%
X127788800Y-120149000D03*
X127783800Y-118040800D03*
%TO.N,/Servo_PWM*%
X145436800Y-116643800D03*
X148611800Y-119768000D03*
%TO.N,/Motor3_ENCB*%
X144725600Y-125991000D03*
X146630600Y-124187600D03*
%TO.N,/Motor3_ENCA*%
X145767000Y-127007000D03*
X147824400Y-125330600D03*
%TO.N,/nSLEEP*%
X151431200Y-121257300D03*
X146757600Y-115424600D03*
%TO.N,/nSLEEP_Isolated*%
X139086800Y-94114000D03*
X155178800Y-93694200D03*
X151398800Y-93974200D03*
X142947600Y-93580600D03*
X142868800Y-106084200D03*
X151488800Y-104514200D03*
%TO.N,/SWCLK*%
X146529000Y-119818800D03*
X145411400Y-118853600D03*
%TO.N,GND*%
X132152600Y-119768000D03*
X134387800Y-122308000D03*
X132152600Y-118523400D03*
X155012600Y-127351703D03*
X150974000Y-113341800D03*
X146681400Y-117888400D03*
X143100000Y-121368200D03*
X152675800Y-129536103D03*
X149856400Y-129612303D03*
X147367200Y-113519600D03*
X160968800Y-130794200D03*
X159301000Y-125616800D03*
X132406600Y-113519600D03*
X163724800Y-120047400D03*
X135911800Y-113291000D03*
X150669200Y-127159400D03*
X140585400Y-120326800D03*
X159965600Y-119945800D03*
X152528800Y-132114200D03*
X157791503Y-129525400D03*
X162480200Y-113570400D03*
X155088800Y-123588897D03*
X125929600Y-113291000D03*
X152269400Y-127159400D03*
X162577600Y-126099400D03*
%TO.N,+5VD*%
X152802800Y-107880800D03*
X137689800Y-107830000D03*
X127770800Y-107817600D03*
X128266400Y-97543000D03*
X135508800Y-98494200D03*
%TO.N,/VM*%
X141158800Y-92394200D03*
X153418800Y-92504200D03*
X154809400Y-92479999D03*
X144038800Y-92394200D03*
X142558800Y-92384200D03*
X130298400Y-92712799D03*
X128888800Y-92674200D03*
X156338800Y-92494200D03*
X131788800Y-92704200D03*
%TO.N,+3.3V*%
X154384300Y-126378700D03*
X144172800Y-119635000D03*
X152752000Y-112833800D03*
X132178000Y-117253400D03*
X137740600Y-112783000D03*
X127834600Y-112757600D03*
X151278700Y-133077700D03*
X155520600Y-125635400D03*
X160250900Y-128602100D03*
X156908800Y-129604200D03*
%TD*%
D47*
%TO.N,/NRST*%
X145295400Y-122035000D02*
X140490400Y-122035000D01*
X140192000Y-122333400D02*
X140229800Y-122295600D01*
X140490400Y-122035000D02*
X140229800Y-122295600D01*
X137337200Y-122333400D02*
X140192000Y-122333400D01*
%TO.N,/SWDIO*%
X151202600Y-120707800D02*
X152218600Y-120707800D01*
X152218600Y-120707800D02*
X152491400Y-120435000D01*
X152491400Y-120435000D02*
X153655400Y-120435000D01*
X150745400Y-121165000D02*
X151202600Y-120707800D01*
X140204400Y-118447200D02*
X141855400Y-120098200D01*
X137337200Y-117253400D02*
X139010600Y-117253400D01*
X139010600Y-117253400D02*
X140179000Y-118421800D01*
X147113200Y-122333400D02*
X150339000Y-122333400D01*
X150745400Y-121927000D02*
X150745400Y-121165000D01*
X150339000Y-122333400D02*
X150745400Y-121927000D01*
X141855400Y-120098200D02*
X141855400Y-121419000D01*
X140179000Y-118421800D02*
X140204400Y-118447200D01*
X141855400Y-121419000D02*
X141830000Y-121419000D01*
%TO.N,GND2*%
X130806400Y-93809200D02*
X131125201Y-94128001D01*
X153486200Y-93088400D02*
X152908900Y-93088400D01*
X127262800Y-106267600D02*
X127453600Y-106458400D01*
X135810200Y-107957000D02*
X135937200Y-108084000D01*
X131125201Y-94128001D02*
X131125201Y-94791201D01*
X127453600Y-106458400D02*
X127606000Y-106610800D01*
D48*
X135035000Y-94418800D02*
X135035000Y-94355800D01*
X154136199Y-95091799D02*
X154403000Y-95358600D01*
X155292000Y-95358600D02*
X155636201Y-95014399D01*
X154136199Y-93313799D02*
X154136199Y-94613401D01*
D47*
X150999400Y-108287200D02*
X150999400Y-108414200D01*
X127606000Y-106610800D02*
X127606000Y-106864800D01*
X126844000Y-106267600D02*
X127262800Y-106267600D01*
X135683200Y-107830000D02*
X135810200Y-107957000D01*
D48*
X155636201Y-95014399D02*
X155636201Y-94613401D01*
X141816599Y-94508000D02*
X141816599Y-95061999D01*
X141816599Y-93160799D02*
X141816599Y-94508000D01*
D47*
X129625199Y-94791201D02*
X129625199Y-94050601D01*
D48*
X153910800Y-93088400D02*
X154136199Y-93313799D01*
X141816599Y-95061999D02*
X142062400Y-95307800D01*
X142062400Y-95307800D02*
X142947600Y-95307800D01*
X129625199Y-93516999D02*
X129374400Y-93266200D01*
X154136199Y-94613401D02*
X154136199Y-95091799D01*
X141166600Y-92982999D02*
X140614139Y-92982999D01*
X141638799Y-92982999D02*
X141816599Y-93160799D01*
D47*
X140395601Y-92982999D02*
X140410001Y-92982999D01*
X152803000Y-93088400D02*
X152658800Y-92944200D01*
X150593000Y-107880800D02*
X150770800Y-108058600D01*
D48*
X128262670Y-93266200D02*
X128204024Y-93324846D01*
D47*
X152908900Y-93088400D02*
X152803000Y-93088400D01*
D48*
X153486200Y-93088400D02*
X153910800Y-93088400D01*
X142947600Y-95307800D02*
X143316601Y-94938799D01*
D47*
X135289200Y-107830000D02*
X135683200Y-107830000D01*
X140614139Y-92982999D02*
X140395601Y-92982999D01*
D48*
X135035000Y-94355800D02*
X135226000Y-94164800D01*
D47*
X129866600Y-93809200D02*
X130806400Y-93809200D01*
D48*
X154403000Y-95358600D02*
X155292000Y-95358600D01*
X143316601Y-94938799D02*
X143316601Y-94508000D01*
X129374400Y-93266200D02*
X128975200Y-93266200D01*
D47*
X140410001Y-92982999D02*
X140418800Y-92974200D01*
X150770800Y-108058600D02*
X150999400Y-108287200D01*
D48*
X128975200Y-93266200D02*
X128262670Y-93266200D01*
X141166600Y-92982999D02*
X141638799Y-92982999D01*
D47*
X129625199Y-94050601D02*
X129866600Y-93809200D01*
X150402200Y-107880800D02*
X150593000Y-107880800D01*
X135937200Y-108084000D02*
X135937200Y-108261800D01*
D48*
X129625199Y-94791201D02*
X129625199Y-93516999D01*
D47*
%TO.N,Net-(D1-Pad1)*%
X158208800Y-131544200D02*
X156620700Y-131544200D01*
X156620700Y-131544200D02*
X156583300Y-131506800D01*
D49*
%TO.N,/USB_D-*%
X164199400Y-122018200D02*
X163445400Y-122018200D01*
X159015600Y-122497800D02*
X159015600Y-122971000D01*
X154716400Y-122035000D02*
X154880400Y-121871000D01*
X158388800Y-121871000D02*
X159015600Y-122497800D01*
X153655400Y-122035000D02*
X154716400Y-122035000D01*
X163445400Y-122018200D02*
X163298200Y-121871000D01*
X159015600Y-122445200D02*
X159589800Y-121871000D01*
X154880400Y-121871000D02*
X158388800Y-121871000D01*
X159589800Y-121871000D02*
X163298200Y-121871000D01*
%TO.N,/USB_D+*%
X159578800Y-121517838D02*
X159015600Y-120954638D01*
X163397000Y-121368200D02*
X164199400Y-121368200D01*
X159742438Y-121517838D02*
X159578800Y-121517838D01*
X163247362Y-121517838D02*
X163397000Y-121368200D01*
X159658038Y-121517838D02*
X159742438Y-121517838D01*
X159015600Y-120954638D02*
X159015600Y-120371000D01*
X154933638Y-121517838D02*
X158368162Y-121517838D01*
X153655400Y-121235000D02*
X154650800Y-121235000D01*
X159742438Y-121517838D02*
X163247362Y-121517838D01*
X159015600Y-120870400D02*
X159015600Y-120371000D01*
X158368162Y-121517838D02*
X159015600Y-120870400D01*
X154650800Y-121235000D02*
X154933638Y-121517838D01*
D47*
%TO.N,/Thrower_PWM*%
X142198800Y-125154200D02*
X130778800Y-125154200D01*
X145295400Y-124435000D02*
X142918000Y-124435000D01*
X127783800Y-118040800D02*
X127783800Y-117499200D01*
X127783800Y-117499200D02*
X129866600Y-115416400D01*
X127788800Y-122164200D02*
X127788800Y-120149000D01*
X129866600Y-115416400D02*
X129866600Y-112771000D01*
X142918000Y-124435000D02*
X142198800Y-125154200D01*
X130778800Y-125154200D02*
X127788800Y-122164200D01*
%TO.N,/Motor2_ENCA*%
X147478800Y-128184200D02*
X148275400Y-127387600D01*
X140290500Y-129232500D02*
X141338800Y-128184200D01*
X140290500Y-129746900D02*
X140290500Y-129232500D01*
X141338800Y-128184200D02*
X147478800Y-128184200D01*
X148275400Y-127387600D02*
X148275400Y-126615000D01*
%TO.N,/Motor2_ENCB*%
X139020500Y-128952500D02*
X140398800Y-127574200D01*
X140398800Y-127574200D02*
X146358800Y-127574200D01*
X146675400Y-127257600D02*
X146675400Y-126615000D01*
X146358800Y-127574200D02*
X146675400Y-127257600D01*
X139020500Y-132286900D02*
X139020500Y-128952500D01*
%TO.N,/Servo_PWM*%
X145436800Y-116643800D02*
X143862000Y-116643800D01*
X141017200Y-113799000D02*
X141017200Y-112794200D01*
X143862000Y-116643800D02*
X141017200Y-113799000D01*
X141017200Y-112794200D02*
X141017200Y-113632600D01*
X152275400Y-118974600D02*
X151685200Y-119564800D01*
X150284200Y-119768000D02*
X148611800Y-119768000D01*
X150487400Y-119564800D02*
X150284200Y-119768000D01*
X152275400Y-118255000D02*
X152275400Y-118974600D01*
X151685200Y-119564800D02*
X150487400Y-119564800D01*
X141017200Y-113632600D02*
X141018800Y-113634200D01*
%TO.N,/Motor3_ENCB*%
X146630600Y-124187600D02*
X150847000Y-124187600D01*
X131370900Y-125934500D02*
X128926800Y-128378600D01*
X150847000Y-124187600D02*
X151399600Y-123635000D01*
X151399600Y-123635000D02*
X153655400Y-123635000D01*
X128926800Y-128378600D02*
X128926800Y-132315600D01*
X144725600Y-125991000D02*
X131370900Y-125934500D01*
%TO.N,/Motor3_ENCA*%
X130862400Y-127870600D02*
X130857200Y-127870600D01*
X131726000Y-127007000D02*
X130862400Y-127870600D01*
X147824400Y-125330600D02*
X151075600Y-125330600D01*
X145767000Y-127007000D02*
X131726000Y-127007000D01*
X130196800Y-128531000D02*
X130196800Y-129775600D01*
X151075600Y-125330600D02*
X151971200Y-124435000D01*
X151971200Y-124435000D02*
X153655400Y-124435000D01*
X130857200Y-127870600D02*
X130196800Y-128531000D01*
%TO.N,/Motor1_ENCA*%
X119894300Y-120666900D02*
X123443700Y-120666900D01*
X124253200Y-118142400D02*
X124950600Y-118142400D01*
X119249400Y-118828200D02*
X119249400Y-120022000D01*
X123000600Y-118142400D02*
X119935200Y-118142400D01*
X125778800Y-118794200D02*
X128578800Y-118794200D01*
X142118000Y-122835000D02*
X145295400Y-122835000D01*
X130258800Y-122374200D02*
X131648800Y-123764200D01*
X130118800Y-122234200D02*
X131648800Y-123764200D01*
X130118800Y-120334200D02*
X130118800Y-122234200D01*
X124253200Y-118142400D02*
X123000600Y-118142400D01*
X125127000Y-118142400D02*
X125778800Y-118794200D01*
X119249400Y-120022000D02*
X119894300Y-120666900D01*
X124950600Y-118142400D02*
X125066000Y-118142400D01*
X123000600Y-118142400D02*
X125127000Y-118142400D01*
X141188800Y-123764200D02*
X142118000Y-122835000D01*
X128578800Y-118794200D02*
X130118800Y-120334200D01*
X131648800Y-123764200D02*
X141188800Y-123764200D01*
X119935200Y-118142400D02*
X119249400Y-118828200D01*
%TO.N,/Motor1_ENCB*%
X131328800Y-124424200D02*
X129458800Y-122554200D01*
X145295400Y-123635000D02*
X142388000Y-123635000D01*
X128151500Y-119396900D02*
X120903700Y-119396900D01*
X142388000Y-123635000D02*
X141598800Y-124424200D01*
X129458800Y-122554200D02*
X129458800Y-120704200D01*
X129458800Y-120704200D02*
X128151500Y-119396900D01*
X141598800Y-124424200D02*
X131328800Y-124424200D01*
%TO.N,/nSLEEP*%
X151983600Y-122835000D02*
X151431200Y-122282600D01*
X153655400Y-122835000D02*
X151983600Y-122835000D01*
X144090600Y-115424600D02*
X142287200Y-113621200D01*
X142287200Y-113621200D02*
X142287200Y-112794200D01*
X151431200Y-122282600D02*
X151431200Y-121257300D01*
X146757600Y-115424600D02*
X144090600Y-115424600D01*
%TO.N,/Motor3_DIR*%
X157070000Y-116821600D02*
X159940200Y-113951400D01*
X159940200Y-113951400D02*
X159940200Y-112821800D01*
X151475400Y-118255000D02*
X151475400Y-117361600D01*
X152015400Y-116821600D02*
X157070000Y-116821600D01*
X151475400Y-117361600D02*
X152015400Y-116821600D01*
%TO.N,/Motor3_PWM*%
X158670200Y-113799000D02*
X158670200Y-112821800D01*
X150339000Y-117024800D02*
X150339000Y-116491400D01*
X150675400Y-117361200D02*
X150339000Y-117024800D01*
X150339000Y-116491400D02*
X150694600Y-116135800D01*
X150694600Y-116135800D02*
X156333400Y-116135800D01*
X156333400Y-116135800D02*
X158670200Y-113799000D01*
X150675400Y-118255000D02*
X150675400Y-117361200D01*
%TO.N,/Motor2_DIR*%
X149875400Y-117399400D02*
X149653200Y-117177200D01*
X155698400Y-115500800D02*
X157400200Y-113799000D01*
X149875400Y-118255000D02*
X149875400Y-117399400D01*
X149653200Y-117177200D02*
X149653200Y-116313600D01*
X157400200Y-113799000D02*
X157400200Y-112821800D01*
X149653200Y-116313600D02*
X150466000Y-115500800D01*
X150466000Y-115500800D02*
X155698400Y-115500800D01*
%TO.N,/Motor2_PWM*%
X149075400Y-115799200D02*
X150059600Y-114815000D01*
X150059600Y-114815000D02*
X155012600Y-114815000D01*
X149075400Y-118255000D02*
X149075400Y-115799200D01*
X155012600Y-114815000D02*
X156130200Y-113697400D01*
X156130200Y-113697400D02*
X156130200Y-112821800D01*
%TO.N,/Motor1_DIR*%
X148510200Y-115069000D02*
X148510200Y-117202600D01*
X148275400Y-117437400D02*
X148275400Y-118255000D01*
X147748200Y-114307000D02*
X148510200Y-115069000D01*
X144827200Y-112794200D02*
X144827200Y-113621200D01*
X145513000Y-114307000D02*
X147748200Y-114307000D01*
X148510200Y-117202600D02*
X148275400Y-117437400D01*
X144827200Y-113621200D02*
X145513000Y-114307000D01*
%TO.N,/Motor1_PWM*%
X144738300Y-114853100D02*
X147329100Y-114853100D01*
X147475400Y-118255000D02*
X147475400Y-117272200D01*
X144738300Y-114853100D02*
X143557200Y-113672000D01*
X147926000Y-116821600D02*
X147926000Y-115450000D01*
X143557200Y-113672000D02*
X143557200Y-112794200D01*
X147475400Y-117272200D02*
X147926000Y-116821600D01*
X147329100Y-114853100D02*
X147926000Y-115450000D01*
%TO.N,/Thrower_PWM_Isolated*%
X125658800Y-105974200D02*
X126458800Y-105174200D01*
X124190300Y-107271700D02*
X124971300Y-107271700D01*
X125658800Y-106584200D02*
X125658800Y-105974200D01*
X124971300Y-107271700D02*
X125658800Y-106584200D01*
X127418800Y-105174200D02*
X128438800Y-106194200D01*
X128438800Y-106194200D02*
X129228800Y-106194200D01*
X126458800Y-105174200D02*
X127418800Y-105174200D01*
X129866600Y-106832000D02*
X129866600Y-107821000D01*
X129228800Y-106194200D02*
X129866600Y-106832000D01*
%TO.N,/nSLEEP_Isolated*%
X142287200Y-106425800D02*
X142588800Y-106124200D01*
X142628800Y-106084200D02*
X142868800Y-106084200D01*
X155784600Y-93088400D02*
X155178800Y-93694200D01*
X151398800Y-93584200D02*
X151398800Y-93974200D01*
X131775200Y-93266200D02*
X134753000Y-93266200D01*
X156286200Y-93088400D02*
X155784600Y-93088400D01*
X151398800Y-104424200D02*
X151488800Y-104514200D01*
X148674599Y-92982999D02*
X150797599Y-92982999D01*
X142287200Y-107844200D02*
X142287200Y-106425800D01*
X151398800Y-93974200D02*
X151398800Y-104424200D01*
X150797599Y-92982999D02*
X151398800Y-93584200D01*
X142588800Y-106124200D02*
X142628800Y-106084200D01*
D48*
X138239000Y-93266200D02*
X139061400Y-94088600D01*
X143545201Y-92982999D02*
X142947600Y-93580600D01*
X143966600Y-92982999D02*
X148674599Y-92982999D01*
X134753000Y-93266200D02*
X138239000Y-93266200D01*
X143966600Y-92982999D02*
X143545201Y-92982999D01*
X139061400Y-94088600D02*
X139086800Y-94114000D01*
D47*
%TO.N,/Motor3_DIR_Isolated*%
X153588800Y-99373200D02*
X153588800Y-101351600D01*
X159940200Y-106775600D02*
X159940200Y-107871800D01*
X153486200Y-94088401D02*
X153412599Y-94088401D01*
X153209200Y-98993600D02*
X153588800Y-99373200D01*
X153209200Y-94291800D02*
X153209200Y-98993600D01*
X156678800Y-103514200D02*
X159940200Y-106775600D01*
X153588800Y-101351600D02*
X155751400Y-103514200D01*
X155751400Y-103514200D02*
X156678800Y-103514200D01*
X153412599Y-94088401D02*
X153209200Y-94291800D01*
%TO.N,/Motor3_PWM_Isolated*%
X152802800Y-102546800D02*
X154606200Y-104350200D01*
X153486200Y-93588399D02*
X153150601Y-93588399D01*
X152802800Y-99879800D02*
X152802800Y-102546800D01*
X153150601Y-93588399D02*
X152308400Y-94430600D01*
X152308400Y-94430600D02*
X152308400Y-99383600D01*
X152308400Y-99383600D02*
X152803700Y-99878900D01*
X154606200Y-104350200D02*
X156574800Y-104350200D01*
X152803700Y-99878900D02*
X152802800Y-99879800D01*
X156574800Y-104350200D02*
X158670200Y-106445600D01*
X158670200Y-106445600D02*
X158670200Y-107871800D01*
%TO.N,/Motor2_DIR_Isolated*%
X149424600Y-105315400D02*
X156231800Y-105315400D01*
X157400200Y-106483800D02*
X157400200Y-107871800D01*
X141166600Y-93983000D02*
X141166600Y-95101600D01*
X147291000Y-98279600D02*
X147291000Y-103181800D01*
X142833300Y-96768300D02*
X145779700Y-96768300D01*
X147291000Y-103181800D02*
X149424600Y-105315400D01*
X141166600Y-95101600D02*
X142833300Y-96768300D01*
X145779700Y-96768300D02*
X147291000Y-98279600D01*
X156231800Y-105315400D02*
X157400200Y-106483800D01*
%TO.N,/Motor2_PWM_Isolated*%
X156130200Y-106483800D02*
X156130200Y-107871800D01*
X146148000Y-98635200D02*
X146148000Y-103740600D01*
X140458400Y-95790400D02*
X142617400Y-97949400D01*
X141166600Y-93482998D02*
X140691604Y-93482998D01*
X155647600Y-106001200D02*
X156130200Y-106483800D01*
X146148000Y-103740600D02*
X148408600Y-106001200D01*
X148408600Y-106001200D02*
X155647600Y-106001200D01*
X145462200Y-97949400D02*
X146148000Y-98635200D01*
X142617400Y-97949400D02*
X145462200Y-97949400D01*
X140691604Y-93482998D02*
X140458400Y-93716202D01*
X140458400Y-93716202D02*
X140458400Y-95790400D01*
%TO.N,/Motor1_DIR_Isolated*%
X142592000Y-103512000D02*
X144827200Y-105747200D01*
X142312600Y-103232600D02*
X142592000Y-103512000D01*
X144827200Y-105747200D02*
X144827200Y-106687000D01*
X133371800Y-95663400D02*
X129460200Y-95663400D01*
X136673800Y-95663400D02*
X138731200Y-95663400D01*
X144827200Y-106687000D02*
X144827200Y-107844200D01*
X142312600Y-99244800D02*
X142312600Y-103232600D01*
D48*
X133371800Y-95663400D02*
X136673800Y-95663400D01*
D47*
X128975200Y-95030800D02*
X128975200Y-95178400D01*
X138731200Y-95663400D02*
X142312600Y-99244800D01*
X129460200Y-95663400D02*
X128975200Y-95178400D01*
D48*
X128975200Y-94266201D02*
X128975200Y-95030800D01*
D47*
%TO.N,/Motor1_PWM_Isolated*%
X136623000Y-96146000D02*
X137664400Y-96146000D01*
X128164800Y-95130000D02*
X129180800Y-96146000D01*
X128975200Y-93766199D02*
X128538001Y-93766199D01*
X143557200Y-105569400D02*
X143557200Y-107844200D01*
X128164800Y-94139400D02*
X128164800Y-95130000D01*
X128538001Y-93766199D02*
X128164800Y-94139400D01*
X141499800Y-99981400D02*
X141499800Y-103512000D01*
X129180800Y-96146000D02*
X136623000Y-96146000D01*
X141499800Y-103512000D02*
X143557200Y-105569400D01*
X137664400Y-96146000D02*
X141499800Y-99981400D01*
%TO.N,/Servo_PWM_Isolated*%
X132418800Y-105514200D02*
X133368800Y-106464200D01*
X127768800Y-104424200D02*
X128858800Y-105514200D01*
X126078800Y-104424200D02*
X127768800Y-104424200D01*
X140528800Y-106464200D02*
X141017200Y-106952600D01*
X141017200Y-106952600D02*
X141017200Y-107844200D01*
X128858800Y-105514200D02*
X132418800Y-105514200D01*
X122038800Y-101684200D02*
X123338800Y-101684200D01*
X123338800Y-101684200D02*
X126078800Y-104424200D01*
X133368800Y-106464200D02*
X140528800Y-106464200D01*
D48*
%TO.N,Net-(R10-Pad2)*%
X145377798Y-93482998D02*
X145907200Y-94012400D01*
X143966600Y-93482998D02*
X145377798Y-93482998D01*
D47*
%TO.N,/SWCLK*%
X151948000Y-120114800D02*
X152427800Y-119635000D01*
X151084400Y-120114800D02*
X151948000Y-120114800D01*
X135937200Y-118523400D02*
X135327600Y-117913800D01*
X140991800Y-118345600D02*
X144903400Y-118345600D01*
X135327600Y-117913800D02*
X135327600Y-116669200D01*
X135327600Y-116669200D02*
X135861000Y-116135800D01*
X137337200Y-118523400D02*
X135937200Y-118523400D01*
X150415200Y-120784000D02*
X151084400Y-120114800D01*
X135861000Y-116135800D02*
X138782000Y-116135800D01*
X146529000Y-119818800D02*
X146681400Y-119818800D01*
X146681400Y-119818800D02*
X147646600Y-120784000D01*
X152427800Y-119635000D02*
X153655400Y-119635000D01*
X144903400Y-118345600D02*
X145411400Y-118853600D01*
X138782000Y-116135800D02*
X140991800Y-118345600D01*
X147646600Y-120784000D02*
X150415200Y-120784000D01*
%TO.N,GND*%
X152280297Y-129536103D02*
X152675800Y-129536103D01*
X152275400Y-127153400D02*
X152269400Y-127159400D01*
X150675400Y-127153200D02*
X150669200Y-127159400D01*
X152193200Y-129623200D02*
X152280297Y-129536103D01*
X135289200Y-112783000D02*
X135657800Y-112783000D01*
D49*
X152091600Y-131917000D02*
X152218800Y-132044200D01*
D47*
X155012600Y-127311800D02*
X155012600Y-127351703D01*
D49*
X152218800Y-132044200D02*
X152288800Y-132114200D01*
D47*
X135784800Y-112910000D02*
X135911800Y-113037000D01*
X162018800Y-126378800D02*
X162222000Y-126175600D01*
X150351400Y-112833800D02*
X150770800Y-112833800D01*
X162018800Y-126544200D02*
X162018800Y-126378800D01*
D50*
X159965600Y-120371000D02*
X159965600Y-119945800D01*
D47*
X160384600Y-130845000D02*
X160435400Y-130794200D01*
X157802400Y-129677800D02*
X157791503Y-129666903D01*
X155495200Y-127591200D02*
X155215800Y-127311800D01*
X134362400Y-122333400D02*
X134387800Y-122308000D01*
X160435400Y-130794200D02*
X160968800Y-130794200D01*
X152015400Y-129991800D02*
X152015400Y-129801000D01*
X150201103Y-129612303D02*
X149856400Y-129612303D01*
D49*
X152288800Y-132114200D02*
X152528800Y-132114200D01*
X152091600Y-131515200D02*
X152091600Y-131917000D01*
D47*
X125929600Y-112986200D02*
X125929600Y-113291000D01*
X155215800Y-127311800D02*
X155012600Y-127311800D01*
X150466000Y-129991800D02*
X150466000Y-129877200D01*
X150974000Y-113037000D02*
X150974000Y-113341800D01*
X157791503Y-129666903D02*
X157791503Y-129525400D01*
X155520600Y-123209400D02*
X155520600Y-123425600D01*
X150212000Y-129623200D02*
X150201103Y-129612303D01*
X140229800Y-120745600D02*
X140229800Y-120682400D01*
X150770800Y-112833800D02*
X150897800Y-112960800D01*
X150897800Y-112960800D02*
X150974000Y-113037000D01*
X152015400Y-129801000D02*
X152193200Y-129623200D01*
X125383200Y-112757600D02*
X125701000Y-112757600D01*
X160257600Y-130972000D02*
X160384600Y-130845000D01*
X133267200Y-119793400D02*
X132178000Y-119793400D01*
X133267200Y-118523400D02*
X132152600Y-118523400D01*
X155419000Y-123527200D02*
X155357303Y-123588897D01*
X125701000Y-112757600D02*
X125878800Y-112935400D01*
X160257600Y-131388600D02*
X160257600Y-130972000D01*
X157942600Y-129894200D02*
X157791503Y-129743103D01*
X155357303Y-123588897D02*
X155088800Y-123588897D01*
X125878800Y-112935400D02*
X125929600Y-112986200D01*
X140229800Y-120682400D02*
X140585400Y-120326800D01*
X155520600Y-123425600D02*
X155419000Y-123527200D01*
X133267200Y-122333400D02*
X134362400Y-122333400D01*
X158208800Y-129894200D02*
X157942600Y-129894200D01*
X132178000Y-119793400D02*
X132152600Y-119768000D01*
X155495200Y-127883600D02*
X155495200Y-127591200D01*
X135911800Y-113037000D02*
X135911800Y-113291000D01*
X162222000Y-126175600D02*
X162298200Y-126099400D01*
X150466000Y-129877200D02*
X150212000Y-129623200D01*
X135657800Y-112783000D02*
X135784800Y-112910000D01*
X162298200Y-126099400D02*
X162577600Y-126099400D01*
%TO.N,/3.3VA*%
X151475400Y-126615000D02*
X151475400Y-127152800D01*
%TO.N,+5VD*%
X134557600Y-97543000D02*
X134417600Y-97543000D01*
D51*
X151952200Y-107880800D02*
X152802800Y-107880800D01*
X128593200Y-107817600D02*
X128596600Y-107821000D01*
X138477200Y-107844200D02*
X137704000Y-107844200D01*
X137704000Y-107844200D02*
X137689800Y-107830000D01*
X153581200Y-107880800D02*
X153590200Y-107871800D01*
D47*
X135508800Y-98494200D02*
X134557600Y-97543000D01*
D51*
X152802800Y-107880800D02*
X153581200Y-107880800D01*
X127770800Y-107817600D02*
X128593200Y-107817600D01*
D47*
X128266400Y-97543000D02*
X134417600Y-97543000D01*
D51*
X126844000Y-107817600D02*
X127770800Y-107817600D01*
X136839200Y-107830000D02*
X137689800Y-107830000D01*
%TO.N,+3.3V*%
X155495200Y-125660800D02*
X155520600Y-125635400D01*
D47*
X133267200Y-117253400D02*
X132178000Y-117253400D01*
D51*
X154123600Y-125686200D02*
X153672400Y-125235000D01*
X154682303Y-126676703D02*
X154123600Y-126118000D01*
X160257600Y-129488600D02*
X160257600Y-128608800D01*
X155520600Y-124759400D02*
X155520600Y-125635400D01*
X160257600Y-128608800D02*
X160250900Y-128602100D01*
X152752000Y-112833800D02*
X153578200Y-112833800D01*
X153672400Y-125235000D02*
X153655400Y-125235000D01*
D47*
X156583300Y-129931800D02*
X156583300Y-129929700D01*
D51*
X155292000Y-126626000D02*
X155292000Y-126651400D01*
X151901400Y-112833800D02*
X152752000Y-112833800D01*
X155266697Y-126676703D02*
X154682303Y-126676703D01*
X145295400Y-119635000D02*
X144172800Y-119635000D01*
X126933200Y-112757600D02*
X127834600Y-112757600D01*
X138466000Y-112783000D02*
X138477200Y-112794200D01*
X160250900Y-127459500D02*
X160250900Y-128602100D01*
X127834600Y-112757600D02*
X128583200Y-112757600D01*
X151278700Y-133077700D02*
X152079100Y-133077700D01*
X155495200Y-126333600D02*
X155495200Y-125660800D01*
X144172800Y-119635000D02*
X143411800Y-119635000D01*
X153578200Y-112833800D02*
X153590200Y-112821800D01*
X152079100Y-133077700D02*
X152091600Y-133065200D01*
D47*
X156583300Y-129929700D02*
X156908800Y-129604200D01*
D51*
X155495200Y-126422800D02*
X155292000Y-126626000D01*
X143411800Y-119635000D02*
X143354000Y-119577200D01*
X150466000Y-133077700D02*
X151278700Y-133077700D01*
X137740600Y-112783000D02*
X138466000Y-112783000D01*
X136839200Y-112783000D02*
X137740600Y-112783000D01*
X154123600Y-126118000D02*
X154123600Y-125686200D01*
X155495200Y-126333600D02*
X155495200Y-126422800D01*
X128583200Y-112757600D02*
X128596600Y-112771000D01*
D47*
X144731600Y-119635000D02*
X144725600Y-119641000D01*
D51*
X155292000Y-126651400D02*
X155266697Y-126676703D01*
D48*
%TO.N,Net-(R11-Pad2)*%
X132732399Y-93766199D02*
X133385000Y-94418800D01*
X131775200Y-93766199D02*
X132732399Y-93766199D01*
D47*
%TO.N,Net-(R12-Pad2)*%
X156286200Y-93588399D02*
X157978999Y-93588399D01*
X157978999Y-93588399D02*
X158187600Y-93797000D01*
%TD*%
%TA.AperFunction,Conductor*%
%TO.N,/3.3VA*%
G36*
X151725252Y-125604602D02*
G01*
X151771745Y-125658258D01*
X151781849Y-125728532D01*
X151772372Y-125761547D01*
X151752780Y-125805864D01*
X151751683Y-125815276D01*
X151750332Y-125826863D01*
X151749900Y-125830565D01*
X151749901Y-127399434D01*
X151752898Y-127424635D01*
X151756739Y-127433282D01*
X151791878Y-127512393D01*
X151791880Y-127512395D01*
X151796602Y-127523027D01*
X151804835Y-127531246D01*
X151804836Y-127531247D01*
X151861769Y-127588081D01*
X151888400Y-127632919D01*
X151888400Y-127642000D01*
X151958627Y-127642000D01*
X151973219Y-127642848D01*
X151992326Y-127645076D01*
X151992331Y-127645076D01*
X151995965Y-127645500D01*
X152272941Y-127645500D01*
X152554834Y-127645499D01*
X152571555Y-127643510D01*
X152576841Y-127642882D01*
X152591720Y-127642000D01*
X153057800Y-127642000D01*
X153125921Y-127662002D01*
X153172414Y-127715658D01*
X153183800Y-127768000D01*
X153183800Y-129066857D01*
X153163798Y-129134978D01*
X153110142Y-129181471D01*
X153039868Y-129191575D01*
X152989268Y-129172589D01*
X152884835Y-129104899D01*
X152884833Y-129104898D01*
X152877301Y-129100016D01*
X152868704Y-129097445D01*
X152868702Y-129097444D01*
X152766424Y-129066857D01*
X152746806Y-129060990D01*
X152737830Y-129060935D01*
X152737829Y-129060935D01*
X152680836Y-129060587D01*
X152610604Y-129060158D01*
X152601972Y-129062625D01*
X152488273Y-129095120D01*
X152488271Y-129095121D01*
X152479642Y-129097587D01*
X152472051Y-129102377D01*
X152472048Y-129102378D01*
X152410574Y-129141165D01*
X152343339Y-129160603D01*
X152333793Y-129160603D01*
X152310496Y-129158124D01*
X152308411Y-129158026D01*
X152298231Y-129155834D01*
X152266168Y-129159629D01*
X152265313Y-129159730D01*
X152259476Y-129160074D01*
X152259484Y-129160175D01*
X152254308Y-129160603D01*
X152249104Y-129160603D01*
X152236793Y-129162652D01*
X152230308Y-129163731D01*
X152224431Y-129164568D01*
X152174088Y-129170527D01*
X152165922Y-129174448D01*
X152156984Y-129175936D01*
X152147821Y-129180880D01*
X152112364Y-129200011D01*
X152107075Y-129202705D01*
X152068544Y-129221207D01*
X152068538Y-129221211D01*
X152061397Y-129224640D01*
X152057166Y-129228197D01*
X152055237Y-129230126D01*
X152053360Y-129231848D01*
X152053223Y-129231922D01*
X152053123Y-129231812D01*
X152052643Y-129232235D01*
X152046968Y-129235297D01*
X152039899Y-129242945D01*
X152039893Y-129242949D01*
X152032607Y-129250831D01*
X151971678Y-129287276D01*
X151940084Y-129291301D01*
X151720386Y-129291301D01*
X151662243Y-129297616D01*
X151534705Y-129345428D01*
X151425713Y-129427113D01*
X151344028Y-129536105D01*
X151342133Y-129534685D01*
X151300963Y-129575765D01*
X151231572Y-129590779D01*
X151165079Y-129565894D01*
X151138521Y-129535244D01*
X151137372Y-129536105D01*
X151061068Y-129434293D01*
X151055687Y-129427113D01*
X150946695Y-129345428D01*
X150819157Y-129297616D01*
X150811304Y-129296763D01*
X150811300Y-129296762D01*
X150764414Y-129291669D01*
X150764410Y-129291669D01*
X150761015Y-129291300D01*
X150729766Y-129291300D01*
X150436503Y-129291301D01*
X150385483Y-129279473D01*
X150384503Y-129278700D01*
X150375954Y-129275698D01*
X150368584Y-129270431D01*
X150335306Y-129260479D01*
X150320033Y-129255911D01*
X150314389Y-129254077D01*
X150274038Y-129239907D01*
X150274032Y-129239906D01*
X150266555Y-129237280D01*
X150261048Y-129236803D01*
X150258341Y-129236803D01*
X150255768Y-129236692D01*
X150255609Y-129236644D01*
X150255615Y-129236500D01*
X150254995Y-129236461D01*
X150248816Y-129234613D01*
X150195548Y-129236706D01*
X150190601Y-129236803D01*
X150188638Y-129236803D01*
X150120105Y-129216535D01*
X150065432Y-129181097D01*
X150065430Y-129181096D01*
X150057901Y-129176216D01*
X150049304Y-129173645D01*
X150049302Y-129173644D01*
X149972373Y-129150638D01*
X149927406Y-129137190D01*
X149918430Y-129137135D01*
X149918429Y-129137135D01*
X149861436Y-129136787D01*
X149791204Y-129136358D01*
X149782572Y-129138825D01*
X149668873Y-129171320D01*
X149668871Y-129171321D01*
X149660242Y-129173787D01*
X149652652Y-129178576D01*
X149555449Y-129239907D01*
X149545050Y-129246468D01*
X149539107Y-129253197D01*
X149539106Y-129253198D01*
X149497428Y-129300389D01*
X149454887Y-129348558D01*
X149397001Y-129471851D01*
X149395621Y-129480715D01*
X149395620Y-129480718D01*
X149378484Y-129590779D01*
X149376046Y-129606434D01*
X149393706Y-129741489D01*
X149448562Y-129866159D01*
X149536204Y-129970422D01*
X149649587Y-130045896D01*
X149658161Y-130048575D01*
X149666257Y-130052436D01*
X149664918Y-130055243D01*
X149711132Y-130086079D01*
X149739509Y-130151158D01*
X149740501Y-130166940D01*
X149740501Y-130261814D01*
X149746816Y-130319957D01*
X149794628Y-130447495D01*
X149876313Y-130556487D01*
X149985305Y-130638172D01*
X150112843Y-130685984D01*
X150120696Y-130686837D01*
X150120700Y-130686838D01*
X150167586Y-130691931D01*
X150167590Y-130691931D01*
X150170985Y-130692300D01*
X150465956Y-130692300D01*
X150761014Y-130692299D01*
X150819157Y-130685984D01*
X150946695Y-130638172D01*
X151055687Y-130556487D01*
X151137372Y-130447495D01*
X151139267Y-130448915D01*
X151180437Y-130407835D01*
X151249828Y-130392821D01*
X151316321Y-130417706D01*
X151342879Y-130448356D01*
X151344028Y-130447495D01*
X151425713Y-130556487D01*
X151534705Y-130638172D01*
X151543113Y-130641324D01*
X151575149Y-130653334D01*
X151631913Y-130695976D01*
X151656613Y-130762538D01*
X151641405Y-130831886D01*
X151606486Y-130872140D01*
X151501913Y-130950513D01*
X151420228Y-131059505D01*
X151372416Y-131187043D01*
X151366100Y-131245185D01*
X151366101Y-131785214D01*
X151372416Y-131843357D01*
X151420228Y-131970895D01*
X151501913Y-132079887D01*
X151610905Y-132161572D01*
X151619313Y-132164724D01*
X151639303Y-132172218D01*
X151696067Y-132214860D01*
X151720767Y-132281421D01*
X151705559Y-132350770D01*
X151655273Y-132400888D01*
X151639303Y-132408182D01*
X151610905Y-132418828D01*
X151501913Y-132500513D01*
X151482237Y-132526767D01*
X151425378Y-132569280D01*
X151381412Y-132577200D01*
X151160574Y-132577200D01*
X151092453Y-132557198D01*
X151070079Y-132536379D01*
X151069201Y-132537257D01*
X151062855Y-132530911D01*
X151057472Y-132523728D01*
X150949912Y-132443117D01*
X150831451Y-132398708D01*
X150831446Y-132398706D01*
X150831444Y-132398706D01*
X150824051Y-132395934D01*
X150816203Y-132395081D01*
X150816201Y-132395081D01*
X150770062Y-132390069D01*
X150766665Y-132389700D01*
X150466088Y-132389700D01*
X150165336Y-132389701D01*
X150107949Y-132395934D01*
X149982088Y-132443117D01*
X149874528Y-132523728D01*
X149793917Y-132631288D01*
X149746734Y-132757149D01*
X149740500Y-132814535D01*
X149740500Y-132926200D01*
X149720498Y-132994321D01*
X149666842Y-133040814D01*
X149614500Y-133052200D01*
X148331400Y-133052200D01*
X148263279Y-133032198D01*
X148216786Y-132978542D01*
X148205400Y-132926200D01*
X148205400Y-128040827D01*
X148225402Y-127972706D01*
X148242305Y-127951732D01*
X148503089Y-127690948D01*
X148521319Y-127676224D01*
X148522859Y-127674822D01*
X148522901Y-127674795D01*
X148523370Y-127674567D01*
X148523832Y-127674194D01*
X148531609Y-127669172D01*
X148532291Y-127670228D01*
X148586720Y-127643755D01*
X148607676Y-127642000D01*
X148758627Y-127642000D01*
X148773219Y-127642848D01*
X148792326Y-127645076D01*
X148792331Y-127645076D01*
X148795965Y-127645500D01*
X149072941Y-127645500D01*
X149354834Y-127645499D01*
X149371555Y-127643510D01*
X149376841Y-127642882D01*
X149391720Y-127642000D01*
X149558627Y-127642000D01*
X149573219Y-127642848D01*
X149592326Y-127645076D01*
X149592331Y-127645076D01*
X149595965Y-127645500D01*
X149872941Y-127645500D01*
X150154834Y-127645499D01*
X150171555Y-127643510D01*
X150176841Y-127642882D01*
X150191720Y-127642000D01*
X150358627Y-127642000D01*
X150373219Y-127642848D01*
X150392326Y-127645076D01*
X150392331Y-127645076D01*
X150395965Y-127645500D01*
X150672941Y-127645500D01*
X150954834Y-127645499D01*
X150971555Y-127643510D01*
X150976841Y-127642882D01*
X150991720Y-127642000D01*
X151075600Y-127642000D01*
X151075600Y-127629533D01*
X151109157Y-127568014D01*
X151146270Y-127530836D01*
X151154488Y-127522604D01*
X151198020Y-127424136D01*
X151199897Y-127408036D01*
X151200476Y-127403074D01*
X151200476Y-127403069D01*
X151200900Y-127399435D01*
X151200899Y-125830566D01*
X151197902Y-125805365D01*
X151196147Y-125801415D01*
X151197337Y-125733148D01*
X151236755Y-125674100D01*
X151263053Y-125657164D01*
X151280867Y-125648609D01*
X151294500Y-125642063D01*
X151298731Y-125638506D01*
X151300663Y-125636574D01*
X151302537Y-125634855D01*
X151302674Y-125634781D01*
X151302774Y-125634891D01*
X151303254Y-125634468D01*
X151308929Y-125631406D01*
X151315999Y-125623758D01*
X151324229Y-125617374D01*
X151325314Y-125618773D01*
X151375714Y-125588626D01*
X151407310Y-125584600D01*
X151657131Y-125584600D01*
X151725252Y-125604602D01*
G37*
%TD.AperFunction*%
%TD*%
%TA.AperFunction,Conductor*%
%TO.N,/Motor3_OUT2*%
G36*
X159850691Y-84770502D02*
G01*
X159897184Y-84824158D01*
X159908569Y-84876916D01*
X159894358Y-89182917D01*
X159874132Y-89250971D01*
X159820323Y-89297287D01*
X159750016Y-89307159D01*
X159732257Y-89303218D01*
X159729546Y-89302407D01*
X159706406Y-89295487D01*
X159697430Y-89295432D01*
X159697429Y-89295432D01*
X159640436Y-89295084D01*
X159570204Y-89294655D01*
X159561572Y-89297122D01*
X159447873Y-89329617D01*
X159447871Y-89329618D01*
X159439242Y-89332084D01*
X159324050Y-89404765D01*
X159318107Y-89411494D01*
X159318106Y-89411495D01*
X159257977Y-89479578D01*
X159233887Y-89506855D01*
X159176001Y-89630148D01*
X159174621Y-89639012D01*
X159174620Y-89639015D01*
X159159001Y-89739331D01*
X159155046Y-89764731D01*
X159156210Y-89773633D01*
X159156210Y-89773636D01*
X159161742Y-89815941D01*
X159172706Y-89899786D01*
X159227562Y-90024456D01*
X159233339Y-90031329D01*
X159233340Y-90031330D01*
X159288073Y-90096443D01*
X159315204Y-90128719D01*
X159322681Y-90133696D01*
X159404925Y-90188442D01*
X159428587Y-90204193D01*
X159477294Y-90219410D01*
X159534682Y-90237339D01*
X159558595Y-90244810D01*
X159694777Y-90247306D01*
X159731336Y-90237339D01*
X159802319Y-90238720D01*
X159861287Y-90278258D01*
X159889519Y-90343401D01*
X159890475Y-90359319D01*
X159884952Y-92032600D01*
X159864726Y-92100654D01*
X159810917Y-92146970D01*
X159758953Y-92158184D01*
X156787844Y-92158184D01*
X156717845Y-92136951D01*
X156694922Y-92121634D01*
X156679712Y-92118608D01*
X156657095Y-92114109D01*
X156657091Y-92114109D01*
X156651020Y-92112901D01*
X156649785Y-92112901D01*
X156595543Y-92093919D01*
X156540301Y-92058113D01*
X156531704Y-92055542D01*
X156531702Y-92055541D01*
X156454773Y-92032535D01*
X156409806Y-92019087D01*
X156400830Y-92019032D01*
X156400829Y-92019032D01*
X156343836Y-92018684D01*
X156273604Y-92018255D01*
X156264972Y-92020722D01*
X156151273Y-92053217D01*
X156151271Y-92053218D01*
X156142642Y-92055684D01*
X156135052Y-92060473D01*
X156082766Y-92093463D01*
X156015530Y-92112901D01*
X155154601Y-92112901D01*
X155086068Y-92092633D01*
X155014405Y-92046183D01*
X154968122Y-91992347D01*
X154956938Y-91940451D01*
X154956938Y-91639901D01*
X154976940Y-91571780D01*
X155030596Y-91525287D01*
X155082938Y-91513901D01*
X155925377Y-91513901D01*
X155974078Y-91524920D01*
X155974187Y-91524993D01*
X156104195Y-91565610D01*
X156240377Y-91568106D01*
X156293948Y-91553501D01*
X156363124Y-91534642D01*
X156363127Y-91534641D01*
X156371786Y-91532280D01*
X156379435Y-91527583D01*
X156387108Y-91524263D01*
X156437147Y-91513901D01*
X156651020Y-91513901D01*
X156694922Y-91505168D01*
X156705240Y-91498274D01*
X156705242Y-91498273D01*
X156734385Y-91478800D01*
X156744704Y-91471905D01*
X156751599Y-91461586D01*
X156771072Y-91432443D01*
X156771073Y-91432441D01*
X156777967Y-91422123D01*
X156786700Y-91378221D01*
X156786700Y-89957684D01*
X156796953Y-89922766D01*
X156776364Y-89902280D01*
X156744704Y-89854897D01*
X156734385Y-89848002D01*
X156705242Y-89828529D01*
X156705240Y-89828528D01*
X156694922Y-89821634D01*
X156651020Y-89812901D01*
X155523254Y-89812901D01*
X155487152Y-89807618D01*
X155402617Y-89782337D01*
X155388406Y-89778087D01*
X155379430Y-89778032D01*
X155379429Y-89778032D01*
X155322436Y-89777684D01*
X155252204Y-89777255D01*
X155243572Y-89779722D01*
X155144454Y-89808050D01*
X155109829Y-89812901D01*
X155082938Y-89812901D01*
X155014817Y-89792899D01*
X154968400Y-89739331D01*
X156996046Y-89739331D01*
X157005824Y-89814108D01*
X157006064Y-89815941D01*
X156998144Y-89866433D01*
X157028029Y-89906938D01*
X157050358Y-89957684D01*
X157068562Y-89999056D01*
X157074339Y-90005929D01*
X157074340Y-90005930D01*
X157150424Y-90096443D01*
X157156204Y-90103319D01*
X157269587Y-90178793D01*
X157300472Y-90188442D01*
X157359457Y-90206870D01*
X157399595Y-90219410D01*
X157535777Y-90221906D01*
X157600748Y-90204193D01*
X157658524Y-90188442D01*
X157658527Y-90188441D01*
X157667186Y-90186080D01*
X157674836Y-90181383D01*
X157674838Y-90181382D01*
X157775606Y-90119511D01*
X157775609Y-90119508D01*
X157783258Y-90114812D01*
X157851671Y-90039231D01*
X157868633Y-90020491D01*
X157868634Y-90020490D01*
X157874661Y-90013831D01*
X157881820Y-89999056D01*
X157930134Y-89899335D01*
X157930134Y-89899334D01*
X157934049Y-89891254D01*
X157953098Y-89778032D01*
X157955841Y-89761730D01*
X157955841Y-89761725D01*
X157956647Y-89756937D01*
X157956790Y-89745200D01*
X157941119Y-89635771D01*
X157938754Y-89619257D01*
X157938753Y-89619254D01*
X157937481Y-89610371D01*
X157881106Y-89486380D01*
X157792196Y-89383196D01*
X157709535Y-89329617D01*
X157685432Y-89313994D01*
X157685430Y-89313993D01*
X157677901Y-89309113D01*
X157669304Y-89306542D01*
X157669302Y-89306541D01*
X157592373Y-89283535D01*
X157547406Y-89270087D01*
X157538430Y-89270032D01*
X157538429Y-89270032D01*
X157481436Y-89269684D01*
X157411204Y-89269255D01*
X157402572Y-89271722D01*
X157288873Y-89304217D01*
X157288871Y-89304218D01*
X157280242Y-89306684D01*
X157272652Y-89311473D01*
X157232396Y-89336873D01*
X157165050Y-89379365D01*
X157074887Y-89481455D01*
X157071073Y-89489578D01*
X157071072Y-89489580D01*
X157060649Y-89511780D01*
X157017001Y-89604748D01*
X157015621Y-89613612D01*
X157015620Y-89613615D01*
X157004210Y-89686901D01*
X156996046Y-89739331D01*
X154968400Y-89739331D01*
X154968324Y-89739243D01*
X154956938Y-89686901D01*
X154956938Y-84876500D01*
X154976940Y-84808379D01*
X155030596Y-84761886D01*
X155082938Y-84750500D01*
X159782570Y-84750500D01*
X159850691Y-84770502D01*
G37*
%TD.AperFunction*%
%TD*%
%TA.AperFunction,Conductor*%
%TO.N,/Motor2_OUT2*%
G36*
X147817321Y-84770502D02*
G01*
X147863814Y-84824158D01*
X147875200Y-84876500D01*
X147875200Y-89301354D01*
X147855198Y-89369475D01*
X147801542Y-89415968D01*
X147731268Y-89426072D01*
X147680668Y-89407086D01*
X147576235Y-89339396D01*
X147576233Y-89339395D01*
X147568701Y-89334513D01*
X147560104Y-89331942D01*
X147560102Y-89331941D01*
X147457824Y-89301354D01*
X147438206Y-89295487D01*
X147429230Y-89295432D01*
X147429229Y-89295432D01*
X147372236Y-89295084D01*
X147302004Y-89294655D01*
X147293372Y-89297122D01*
X147179673Y-89329617D01*
X147179671Y-89329618D01*
X147171042Y-89332084D01*
X147163452Y-89336873D01*
X147123196Y-89362273D01*
X147055850Y-89404765D01*
X146965687Y-89506855D01*
X146961873Y-89514978D01*
X146961872Y-89514980D01*
X146951459Y-89537160D01*
X146907801Y-89630148D01*
X146906421Y-89639012D01*
X146906420Y-89639015D01*
X146898865Y-89687542D01*
X146886846Y-89764731D01*
X146888010Y-89773633D01*
X146888010Y-89773636D01*
X146893096Y-89812530D01*
X146904506Y-89899786D01*
X146959362Y-90024456D01*
X146965139Y-90031329D01*
X146965140Y-90031330D01*
X146998731Y-90071291D01*
X147047004Y-90128719D01*
X147160387Y-90204193D01*
X147290395Y-90244810D01*
X147426577Y-90247306D01*
X147469742Y-90235538D01*
X147549324Y-90213842D01*
X147549327Y-90213841D01*
X147557986Y-90211480D01*
X147565636Y-90206783D01*
X147565638Y-90206782D01*
X147633818Y-90164919D01*
X147674058Y-90140212D01*
X147674289Y-90140589D01*
X147733901Y-90114869D01*
X147803946Y-90126452D01*
X147856610Y-90174065D01*
X147875200Y-90239937D01*
X147875200Y-91930600D01*
X147855198Y-91998721D01*
X147801542Y-92045214D01*
X147749200Y-92056600D01*
X144473956Y-92056600D01*
X144403956Y-92035366D01*
X144375322Y-92016233D01*
X144363153Y-92013812D01*
X144363152Y-92013812D01*
X144347386Y-92010676D01*
X144333570Y-92007928D01*
X144289621Y-91990081D01*
X144247831Y-91962994D01*
X144240301Y-91958113D01*
X144231704Y-91955542D01*
X144231702Y-91955541D01*
X144148303Y-91930600D01*
X144109806Y-91919087D01*
X144100830Y-91919032D01*
X144100829Y-91919032D01*
X144043836Y-91918684D01*
X143973604Y-91918255D01*
X143964972Y-91920722D01*
X143851273Y-91953217D01*
X143851271Y-91953218D01*
X143842642Y-91955684D01*
X143835051Y-91960474D01*
X143835048Y-91960475D01*
X143791325Y-91988062D01*
X143724090Y-92007500D01*
X142921200Y-92007500D01*
X142853079Y-91987498D01*
X142806586Y-91933842D01*
X142795200Y-91881500D01*
X142795200Y-91534500D01*
X142815202Y-91466379D01*
X142868858Y-91419886D01*
X142921200Y-91408500D01*
X143720394Y-91408500D01*
X143757968Y-91414233D01*
X143776063Y-91419886D01*
X143835995Y-91438610D01*
X143972177Y-91441106D01*
X144075500Y-91412937D01*
X144108642Y-91408500D01*
X144331420Y-91408500D01*
X144375322Y-91399767D01*
X144385640Y-91392873D01*
X144385642Y-91392872D01*
X144414785Y-91373399D01*
X144425104Y-91366504D01*
X144431999Y-91356185D01*
X144451472Y-91327042D01*
X144451473Y-91327040D01*
X144458367Y-91316722D01*
X144467100Y-91272820D01*
X144467100Y-90249474D01*
X144487102Y-90181353D01*
X144499685Y-90164919D01*
X144521708Y-90140589D01*
X144590461Y-90064631D01*
X144602768Y-90039231D01*
X144645934Y-89950135D01*
X144645934Y-89950134D01*
X144649849Y-89942054D01*
X144672447Y-89807737D01*
X144672590Y-89796000D01*
X144665930Y-89749496D01*
X144654554Y-89670057D01*
X144654553Y-89670054D01*
X144653281Y-89661171D01*
X144649440Y-89652722D01*
X144600622Y-89545354D01*
X144596906Y-89537180D01*
X144507996Y-89433996D01*
X144494694Y-89425374D01*
X144401232Y-89364794D01*
X144401230Y-89364793D01*
X144393701Y-89359913D01*
X144385104Y-89357342D01*
X144385102Y-89357341D01*
X144292397Y-89329617D01*
X144263206Y-89320887D01*
X144254230Y-89320832D01*
X144254229Y-89320832D01*
X144197236Y-89320484D01*
X144127004Y-89320055D01*
X144118372Y-89322522D01*
X144004673Y-89355017D01*
X144004671Y-89355018D01*
X143996042Y-89357484D01*
X143880850Y-89430165D01*
X143874907Y-89436894D01*
X143874906Y-89436895D01*
X143813120Y-89506855D01*
X143790687Y-89532255D01*
X143786873Y-89540378D01*
X143786872Y-89540380D01*
X143742425Y-89635049D01*
X143695368Y-89688211D01*
X143628370Y-89707500D01*
X143313000Y-89707500D01*
X143260152Y-89695881D01*
X143258230Y-89694993D01*
X143250701Y-89690113D01*
X143120206Y-89651087D01*
X143111230Y-89651032D01*
X143111229Y-89651032D01*
X143054236Y-89650684D01*
X142984004Y-89650255D01*
X142955824Y-89658309D01*
X142884831Y-89657797D01*
X142825383Y-89618984D01*
X142796357Y-89554193D01*
X142795200Y-89537160D01*
X142795200Y-84876500D01*
X142815202Y-84808379D01*
X142868858Y-84761886D01*
X142921200Y-84750500D01*
X147749200Y-84750500D01*
X147817321Y-84770502D01*
G37*
%TD.AperFunction*%
%TD*%
%TA.AperFunction,Conductor*%
%TO.N,/Motor3_OUT1*%
G36*
X154522921Y-84770502D02*
G01*
X154569414Y-84824158D01*
X154580800Y-84876500D01*
X154580800Y-89686901D01*
X154560798Y-89755022D01*
X154507142Y-89801515D01*
X154454800Y-89812901D01*
X154380254Y-89812901D01*
X154344152Y-89807618D01*
X154294934Y-89792899D01*
X154245406Y-89778087D01*
X154236430Y-89778032D01*
X154236429Y-89778032D01*
X154179436Y-89777684D01*
X154109204Y-89777255D01*
X154100572Y-89779722D01*
X154001454Y-89808050D01*
X153966829Y-89812901D01*
X153630726Y-89812901D01*
X153562605Y-89792899D01*
X153516112Y-89739243D01*
X153505999Y-89704763D01*
X153493754Y-89619257D01*
X153493753Y-89619254D01*
X153492481Y-89610371D01*
X153436106Y-89486380D01*
X153347196Y-89383196D01*
X153298737Y-89351786D01*
X153240432Y-89313994D01*
X153240430Y-89313993D01*
X153232901Y-89309113D01*
X153224304Y-89306542D01*
X153224302Y-89306541D01*
X153131597Y-89278817D01*
X153102406Y-89270087D01*
X153093430Y-89270032D01*
X153093429Y-89270032D01*
X153036436Y-89269684D01*
X152966204Y-89269255D01*
X152957572Y-89271722D01*
X152843873Y-89304217D01*
X152843871Y-89304218D01*
X152835242Y-89306684D01*
X152827652Y-89311473D01*
X152743678Y-89364457D01*
X152720050Y-89379365D01*
X152629887Y-89481455D01*
X152572001Y-89604748D01*
X152570621Y-89613612D01*
X152570620Y-89613615D01*
X152555001Y-89713931D01*
X152551046Y-89739331D01*
X152552210Y-89748233D01*
X152552210Y-89748236D01*
X152556450Y-89780660D01*
X152568706Y-89874386D01*
X152572323Y-89882606D01*
X152601353Y-89948581D01*
X152623562Y-89999056D01*
X152711204Y-90103319D01*
X152718681Y-90108296D01*
X152800925Y-90163042D01*
X152824587Y-90178793D01*
X152873294Y-90194010D01*
X152897274Y-90201502D01*
X152956331Y-90240908D01*
X152984708Y-90305987D01*
X152985700Y-90321769D01*
X152985700Y-91378221D01*
X152994433Y-91422123D01*
X153001327Y-91432441D01*
X153001328Y-91432443D01*
X153020801Y-91461586D01*
X153027696Y-91471905D01*
X153038015Y-91478800D01*
X153067158Y-91498273D01*
X153067160Y-91498274D01*
X153077478Y-91505168D01*
X153121380Y-91513901D01*
X153308360Y-91513901D01*
X153345933Y-91519634D01*
X153403224Y-91537533D01*
X153403229Y-91537534D01*
X153411795Y-91540210D01*
X153547977Y-91542706D01*
X153637358Y-91518338D01*
X153670500Y-91513901D01*
X154454800Y-91513901D01*
X154522921Y-91533903D01*
X154569414Y-91587559D01*
X154580800Y-91639901D01*
X154580800Y-91986901D01*
X154560798Y-92055022D01*
X154507142Y-92101515D01*
X154454800Y-92112901D01*
X153726663Y-92112901D01*
X153658130Y-92092633D01*
X153645648Y-92084542D01*
X153620301Y-92068113D01*
X153611704Y-92065542D01*
X153611702Y-92065541D01*
X153500215Y-92032200D01*
X153489806Y-92029087D01*
X153480830Y-92029032D01*
X153480829Y-92029032D01*
X153423836Y-92028684D01*
X153353604Y-92028255D01*
X153344972Y-92030722D01*
X153231273Y-92063217D01*
X153231271Y-92063218D01*
X153222642Y-92065684D01*
X153215051Y-92070474D01*
X153215048Y-92070475D01*
X153176764Y-92094630D01*
X153123512Y-92112901D01*
X153121380Y-92112901D01*
X153077478Y-92121634D01*
X153054531Y-92136967D01*
X152984532Y-92158200D01*
X149449000Y-92158200D01*
X149380879Y-92138198D01*
X149334386Y-92084542D01*
X149323000Y-92032200D01*
X149323000Y-90188141D01*
X149343002Y-90120020D01*
X149396658Y-90073527D01*
X149466932Y-90063423D01*
X149518818Y-90083254D01*
X149624187Y-90153393D01*
X149655072Y-90163042D01*
X149714057Y-90181470D01*
X149754195Y-90194010D01*
X149890377Y-90196506D01*
X149955348Y-90178793D01*
X150013124Y-90163042D01*
X150013127Y-90163041D01*
X150021786Y-90160680D01*
X150029436Y-90155983D01*
X150029438Y-90155982D01*
X150130206Y-90094111D01*
X150130209Y-90094108D01*
X150137858Y-90089412D01*
X150152237Y-90073527D01*
X150223233Y-89995091D01*
X150223234Y-89995090D01*
X150229261Y-89988431D01*
X150236420Y-89973656D01*
X150284734Y-89873935D01*
X150284734Y-89873934D01*
X150288649Y-89865854D01*
X150307296Y-89755022D01*
X150310441Y-89736330D01*
X150310441Y-89736325D01*
X150311247Y-89731537D01*
X150311390Y-89719800D01*
X150295719Y-89610371D01*
X150293354Y-89593857D01*
X150293353Y-89593854D01*
X150292081Y-89584971D01*
X150235706Y-89460980D01*
X150146796Y-89357796D01*
X150137524Y-89351786D01*
X150040032Y-89288594D01*
X150040030Y-89288593D01*
X150032501Y-89283713D01*
X150023904Y-89281142D01*
X150023902Y-89281141D01*
X149946973Y-89258135D01*
X149902006Y-89244687D01*
X149893030Y-89244632D01*
X149893029Y-89244632D01*
X149836036Y-89244284D01*
X149765804Y-89243855D01*
X149757172Y-89246322D01*
X149643473Y-89278817D01*
X149643471Y-89278818D01*
X149634842Y-89281284D01*
X149519650Y-89353965D01*
X149518275Y-89351786D01*
X149465833Y-89375180D01*
X149395650Y-89364457D01*
X149342406Y-89317494D01*
X149323000Y-89250309D01*
X149323000Y-84876500D01*
X149343002Y-84808379D01*
X149396658Y-84761886D01*
X149449000Y-84750500D01*
X154454800Y-84750500D01*
X154522921Y-84770502D01*
G37*
%TD.AperFunction*%
%TD*%
%TA.AperFunction,Conductor*%
%TO.N,/Motor1_OUT1*%
G36*
X130138921Y-84770502D02*
G01*
X130185414Y-84824158D01*
X130196800Y-84876500D01*
X130196800Y-89903427D01*
X130176798Y-89971548D01*
X130123142Y-90018041D01*
X130052868Y-90028145D01*
X130002268Y-90009159D01*
X129948635Y-89974396D01*
X129948633Y-89974395D01*
X129941101Y-89969513D01*
X129932504Y-89966942D01*
X129932502Y-89966941D01*
X129842877Y-89940138D01*
X129810606Y-89930487D01*
X129801630Y-89930432D01*
X129801629Y-89930432D01*
X129744636Y-89930084D01*
X129674404Y-89929655D01*
X129665772Y-89932122D01*
X129552073Y-89964617D01*
X129552071Y-89964618D01*
X129543442Y-89967084D01*
X129459920Y-90019783D01*
X129445570Y-90028837D01*
X129377285Y-90048271D01*
X129309333Y-90027702D01*
X129263288Y-89973661D01*
X129253607Y-89940138D01*
X129236753Y-89822456D01*
X129235481Y-89813571D01*
X129179106Y-89689580D01*
X129090196Y-89586396D01*
X129037223Y-89552060D01*
X128983432Y-89517194D01*
X128983430Y-89517193D01*
X128975901Y-89512313D01*
X128967304Y-89509742D01*
X128967302Y-89509741D01*
X128890373Y-89486735D01*
X128845406Y-89473287D01*
X128836430Y-89473232D01*
X128836429Y-89473232D01*
X128779436Y-89472884D01*
X128709204Y-89472455D01*
X128700572Y-89474922D01*
X128586873Y-89507417D01*
X128586871Y-89507418D01*
X128578242Y-89509884D01*
X128463050Y-89582565D01*
X128457107Y-89589294D01*
X128457106Y-89589295D01*
X128433302Y-89616248D01*
X128372887Y-89684655D01*
X128315001Y-89807948D01*
X128313621Y-89816812D01*
X128313620Y-89816815D01*
X128295521Y-89933060D01*
X128294046Y-89942531D01*
X128295210Y-89951433D01*
X128295210Y-89951436D01*
X128302758Y-90009159D01*
X128311706Y-90077586D01*
X128315323Y-90085806D01*
X128356213Y-90178735D01*
X128366562Y-90202256D01*
X128372339Y-90209129D01*
X128372340Y-90209130D01*
X128436239Y-90285147D01*
X128454204Y-90306519D01*
X128461681Y-90311496D01*
X128518519Y-90349331D01*
X128564142Y-90403729D01*
X128574700Y-90454218D01*
X128574701Y-91204472D01*
X128574474Y-91204472D01*
X128574605Y-91205091D01*
X128573446Y-91212531D01*
X128574610Y-91221434D01*
X128574533Y-91227759D01*
X128574701Y-91230331D01*
X128574701Y-91546173D01*
X128577630Y-91560905D01*
X128588792Y-91577609D01*
X128605496Y-91588771D01*
X128620227Y-91591701D01*
X128718310Y-91591701D01*
X128788130Y-91612814D01*
X128846987Y-91651993D01*
X128976995Y-91692610D01*
X129113177Y-91695106D01*
X129156342Y-91683338D01*
X129235924Y-91661642D01*
X129235927Y-91661641D01*
X129244586Y-91659280D01*
X129252236Y-91654583D01*
X129252238Y-91654582D01*
X129324316Y-91610326D01*
X129390244Y-91591701D01*
X130013711Y-91591701D01*
X130083526Y-91612812D01*
X130140621Y-91650817D01*
X130186241Y-91705211D01*
X130196800Y-91755702D01*
X130196800Y-92152224D01*
X130176798Y-92220345D01*
X130123142Y-92266838D01*
X130116642Y-92269236D01*
X130110874Y-92271816D01*
X130102242Y-92274283D01*
X130094652Y-92279072D01*
X130035234Y-92316562D01*
X129967998Y-92336000D01*
X129277182Y-92336000D01*
X129209061Y-92315998D01*
X129205690Y-92313465D01*
X129204596Y-92312196D01*
X129200255Y-92309382D01*
X129200252Y-92309380D01*
X129097832Y-92242994D01*
X129097830Y-92242993D01*
X129090301Y-92238113D01*
X129081704Y-92235542D01*
X129081702Y-92235541D01*
X128996297Y-92210000D01*
X128959806Y-92199087D01*
X128950830Y-92199032D01*
X128950829Y-92199032D01*
X128893836Y-92198684D01*
X128823604Y-92198255D01*
X128814972Y-92200722D01*
X128701273Y-92233217D01*
X128701271Y-92233218D01*
X128692642Y-92235684D01*
X128685052Y-92240473D01*
X128631467Y-92274283D01*
X128577450Y-92308365D01*
X128577316Y-92308152D01*
X128517409Y-92334872D01*
X128500583Y-92336000D01*
X125471400Y-92336000D01*
X125403279Y-92315998D01*
X125356786Y-92262342D01*
X125345400Y-92210000D01*
X125345400Y-90560572D01*
X125365402Y-90492451D01*
X125419058Y-90445958D01*
X125489332Y-90435854D01*
X125528679Y-90450891D01*
X125529412Y-90449354D01*
X125537513Y-90453218D01*
X125544987Y-90458193D01*
X125674995Y-90498810D01*
X125811177Y-90501306D01*
X125854342Y-90489538D01*
X125933924Y-90467842D01*
X125933927Y-90467841D01*
X125942586Y-90465480D01*
X125950236Y-90460783D01*
X125950238Y-90460782D01*
X126051006Y-90398911D01*
X126051009Y-90398908D01*
X126058658Y-90394212D01*
X126133529Y-90311496D01*
X126144033Y-90299891D01*
X126144034Y-90299890D01*
X126150061Y-90293231D01*
X126157220Y-90278456D01*
X126205534Y-90178735D01*
X126205534Y-90178734D01*
X126209449Y-90170654D01*
X126225107Y-90077586D01*
X126231241Y-90041130D01*
X126231241Y-90041125D01*
X126232047Y-90036337D01*
X126232190Y-90024600D01*
X126221712Y-89951436D01*
X126214154Y-89898657D01*
X126214153Y-89898654D01*
X126212881Y-89889771D01*
X126156506Y-89765780D01*
X126067596Y-89662596D01*
X126060061Y-89657712D01*
X125960832Y-89593394D01*
X125960830Y-89593393D01*
X125953301Y-89588513D01*
X125944704Y-89585942D01*
X125944702Y-89585941D01*
X125867773Y-89562935D01*
X125822806Y-89549487D01*
X125813830Y-89549432D01*
X125813829Y-89549432D01*
X125756836Y-89549084D01*
X125686604Y-89548655D01*
X125677972Y-89551122D01*
X125564273Y-89583617D01*
X125564271Y-89583618D01*
X125555642Y-89586084D01*
X125548051Y-89590874D01*
X125548048Y-89590875D01*
X125538635Y-89596814D01*
X125470351Y-89616248D01*
X125402399Y-89595679D01*
X125356354Y-89541638D01*
X125345400Y-89490252D01*
X125345400Y-84876500D01*
X125365402Y-84808379D01*
X125419058Y-84761886D01*
X125471400Y-84750500D01*
X130070800Y-84750500D01*
X130138921Y-84770502D01*
G37*
%TD.AperFunction*%
%TD*%
%TA.AperFunction,Conductor*%
%TO.N,+5V*%
G36*
X168341351Y-115184604D02*
G01*
X168387980Y-115238141D01*
X168399500Y-115290775D01*
X168399500Y-128348009D01*
X168379498Y-128416130D01*
X168325842Y-128462623D01*
X168273393Y-128474009D01*
X168107624Y-128473868D01*
X167008639Y-128472937D01*
X166935398Y-128449388D01*
X166930697Y-128446022D01*
X166717616Y-128293471D01*
X166405218Y-128118877D01*
X166075304Y-127980194D01*
X166071935Y-127979203D01*
X166071931Y-127979201D01*
X165920353Y-127934589D01*
X165731989Y-127879151D01*
X165450508Y-127829518D01*
X165383009Y-127817616D01*
X165383007Y-127817616D01*
X165379549Y-127817006D01*
X165376040Y-127816785D01*
X165376038Y-127816785D01*
X165025897Y-127794756D01*
X165025891Y-127794756D01*
X165022379Y-127794535D01*
X164920609Y-127799512D01*
X164668437Y-127811845D01*
X164668428Y-127811846D01*
X164664930Y-127812017D01*
X164661462Y-127812579D01*
X164661459Y-127812579D01*
X164315132Y-127868672D01*
X164315129Y-127868673D01*
X164311657Y-127869235D01*
X163966963Y-127965475D01*
X163635146Y-128099538D01*
X163320341Y-128269753D01*
X163317449Y-128271763D01*
X163065317Y-128446999D01*
X162993300Y-128469534D01*
X161829109Y-128468548D01*
X160827292Y-128467699D01*
X160759189Y-128447639D01*
X160712742Y-128393944D01*
X160701400Y-128341699D01*
X160701400Y-128328407D01*
X160719137Y-128269935D01*
X160718123Y-128269515D01*
X160722386Y-128259222D01*
X160722634Y-128258406D01*
X160722872Y-128258050D01*
X160729767Y-128247731D01*
X160741400Y-128189248D01*
X160741400Y-126802688D01*
X161343300Y-126802688D01*
X161359081Y-126902326D01*
X161420272Y-127022420D01*
X161515580Y-127117728D01*
X161635674Y-127178919D01*
X161645463Y-127180469D01*
X161645465Y-127180470D01*
X161674949Y-127185140D01*
X161735312Y-127194700D01*
X162302288Y-127194700D01*
X162362651Y-127185140D01*
X162392135Y-127180470D01*
X162392137Y-127180469D01*
X162401926Y-127178919D01*
X162522020Y-127117728D01*
X162617328Y-127022420D01*
X162678519Y-126902326D01*
X162694300Y-126802688D01*
X162694300Y-126594702D01*
X162714302Y-126526581D01*
X162763097Y-126482435D01*
X162821987Y-126452429D01*
X162821989Y-126452428D01*
X162830820Y-126447928D01*
X162926128Y-126352620D01*
X162987319Y-126232526D01*
X163008404Y-126099400D01*
X162987319Y-125966274D01*
X162926128Y-125846180D01*
X162830820Y-125750872D01*
X162710726Y-125689681D01*
X162700937Y-125688131D01*
X162700935Y-125688130D01*
X162587393Y-125670147D01*
X162577600Y-125668596D01*
X162567807Y-125670147D01*
X162454265Y-125688130D01*
X162454263Y-125688131D01*
X162444474Y-125689681D01*
X162324927Y-125750593D01*
X162324925Y-125750594D01*
X162324380Y-125750872D01*
X162324348Y-125750810D01*
X162272041Y-125770368D01*
X162269393Y-125770136D01*
X162232985Y-125779892D01*
X162222258Y-125782270D01*
X162218899Y-125782862D01*
X162185155Y-125788812D01*
X162175610Y-125794323D01*
X162172334Y-125795515D01*
X162169166Y-125796992D01*
X162158516Y-125799846D01*
X162149485Y-125806170D01*
X162127656Y-125821455D01*
X162118385Y-125827361D01*
X162097934Y-125839169D01*
X162085745Y-125846206D01*
X162078658Y-125854651D01*
X162070215Y-125861736D01*
X162068007Y-125859105D01*
X162024550Y-125888018D01*
X161987138Y-125893700D01*
X161735312Y-125893700D01*
X161674949Y-125903260D01*
X161645465Y-125907930D01*
X161645463Y-125907931D01*
X161635674Y-125909481D01*
X161515580Y-125970672D01*
X161420272Y-126065980D01*
X161359081Y-126186074D01*
X161357531Y-126195863D01*
X161357530Y-126195865D01*
X161352860Y-126225349D01*
X161343300Y-126285712D01*
X161343300Y-126802688D01*
X160741400Y-126802688D01*
X160741400Y-126729752D01*
X160729767Y-126671269D01*
X160685452Y-126604948D01*
X160619131Y-126560633D01*
X160606962Y-126558212D01*
X160606961Y-126558212D01*
X160566716Y-126550207D01*
X160560648Y-126549000D01*
X159941152Y-126549000D01*
X159935084Y-126550207D01*
X159894839Y-126558212D01*
X159894838Y-126558212D01*
X159882669Y-126560633D01*
X159816348Y-126604948D01*
X159772033Y-126671269D01*
X159760400Y-126729752D01*
X159760400Y-128189248D01*
X159772033Y-128247731D01*
X159778928Y-128258050D01*
X159779166Y-128258406D01*
X159779414Y-128259222D01*
X159783677Y-128269515D01*
X159782663Y-128269935D01*
X159800400Y-128328407D01*
X159800400Y-128340721D01*
X159780398Y-128408842D01*
X159726742Y-128455335D01*
X159674293Y-128466721D01*
X158984328Y-128466137D01*
X158919493Y-128466082D01*
X158851390Y-128446022D01*
X158804942Y-128392327D01*
X158794898Y-128322045D01*
X158814834Y-128270082D01*
X158822872Y-128258052D01*
X158822874Y-128258047D01*
X158829767Y-128247731D01*
X158832189Y-128235558D01*
X158840193Y-128195316D01*
X158841400Y-128189248D01*
X158841400Y-126729752D01*
X158829767Y-126671269D01*
X158785452Y-126604948D01*
X158719131Y-126560633D01*
X158706962Y-126558212D01*
X158706961Y-126558212D01*
X158666716Y-126550207D01*
X158660648Y-126549000D01*
X158041152Y-126549000D01*
X158035084Y-126550207D01*
X157994839Y-126558212D01*
X157994838Y-126558212D01*
X157982669Y-126560633D01*
X157916348Y-126604948D01*
X157872033Y-126671269D01*
X157860400Y-126729752D01*
X157860400Y-128189248D01*
X157861607Y-128195316D01*
X157869612Y-128235558D01*
X157872033Y-128247731D01*
X157878927Y-128258048D01*
X157878928Y-128258051D01*
X157886320Y-128269114D01*
X157907536Y-128336867D01*
X157888754Y-128405334D01*
X157835937Y-128452778D01*
X157781449Y-128465117D01*
X157045917Y-128464494D01*
X156824882Y-128464307D01*
X156756780Y-128444247D01*
X156710332Y-128390552D01*
X156698990Y-128338117D01*
X156699318Y-128120596D01*
X156702666Y-125899248D01*
X158810400Y-125899248D01*
X158822033Y-125957731D01*
X158866348Y-126024052D01*
X158932669Y-126068367D01*
X158944838Y-126070788D01*
X158944839Y-126070788D01*
X158965070Y-126074812D01*
X158991152Y-126080000D01*
X159610648Y-126080000D01*
X159636730Y-126074812D01*
X159656961Y-126070788D01*
X159656962Y-126070788D01*
X159669131Y-126068367D01*
X159735452Y-126024052D01*
X159779767Y-125957731D01*
X159791400Y-125899248D01*
X159791400Y-125387948D01*
X163523900Y-125387948D01*
X163535533Y-125446431D01*
X163579848Y-125512752D01*
X163646169Y-125557067D01*
X163658338Y-125559488D01*
X163658339Y-125559488D01*
X163698584Y-125567493D01*
X163704652Y-125568700D01*
X165144148Y-125568700D01*
X165150216Y-125567493D01*
X165190461Y-125559488D01*
X165190462Y-125559488D01*
X165202631Y-125557067D01*
X165268952Y-125512752D01*
X165313267Y-125446431D01*
X165324900Y-125387948D01*
X165324900Y-124627030D01*
X165770024Y-124627030D01*
X165780344Y-124791060D01*
X165831132Y-124947371D01*
X165919198Y-125086140D01*
X166039007Y-125198648D01*
X166045951Y-125202465D01*
X166045953Y-125202467D01*
X166110786Y-125238109D01*
X166183032Y-125277827D01*
X166190704Y-125279797D01*
X166190707Y-125279798D01*
X166334545Y-125316729D01*
X166334548Y-125316729D01*
X166342223Y-125318700D01*
X167365325Y-125318700D01*
X167423090Y-125311403D01*
X167479593Y-125304265D01*
X167479596Y-125304264D01*
X167487458Y-125303271D01*
X167494825Y-125300354D01*
X167494826Y-125300354D01*
X167561370Y-125274007D01*
X167640271Y-125242768D01*
X167773237Y-125146163D01*
X167878000Y-125019526D01*
X167947979Y-124870813D01*
X167949464Y-124863030D01*
X167949465Y-124863026D01*
X167977291Y-124717156D01*
X167977291Y-124717154D01*
X167978776Y-124709370D01*
X167968456Y-124545340D01*
X167917668Y-124389029D01*
X167829602Y-124250260D01*
X167709793Y-124137752D01*
X167702849Y-124133935D01*
X167702847Y-124133933D01*
X167624234Y-124090715D01*
X167565768Y-124058573D01*
X167558096Y-124056603D01*
X167558093Y-124056602D01*
X167414255Y-124019671D01*
X167414252Y-124019671D01*
X167406577Y-124017700D01*
X166383475Y-124017700D01*
X166325710Y-124024997D01*
X166269207Y-124032135D01*
X166269204Y-124032136D01*
X166261342Y-124033129D01*
X166253975Y-124036046D01*
X166253974Y-124036046D01*
X166219267Y-124049788D01*
X166108529Y-124093632D01*
X165975563Y-124190237D01*
X165870800Y-124316874D01*
X165800821Y-124465587D01*
X165799336Y-124473370D01*
X165799335Y-124473374D01*
X165787045Y-124537802D01*
X165770024Y-124627030D01*
X165324900Y-124627030D01*
X165324900Y-123748452D01*
X165318035Y-123713937D01*
X165315688Y-123702139D01*
X165315688Y-123702138D01*
X165313267Y-123689969D01*
X165268952Y-123623648D01*
X165202631Y-123579333D01*
X165190462Y-123576912D01*
X165190461Y-123576912D01*
X165150216Y-123568907D01*
X165144148Y-123567700D01*
X163704652Y-123567700D01*
X163698584Y-123568907D01*
X163658339Y-123576912D01*
X163658338Y-123576912D01*
X163646169Y-123579333D01*
X163579848Y-123623648D01*
X163535533Y-123689969D01*
X163533112Y-123702138D01*
X163533112Y-123702139D01*
X163530765Y-123713937D01*
X163523900Y-123748452D01*
X163523900Y-125387948D01*
X159791400Y-125387948D01*
X159791400Y-124439752D01*
X159779767Y-124381269D01*
X159735452Y-124314948D01*
X159669131Y-124270633D01*
X159656962Y-124268212D01*
X159656961Y-124268212D01*
X159616716Y-124260207D01*
X159610648Y-124259000D01*
X158991152Y-124259000D01*
X158985084Y-124260207D01*
X158944839Y-124268212D01*
X158944838Y-124268212D01*
X158932669Y-124270633D01*
X158866348Y-124314948D01*
X158822033Y-124381269D01*
X158810400Y-124439752D01*
X158810400Y-125899248D01*
X156702666Y-125899248D01*
X156708130Y-122273888D01*
X156728234Y-122205801D01*
X156781959Y-122159389D01*
X156834129Y-122148081D01*
X158221839Y-122148081D01*
X158289960Y-122168083D01*
X158310935Y-122184986D01*
X158478196Y-122352248D01*
X158512221Y-122414560D01*
X158515100Y-122441343D01*
X158515101Y-123632884D01*
X158516308Y-123638950D01*
X158516308Y-123638955D01*
X158529170Y-123703619D01*
X158582767Y-123783833D01*
X158593083Y-123790726D01*
X158652664Y-123830537D01*
X158652666Y-123830538D01*
X158662981Y-123837430D01*
X158733715Y-123851500D01*
X159015577Y-123851500D01*
X159297484Y-123851499D01*
X159303550Y-123850292D01*
X159303555Y-123850292D01*
X159356048Y-123839851D01*
X159356049Y-123839851D01*
X159368219Y-123837430D01*
X159448433Y-123783833D01*
X159472074Y-123748452D01*
X159495137Y-123713936D01*
X159495138Y-123713934D01*
X159502030Y-123703619D01*
X159516100Y-123632885D01*
X159516100Y-123537948D01*
X165723900Y-123537948D01*
X165735533Y-123596431D01*
X165779848Y-123662752D01*
X165846169Y-123707067D01*
X165858338Y-123709488D01*
X165858339Y-123709488D01*
X165898584Y-123717493D01*
X165904652Y-123718700D01*
X167844148Y-123718700D01*
X167850216Y-123717493D01*
X167890461Y-123709488D01*
X167890462Y-123709488D01*
X167902631Y-123707067D01*
X167968952Y-123662752D01*
X168013267Y-123596431D01*
X168024900Y-123537948D01*
X168024900Y-121598452D01*
X168013267Y-121539969D01*
X167968952Y-121473648D01*
X167958639Y-121466757D01*
X167949860Y-121457978D01*
X167952881Y-121454957D01*
X167922399Y-121418479D01*
X167913557Y-121348035D01*
X167944203Y-121283993D01*
X167950219Y-121278781D01*
X167949860Y-121278422D01*
X167958639Y-121269643D01*
X167968952Y-121262752D01*
X168013267Y-121196431D01*
X168016748Y-121178934D01*
X168023693Y-121144016D01*
X168024900Y-121137948D01*
X168024900Y-119198452D01*
X168013267Y-119139969D01*
X167968952Y-119073648D01*
X167902631Y-119029333D01*
X167890462Y-119026912D01*
X167890461Y-119026912D01*
X167850216Y-119018907D01*
X167844148Y-119017700D01*
X165904652Y-119017700D01*
X165898584Y-119018907D01*
X165858339Y-119026912D01*
X165858338Y-119026912D01*
X165846169Y-119029333D01*
X165779848Y-119073648D01*
X165735533Y-119139969D01*
X165723900Y-119198452D01*
X165723900Y-121137948D01*
X165725107Y-121144016D01*
X165732053Y-121178934D01*
X165735533Y-121196431D01*
X165779848Y-121262752D01*
X165790161Y-121269643D01*
X165798940Y-121278422D01*
X165795919Y-121281443D01*
X165826401Y-121317921D01*
X165835243Y-121388365D01*
X165804597Y-121452407D01*
X165798581Y-121457619D01*
X165798940Y-121457978D01*
X165790161Y-121466757D01*
X165779848Y-121473648D01*
X165735533Y-121539969D01*
X165723900Y-121598452D01*
X165723900Y-123537948D01*
X159516100Y-123537948D01*
X159516099Y-122388743D01*
X159536101Y-122320622D01*
X159553004Y-122299648D01*
X159667666Y-122184986D01*
X159729978Y-122150960D01*
X159756761Y-122148081D01*
X163130025Y-122148081D01*
X163198146Y-122168083D01*
X163218403Y-122187016D01*
X163219101Y-122186264D01*
X163252088Y-122216864D01*
X163255492Y-122220144D01*
X163267698Y-122232350D01*
X163271455Y-122234927D01*
X163273431Y-122236662D01*
X163294776Y-122256463D01*
X163298773Y-122258058D01*
X163332686Y-122298333D01*
X163335533Y-122296431D01*
X163379848Y-122362752D01*
X163446169Y-122407067D01*
X163458338Y-122409488D01*
X163458339Y-122409488D01*
X163498584Y-122417493D01*
X163504652Y-122418700D01*
X164894148Y-122418700D01*
X164900216Y-122417493D01*
X164940461Y-122409488D01*
X164940462Y-122409488D01*
X164952631Y-122407067D01*
X165018952Y-122362752D01*
X165063267Y-122296431D01*
X165074900Y-122237948D01*
X165074900Y-121798452D01*
X165063267Y-121739969D01*
X165060674Y-121736088D01*
X165053657Y-121670830D01*
X165058904Y-121652961D01*
X165063267Y-121646431D01*
X165074900Y-121587948D01*
X165074900Y-121148452D01*
X165063267Y-121089969D01*
X165060674Y-121086088D01*
X165053657Y-121020830D01*
X165058904Y-121002961D01*
X165063267Y-120996431D01*
X165074900Y-120937948D01*
X165074900Y-120498452D01*
X165063267Y-120439969D01*
X165060674Y-120436088D01*
X165053657Y-120370830D01*
X165058904Y-120352961D01*
X165063267Y-120346431D01*
X165074900Y-120287948D01*
X165074900Y-119848452D01*
X165063267Y-119789969D01*
X165018952Y-119723648D01*
X164952631Y-119679333D01*
X164940462Y-119676912D01*
X164940461Y-119676912D01*
X164900216Y-119668907D01*
X164894148Y-119667700D01*
X163947091Y-119667700D01*
X163889890Y-119653968D01*
X163857926Y-119637681D01*
X163724800Y-119616596D01*
X163591674Y-119637681D01*
X163559194Y-119654230D01*
X163514343Y-119667355D01*
X163510840Y-119667700D01*
X163504652Y-119667700D01*
X163480182Y-119672567D01*
X163458339Y-119676912D01*
X163458338Y-119676912D01*
X163446169Y-119679333D01*
X163379848Y-119723648D01*
X163335533Y-119789969D01*
X163323900Y-119848452D01*
X163323900Y-119872196D01*
X163318206Y-119908140D01*
X163315081Y-119914274D01*
X163293996Y-120047400D01*
X163315081Y-120180526D01*
X163318206Y-120186660D01*
X163323900Y-120222604D01*
X163323900Y-120287948D01*
X163335533Y-120346431D01*
X163338126Y-120350312D01*
X163345143Y-120415570D01*
X163339896Y-120433439D01*
X163335533Y-120439969D01*
X163323900Y-120498452D01*
X163323900Y-120937948D01*
X163325107Y-120944014D01*
X163333324Y-120985324D01*
X163326996Y-121056038D01*
X163283442Y-121112106D01*
X163259483Y-121125673D01*
X163252212Y-121128797D01*
X163248365Y-121130449D01*
X163248363Y-121130450D01*
X163240191Y-121133961D01*
X163235693Y-121137656D01*
X163233508Y-121139841D01*
X163231241Y-121141897D01*
X163230987Y-121141617D01*
X163226156Y-121145436D01*
X163226178Y-121145460D01*
X163217556Y-121153278D01*
X163207655Y-121159381D01*
X163200615Y-121168639D01*
X163200614Y-121168640D01*
X163192787Y-121178934D01*
X163181585Y-121191763D01*
X163169496Y-121203852D01*
X163107184Y-121237878D01*
X163080401Y-121240757D01*
X161528283Y-121240757D01*
X161460162Y-121220755D01*
X161413669Y-121167099D01*
X161404704Y-121090175D01*
X161411495Y-121056038D01*
X161416100Y-121032885D01*
X161416099Y-119709116D01*
X161414892Y-119703048D01*
X161414892Y-119703045D01*
X161404451Y-119650552D01*
X161404450Y-119650550D01*
X161402030Y-119638381D01*
X161348433Y-119558167D01*
X161278537Y-119511464D01*
X161278536Y-119511463D01*
X161278534Y-119511462D01*
X161268219Y-119504570D01*
X161197485Y-119490500D01*
X160915623Y-119490500D01*
X160633716Y-119490501D01*
X160627650Y-119491708D01*
X160627645Y-119491708D01*
X160575152Y-119502149D01*
X160575151Y-119502149D01*
X160562981Y-119504570D01*
X160511851Y-119538734D01*
X160510601Y-119539569D01*
X160442848Y-119560783D01*
X160370599Y-119539569D01*
X160365856Y-119536400D01*
X160318219Y-119504570D01*
X160247485Y-119490500D01*
X159965623Y-119490500D01*
X159683716Y-119490501D01*
X159677650Y-119491708D01*
X159677645Y-119491708D01*
X159625152Y-119502149D01*
X159625151Y-119502149D01*
X159612981Y-119504570D01*
X159561851Y-119538734D01*
X159560601Y-119539569D01*
X159492848Y-119560783D01*
X159420599Y-119539569D01*
X159415856Y-119536400D01*
X159368219Y-119504570D01*
X159297485Y-119490500D01*
X159015623Y-119490500D01*
X158733716Y-119490501D01*
X158727650Y-119491708D01*
X158727645Y-119491708D01*
X158675152Y-119502149D01*
X158675151Y-119502149D01*
X158662981Y-119504570D01*
X158582767Y-119558167D01*
X158575874Y-119568483D01*
X158536063Y-119628064D01*
X158536062Y-119628066D01*
X158529170Y-119638381D01*
X158515100Y-119709115D01*
X158515101Y-120334258D01*
X158515101Y-120926857D01*
X158495099Y-120994978D01*
X158478196Y-121015952D01*
X158290296Y-121203852D01*
X158227984Y-121237878D01*
X158201201Y-121240757D01*
X156835877Y-121240757D01*
X156767756Y-121220755D01*
X156721263Y-121167099D01*
X156709877Y-121114567D01*
X156711750Y-119872196D01*
X156713083Y-118987948D01*
X163523900Y-118987948D01*
X163535533Y-119046431D01*
X163579848Y-119112752D01*
X163646169Y-119157067D01*
X163658338Y-119159488D01*
X163658339Y-119159488D01*
X163698584Y-119167493D01*
X163704652Y-119168700D01*
X165144148Y-119168700D01*
X165150216Y-119167493D01*
X165190461Y-119159488D01*
X165190462Y-119159488D01*
X165202631Y-119157067D01*
X165268952Y-119112752D01*
X165313267Y-119046431D01*
X165324900Y-118987948D01*
X165324900Y-118027030D01*
X165770024Y-118027030D01*
X165780344Y-118191060D01*
X165831132Y-118347371D01*
X165919198Y-118486140D01*
X166039007Y-118598648D01*
X166045951Y-118602465D01*
X166045953Y-118602467D01*
X166110786Y-118638109D01*
X166183032Y-118677827D01*
X166190704Y-118679797D01*
X166190707Y-118679798D01*
X166334545Y-118716729D01*
X166334548Y-118716729D01*
X166342223Y-118718700D01*
X167365325Y-118718700D01*
X167423090Y-118711403D01*
X167479593Y-118704265D01*
X167479596Y-118704264D01*
X167487458Y-118703271D01*
X167494825Y-118700354D01*
X167494826Y-118700354D01*
X167561370Y-118674007D01*
X167640271Y-118642768D01*
X167773237Y-118546163D01*
X167878000Y-118419526D01*
X167947979Y-118270813D01*
X167949464Y-118263030D01*
X167949465Y-118263026D01*
X167977291Y-118117156D01*
X167977291Y-118117154D01*
X167978776Y-118109370D01*
X167968456Y-117945340D01*
X167917668Y-117789029D01*
X167829602Y-117650260D01*
X167709793Y-117537752D01*
X167702849Y-117533935D01*
X167702847Y-117533933D01*
X167624234Y-117490715D01*
X167565768Y-117458573D01*
X167558096Y-117456603D01*
X167558093Y-117456602D01*
X167414255Y-117419671D01*
X167414252Y-117419671D01*
X167406577Y-117417700D01*
X166383475Y-117417700D01*
X166325710Y-117424997D01*
X166269207Y-117432135D01*
X166269204Y-117432136D01*
X166261342Y-117433129D01*
X166253975Y-117436046D01*
X166253974Y-117436046D01*
X166219267Y-117449788D01*
X166108529Y-117493632D01*
X165975563Y-117590237D01*
X165870800Y-117716874D01*
X165800821Y-117865587D01*
X165799336Y-117873370D01*
X165799335Y-117873374D01*
X165787045Y-117937802D01*
X165770024Y-118027030D01*
X165324900Y-118027030D01*
X165324900Y-117348452D01*
X165313267Y-117289969D01*
X165268952Y-117223648D01*
X165202631Y-117179333D01*
X165190462Y-117176912D01*
X165190461Y-117176912D01*
X165150216Y-117168907D01*
X165144148Y-117167700D01*
X163704652Y-117167700D01*
X163698584Y-117168907D01*
X163658339Y-117176912D01*
X163658338Y-117176912D01*
X163646169Y-117179333D01*
X163579848Y-117223648D01*
X163535533Y-117289969D01*
X163523900Y-117348452D01*
X163523900Y-118987948D01*
X156713083Y-118987948D01*
X156715667Y-117272910D01*
X156735772Y-117204820D01*
X156789498Y-117158408D01*
X156841667Y-117147100D01*
X157050290Y-117147100D01*
X157061272Y-117147580D01*
X157087820Y-117149903D01*
X157087822Y-117149903D01*
X157098807Y-117150864D01*
X157135215Y-117141108D01*
X157145942Y-117138730D01*
X157149301Y-117138138D01*
X157183045Y-117132188D01*
X157192590Y-117126677D01*
X157195866Y-117125485D01*
X157199034Y-117124008D01*
X157209684Y-117121154D01*
X157240544Y-117099545D01*
X157249815Y-117093639D01*
X157272906Y-117080307D01*
X157282455Y-117074794D01*
X157306685Y-117045917D01*
X157314111Y-117037815D01*
X159127180Y-115224746D01*
X159189492Y-115190720D01*
X159215954Y-115187841D01*
X168273179Y-115164775D01*
X168341351Y-115184604D01*
G37*
%TD.AperFunction*%
%TD*%
%TA.AperFunction,Conductor*%
%TO.N,/V+*%
G36*
X163778752Y-84770502D02*
G01*
X163825245Y-84824158D01*
X163835349Y-84894432D01*
X163805855Y-84959012D01*
X163763281Y-84990972D01*
X163481784Y-85120447D01*
X163478850Y-85122203D01*
X163478848Y-85122204D01*
X163390052Y-85175348D01*
X163179674Y-85301256D01*
X162898858Y-85513635D01*
X162642622Y-85755099D01*
X162413963Y-86022825D01*
X162412035Y-86025652D01*
X162412033Y-86025654D01*
X162405871Y-86034688D01*
X162215555Y-86313680D01*
X162213948Y-86316690D01*
X162213946Y-86316693D01*
X162208751Y-86326422D01*
X162049720Y-86624262D01*
X161918397Y-86950937D01*
X161917475Y-86954217D01*
X161917474Y-86954220D01*
X161915372Y-86961700D01*
X161823124Y-87289884D01*
X161765013Y-87637138D01*
X161744746Y-87988637D01*
X161762559Y-88340269D01*
X161818243Y-88687920D01*
X161911149Y-89027524D01*
X162040187Y-89355108D01*
X162041770Y-89358123D01*
X162122442Y-89511780D01*
X162203850Y-89666840D01*
X162205751Y-89669669D01*
X162205757Y-89669679D01*
X162386851Y-89939173D01*
X162400223Y-89959073D01*
X162627007Y-90228388D01*
X162629467Y-90230739D01*
X162629470Y-90230742D01*
X162879089Y-90469283D01*
X162879096Y-90469289D01*
X162881552Y-90471636D01*
X163160878Y-90685971D01*
X163163796Y-90687745D01*
X163458803Y-90867112D01*
X163458808Y-90867115D01*
X163461718Y-90868884D01*
X163780553Y-91018237D01*
X163783771Y-91019339D01*
X163783774Y-91019340D01*
X164110430Y-91131180D01*
X164110438Y-91131182D01*
X164113653Y-91132283D01*
X164116981Y-91133033D01*
X164171782Y-91145383D01*
X164233838Y-91179872D01*
X164267398Y-91242436D01*
X164261805Y-91313212D01*
X164218836Y-91369729D01*
X164152132Y-91394043D01*
X164144081Y-91394300D01*
X162843126Y-91394300D01*
X162770060Y-91408834D01*
X162687199Y-91464199D01*
X162631834Y-91547060D01*
X162617300Y-91620126D01*
X162617300Y-94169474D01*
X162631834Y-94242540D01*
X162687199Y-94325401D01*
X162697514Y-94332293D01*
X162754928Y-94370655D01*
X162770060Y-94380766D01*
X162843126Y-94395300D01*
X166892474Y-94395300D01*
X166965540Y-94380766D01*
X166980673Y-94370655D01*
X167038086Y-94332293D01*
X167048401Y-94325401D01*
X167103766Y-94242540D01*
X167118300Y-94169474D01*
X167118300Y-91620126D01*
X167103766Y-91547060D01*
X167048401Y-91464199D01*
X166965540Y-91408834D01*
X166892474Y-91394300D01*
X165862623Y-91394300D01*
X165794502Y-91374298D01*
X165748009Y-91320642D01*
X165737905Y-91250368D01*
X165767399Y-91185788D01*
X165827125Y-91147404D01*
X165836211Y-91145099D01*
X165853498Y-91141393D01*
X166187774Y-91030842D01*
X166508156Y-90884835D01*
X166601583Y-90829362D01*
X166807950Y-90706831D01*
X166807955Y-90706828D01*
X166810895Y-90705082D01*
X166836349Y-90685971D01*
X167089718Y-90495737D01*
X167089727Y-90495730D01*
X167092450Y-90493685D01*
X167349527Y-90253116D01*
X167579120Y-89986190D01*
X167698218Y-89812901D01*
X167776612Y-89698838D01*
X167776617Y-89698831D01*
X167778542Y-89696029D01*
X167780154Y-89693035D01*
X167780159Y-89693027D01*
X167943838Y-89389040D01*
X167945460Y-89386028D01*
X168006757Y-89235072D01*
X168050919Y-89179481D01*
X168118124Y-89156591D01*
X168187036Y-89173668D01*
X168235776Y-89225291D01*
X168249500Y-89282476D01*
X168249500Y-105318615D01*
X168229498Y-105386736D01*
X168175842Y-105433229D01*
X168123640Y-105444615D01*
X159202444Y-105454478D01*
X159134301Y-105434551D01*
X159113210Y-105417573D01*
X156982148Y-103286511D01*
X156967423Y-103268280D01*
X156966022Y-103266740D01*
X156960372Y-103257990D01*
X156934335Y-103237464D01*
X156929968Y-103233583D01*
X156929902Y-103233661D01*
X156925944Y-103230307D01*
X156922262Y-103226625D01*
X156918031Y-103223602D01*
X156918028Y-103223599D01*
X156913209Y-103220156D01*
X156906748Y-103215539D01*
X156902012Y-103211983D01*
X156862200Y-103180597D01*
X156853651Y-103177595D01*
X156846281Y-103172328D01*
X156813003Y-103162376D01*
X156797730Y-103157808D01*
X156792086Y-103155974D01*
X156751735Y-103141804D01*
X156751729Y-103141803D01*
X156744252Y-103139177D01*
X156738745Y-103138700D01*
X156736038Y-103138700D01*
X156733465Y-103138589D01*
X156733306Y-103138541D01*
X156733312Y-103138397D01*
X156732692Y-103138358D01*
X156726513Y-103136510D01*
X156673245Y-103138603D01*
X156668298Y-103138700D01*
X155959127Y-103138700D01*
X155891006Y-103118698D01*
X155870032Y-103101795D01*
X154795111Y-102026874D01*
X162492900Y-102026874D01*
X162507434Y-102099940D01*
X162562799Y-102182801D01*
X162645660Y-102238166D01*
X162718726Y-102252700D01*
X166768074Y-102252700D01*
X166841140Y-102238166D01*
X166924001Y-102182801D01*
X166979366Y-102099940D01*
X166993900Y-102026874D01*
X166993900Y-99477526D01*
X166979366Y-99404460D01*
X166924001Y-99321599D01*
X166841140Y-99266234D01*
X166768074Y-99251700D01*
X162718726Y-99251700D01*
X162645660Y-99266234D01*
X162562799Y-99321599D01*
X162507434Y-99404460D01*
X162492900Y-99477526D01*
X162492900Y-102026874D01*
X154795111Y-102026874D01*
X154001205Y-101232968D01*
X153967179Y-101170656D01*
X153964300Y-101143873D01*
X153964300Y-99426696D01*
X153966779Y-99403408D01*
X153966878Y-99401310D01*
X153969069Y-99391133D01*
X153965173Y-99358215D01*
X153964829Y-99352379D01*
X153964728Y-99352387D01*
X153964300Y-99347208D01*
X153964300Y-99342007D01*
X153961171Y-99323207D01*
X153960334Y-99317330D01*
X153955600Y-99277334D01*
X153954376Y-99266990D01*
X153950454Y-99258823D01*
X153948967Y-99249887D01*
X153944023Y-99240725D01*
X153944022Y-99240721D01*
X153924894Y-99205271D01*
X153922198Y-99199980D01*
X153903697Y-99161451D01*
X153903696Y-99161450D01*
X153900263Y-99154300D01*
X153896706Y-99150069D01*
X153894774Y-99148137D01*
X153893055Y-99146263D01*
X153892981Y-99146126D01*
X153893091Y-99146026D01*
X153892668Y-99145546D01*
X153889606Y-99139871D01*
X153850432Y-99103659D01*
X153846867Y-99100230D01*
X153621605Y-98874968D01*
X153587579Y-98812656D01*
X153584700Y-98785873D01*
X153584700Y-97446074D01*
X162617300Y-97446074D01*
X162631834Y-97519140D01*
X162687199Y-97602001D01*
X162770060Y-97657366D01*
X162843126Y-97671900D01*
X166892474Y-97671900D01*
X166965540Y-97657366D01*
X167048401Y-97602001D01*
X167103766Y-97519140D01*
X167118300Y-97446074D01*
X167118300Y-94896726D01*
X167103766Y-94823660D01*
X167048401Y-94740799D01*
X166965540Y-94685434D01*
X166892474Y-94670900D01*
X162843126Y-94670900D01*
X162770060Y-94685434D01*
X162687199Y-94740799D01*
X162631834Y-94823660D01*
X162617300Y-94896726D01*
X162617300Y-97446074D01*
X153584700Y-97446074D01*
X153584700Y-96426824D01*
X153604702Y-96358703D01*
X153658358Y-96312210D01*
X153710570Y-96300824D01*
X160130683Y-96294219D01*
X160130684Y-96294219D01*
X160148800Y-96294200D01*
X160148823Y-96280742D01*
X160168088Y-84876287D01*
X160188205Y-84808200D01*
X160241939Y-84761798D01*
X160294088Y-84750500D01*
X163710631Y-84750500D01*
X163778752Y-84770502D01*
G37*
%TD.AperFunction*%
%TD*%
%TA.AperFunction,Conductor*%
%TO.N,/Motor2_OUT1*%
G36*
X142280121Y-84770502D02*
G01*
X142326614Y-84824158D01*
X142338000Y-84876500D01*
X142338000Y-89581500D01*
X142317998Y-89649621D01*
X142264342Y-89696114D01*
X142212000Y-89707500D01*
X142170000Y-89707500D01*
X142117152Y-89695881D01*
X142115230Y-89694993D01*
X142107701Y-89690113D01*
X141977206Y-89651087D01*
X141968230Y-89651032D01*
X141968229Y-89651032D01*
X141911236Y-89650684D01*
X141841004Y-89650255D01*
X141832372Y-89652722D01*
X141802810Y-89661171D01*
X141710042Y-89687684D01*
X141702446Y-89692477D01*
X141694257Y-89696140D01*
X141692800Y-89692884D01*
X141642208Y-89707500D01*
X141301069Y-89707500D01*
X141232948Y-89687498D01*
X141186368Y-89633651D01*
X141146222Y-89545354D01*
X141142506Y-89537180D01*
X141053596Y-89433996D01*
X141031542Y-89419701D01*
X140946832Y-89364794D01*
X140946830Y-89364793D01*
X140939301Y-89359913D01*
X140930704Y-89357342D01*
X140930702Y-89357341D01*
X140853773Y-89334335D01*
X140808806Y-89320887D01*
X140799830Y-89320832D01*
X140799829Y-89320832D01*
X140742836Y-89320484D01*
X140672604Y-89320055D01*
X140663972Y-89322522D01*
X140550273Y-89355017D01*
X140550271Y-89355018D01*
X140541642Y-89357484D01*
X140426450Y-89430165D01*
X140336287Y-89532255D01*
X140278401Y-89655548D01*
X140277021Y-89664412D01*
X140277020Y-89664415D01*
X140272081Y-89696140D01*
X140257446Y-89790131D01*
X140258610Y-89799033D01*
X140258610Y-89799036D01*
X140259748Y-89807737D01*
X140275106Y-89925186D01*
X140329962Y-90049856D01*
X140335739Y-90056729D01*
X140335740Y-90056730D01*
X140347980Y-90071291D01*
X140417604Y-90154119D01*
X140530987Y-90229593D01*
X140561872Y-90239242D01*
X140577674Y-90244179D01*
X140636731Y-90283585D01*
X140665108Y-90348664D01*
X140666100Y-90364446D01*
X140666100Y-91272820D01*
X140674833Y-91316722D01*
X140681727Y-91327040D01*
X140681728Y-91327042D01*
X140701201Y-91356185D01*
X140708096Y-91366504D01*
X140718415Y-91373399D01*
X140747558Y-91392872D01*
X140747560Y-91392873D01*
X140757878Y-91399767D01*
X140801780Y-91408500D01*
X141112337Y-91408500D01*
X141132483Y-91410121D01*
X141135026Y-91410533D01*
X141143595Y-91413210D01*
X141279777Y-91415706D01*
X141289936Y-91412936D01*
X141323075Y-91408500D01*
X142212000Y-91408500D01*
X142280121Y-91428502D01*
X142326614Y-91482158D01*
X142338000Y-91534500D01*
X142338000Y-91881500D01*
X142317998Y-91949621D01*
X142264342Y-91996114D01*
X142212000Y-92007500D01*
X141473759Y-92007500D01*
X141405227Y-91987232D01*
X141367835Y-91962996D01*
X141367833Y-91962995D01*
X141360301Y-91958113D01*
X141351704Y-91955542D01*
X141351702Y-91955541D01*
X141268303Y-91930600D01*
X141229806Y-91919087D01*
X141220830Y-91919032D01*
X141220829Y-91919032D01*
X141163836Y-91918684D01*
X141093604Y-91918255D01*
X141084972Y-91920722D01*
X140971273Y-91953217D01*
X140971271Y-91953218D01*
X140962642Y-91955684D01*
X140955051Y-91960474D01*
X140955048Y-91960475D01*
X140911325Y-91988062D01*
X140844090Y-92007500D01*
X140801780Y-92007500D01*
X140757878Y-92016233D01*
X140729244Y-92035366D01*
X140659244Y-92056600D01*
X137180800Y-92056600D01*
X137112679Y-92036598D01*
X137066186Y-91982942D01*
X137054800Y-91930600D01*
X137054800Y-90298157D01*
X137074802Y-90230036D01*
X137128458Y-90183543D01*
X137198732Y-90173439D01*
X137250619Y-90193269D01*
X137305187Y-90229593D01*
X137435195Y-90270210D01*
X137571377Y-90272706D01*
X137614542Y-90260938D01*
X137694124Y-90239242D01*
X137694127Y-90239241D01*
X137702786Y-90236880D01*
X137710436Y-90232183D01*
X137710438Y-90232182D01*
X137811206Y-90170311D01*
X137811209Y-90170308D01*
X137818858Y-90165612D01*
X137910261Y-90064631D01*
X137917420Y-90049856D01*
X137965734Y-89950135D01*
X137965734Y-89950134D01*
X137969649Y-89942054D01*
X137992247Y-89807737D01*
X137992390Y-89796000D01*
X137985730Y-89749496D01*
X137974354Y-89670057D01*
X137974353Y-89670054D01*
X137973081Y-89661171D01*
X137969240Y-89652722D01*
X137920422Y-89545354D01*
X137916706Y-89537180D01*
X137827796Y-89433996D01*
X137805742Y-89419701D01*
X137721032Y-89364794D01*
X137721030Y-89364793D01*
X137713501Y-89359913D01*
X137704904Y-89357342D01*
X137704902Y-89357341D01*
X137627973Y-89334335D01*
X137583006Y-89320887D01*
X137574030Y-89320832D01*
X137574029Y-89320832D01*
X137517036Y-89320484D01*
X137446804Y-89320055D01*
X137438172Y-89322522D01*
X137324473Y-89355017D01*
X137324471Y-89355018D01*
X137315842Y-89357484D01*
X137308253Y-89362272D01*
X137308247Y-89362275D01*
X137248036Y-89400266D01*
X137179751Y-89419701D01*
X137111799Y-89399132D01*
X137065755Y-89345091D01*
X137054800Y-89293705D01*
X137054800Y-84876500D01*
X137074802Y-84808379D01*
X137128458Y-84761886D01*
X137180800Y-84750500D01*
X142212000Y-84750500D01*
X142280121Y-84770502D01*
G37*
%TD.AperFunction*%
%TD*%
%TA.AperFunction,Conductor*%
%TO.N,/Motor1_OUT2*%
G36*
X135496907Y-84770502D02*
G01*
X135543400Y-84824158D01*
X135554784Y-84876901D01*
X135541582Y-88982739D01*
X135539533Y-89619978D01*
X135519312Y-89688034D01*
X135465507Y-89734354D01*
X135395201Y-89744232D01*
X135330716Y-89714532D01*
X135318081Y-89701821D01*
X135268257Y-89643998D01*
X135262396Y-89637196D01*
X135235832Y-89619978D01*
X135155632Y-89567994D01*
X135155630Y-89567993D01*
X135148101Y-89563113D01*
X135139504Y-89560542D01*
X135139502Y-89560541D01*
X135062573Y-89537535D01*
X135017606Y-89524087D01*
X135008630Y-89524032D01*
X135008629Y-89524032D01*
X134951636Y-89523684D01*
X134881404Y-89523255D01*
X134872772Y-89525722D01*
X134759073Y-89558217D01*
X134759071Y-89558218D01*
X134750442Y-89560684D01*
X134635250Y-89633365D01*
X134545087Y-89735455D01*
X134487201Y-89858748D01*
X134485821Y-89867612D01*
X134485820Y-89867615D01*
X134469195Y-89974394D01*
X134466246Y-89993331D01*
X134467410Y-90002233D01*
X134467410Y-90002236D01*
X134468548Y-90010937D01*
X134483906Y-90128386D01*
X134538762Y-90253056D01*
X134544539Y-90259929D01*
X134544540Y-90259930D01*
X134556780Y-90274491D01*
X134626404Y-90357319D01*
X134739787Y-90432793D01*
X134869795Y-90473410D01*
X135005977Y-90475906D01*
X135049142Y-90464138D01*
X135128724Y-90442442D01*
X135128727Y-90442441D01*
X135137386Y-90440080D01*
X135145036Y-90435383D01*
X135145038Y-90435382D01*
X135245806Y-90373511D01*
X135245809Y-90373508D01*
X135253458Y-90368812D01*
X135317669Y-90297873D01*
X135378208Y-90260794D01*
X135449188Y-90262331D01*
X135508069Y-90301998D01*
X135536157Y-90367202D01*
X135537080Y-90382835D01*
X135531204Y-92210405D01*
X135510983Y-92278461D01*
X135457179Y-92324781D01*
X135405205Y-92336000D01*
X132132301Y-92336000D01*
X132063769Y-92315732D01*
X131997835Y-92272996D01*
X131997833Y-92272995D01*
X131990301Y-92268113D01*
X131981704Y-92265542D01*
X131981702Y-92265541D01*
X131885777Y-92236854D01*
X131859806Y-92229087D01*
X131850830Y-92229032D01*
X131850829Y-92229032D01*
X131793836Y-92228684D01*
X131723604Y-92228255D01*
X131592642Y-92265684D01*
X131585055Y-92270471D01*
X131585053Y-92270472D01*
X131512005Y-92316562D01*
X131444770Y-92336000D01*
X130703800Y-92336000D01*
X130635679Y-92315998D01*
X130589186Y-92262342D01*
X130577800Y-92210000D01*
X130577800Y-91717700D01*
X130597802Y-91649579D01*
X130651458Y-91603086D01*
X130703800Y-91591700D01*
X131372551Y-91591700D01*
X131442370Y-91612813D01*
X131539387Y-91677393D01*
X131669395Y-91718010D01*
X131805577Y-91720506D01*
X131848742Y-91708738D01*
X131928324Y-91687042D01*
X131928327Y-91687041D01*
X131936986Y-91684680D01*
X131944636Y-91679983D01*
X131944638Y-91679982D01*
X132053058Y-91613412D01*
X132054353Y-91615522D01*
X132107403Y-91592633D01*
X132122704Y-91591700D01*
X132130172Y-91591700D01*
X132144904Y-91588771D01*
X132161608Y-91577609D01*
X132172770Y-91560905D01*
X132175700Y-91546174D01*
X132175700Y-91476869D01*
X132188306Y-91421935D01*
X132203849Y-91389854D01*
X132226447Y-91255537D01*
X132226590Y-91243800D01*
X132207281Y-91108971D01*
X132186999Y-91064362D01*
X132175700Y-91012212D01*
X132175699Y-90142419D01*
X132175699Y-90136229D01*
X132172770Y-90121497D01*
X132161608Y-90104793D01*
X132144904Y-90093631D01*
X132130173Y-90090701D01*
X131296738Y-90090701D01*
X131228617Y-90070699D01*
X131211460Y-90055790D01*
X131211019Y-90056296D01*
X131204255Y-90050395D01*
X131198396Y-90043596D01*
X131129902Y-89999200D01*
X131120847Y-89993331D01*
X132434246Y-89993331D01*
X132435410Y-90002233D01*
X132435410Y-90002236D01*
X132436548Y-90010937D01*
X132451906Y-90128386D01*
X132506762Y-90253056D01*
X132512539Y-90259929D01*
X132512540Y-90259930D01*
X132524780Y-90274491D01*
X132594404Y-90357319D01*
X132707787Y-90432793D01*
X132837795Y-90473410D01*
X132973977Y-90475906D01*
X133017142Y-90464138D01*
X133096724Y-90442442D01*
X133096727Y-90442441D01*
X133105386Y-90440080D01*
X133113036Y-90435383D01*
X133113038Y-90435382D01*
X133213806Y-90373511D01*
X133213809Y-90373508D01*
X133221458Y-90368812D01*
X133312861Y-90267831D01*
X133320020Y-90253056D01*
X133368334Y-90153335D01*
X133368334Y-90153334D01*
X133372249Y-90145254D01*
X133387301Y-90055790D01*
X133394041Y-90015730D01*
X133394041Y-90015725D01*
X133394847Y-90010937D01*
X133394990Y-89999200D01*
X133385038Y-89929710D01*
X133376954Y-89873257D01*
X133376953Y-89873254D01*
X133375681Y-89864371D01*
X133319306Y-89740380D01*
X133230396Y-89637196D01*
X133203832Y-89619978D01*
X133123632Y-89567994D01*
X133123630Y-89567993D01*
X133116101Y-89563113D01*
X133107504Y-89560542D01*
X133107502Y-89560541D01*
X133030573Y-89537535D01*
X132985606Y-89524087D01*
X132976630Y-89524032D01*
X132976629Y-89524032D01*
X132919636Y-89523684D01*
X132849404Y-89523255D01*
X132840772Y-89525722D01*
X132727073Y-89558217D01*
X132727071Y-89558218D01*
X132718442Y-89560684D01*
X132603250Y-89633365D01*
X132513087Y-89735455D01*
X132455201Y-89858748D01*
X132453821Y-89867612D01*
X132453820Y-89867615D01*
X132437195Y-89974394D01*
X132434246Y-89993331D01*
X131120847Y-89993331D01*
X131091632Y-89974394D01*
X131091630Y-89974393D01*
X131084101Y-89969513D01*
X131075504Y-89966942D01*
X131075502Y-89966941D01*
X130998573Y-89943935D01*
X130953606Y-89930487D01*
X130944630Y-89930432D01*
X130944629Y-89930432D01*
X130887636Y-89930084D01*
X130817404Y-89929655D01*
X130808774Y-89932121D01*
X130808770Y-89932122D01*
X130738424Y-89952227D01*
X130667429Y-89951715D01*
X130607982Y-89912901D01*
X130578956Y-89848108D01*
X130577800Y-89831078D01*
X130577800Y-84876500D01*
X130597802Y-84808379D01*
X130651458Y-84761886D01*
X130703800Y-84750500D01*
X135428786Y-84750500D01*
X135496907Y-84770502D01*
G37*
%TD.AperFunction*%
%TD*%
M02*
