%TF.GenerationSoftware,KiCad,Pcbnew,(6.0.7)*%
%TF.CreationDate,2022-10-31T13:10:49+02:00*%
%TF.ProjectId,DeltaX_SAGA,44656c74-6158-45f5-9341-47412e6b6963,rev?*%
%TF.SameCoordinates,Original*%
%TF.FileFunction,Soldermask,Bot*%
%TF.FilePolarity,Negative*%
%FSLAX46Y46*%
G04 Gerber Fmt 4.6, Leading zero omitted, Abs format (unit mm)*
G04 Created by KiCad (PCBNEW (6.0.7)) date 2022-10-31 13:10:49*
%MOMM*%
%LPD*%
G01*
G04 APERTURE LIST*
G04 Aperture macros list*
%AMRoundRect*
0 Rectangle with rounded corners*
0 $1 Rounding radius*
0 $2 $3 $4 $5 $6 $7 $8 $9 X,Y pos of 4 corners*
0 Add a 4 corners polygon primitive as box body*
4,1,4,$2,$3,$4,$5,$6,$7,$8,$9,$2,$3,0*
0 Add four circle primitives for the rounded corners*
1,1,$1+$1,$2,$3*
1,1,$1+$1,$4,$5*
1,1,$1+$1,$6,$7*
1,1,$1+$1,$8,$9*
0 Add four rect primitives between the rounded corners*
20,1,$1+$1,$2,$3,$4,$5,0*
20,1,$1+$1,$4,$5,$6,$7,0*
20,1,$1+$1,$6,$7,$8,$9,0*
20,1,$1+$1,$8,$9,$2,$3,0*%
G04 Aperture macros list end*
%ADD10C,1.650000*%
%ADD11RoundRect,0.050000X-0.900000X0.600000X-0.900000X-0.600000X0.900000X-0.600000X0.900000X0.600000X0*%
%ADD12O,1.900000X1.300000*%
%ADD13RoundRect,0.050000X1.000000X-0.679000X1.000000X0.679000X-1.000000X0.679000X-1.000000X-0.679000X0*%
%ADD14O,2.100000X1.458000*%
%ADD15RoundRect,0.050000X1.250000X0.875000X-1.250000X0.875000X-1.250000X-0.875000X1.250000X-0.875000X0*%
%ADD16O,2.600000X1.850000*%
%ADD17RoundRect,0.050000X-0.600000X-0.900000X0.600000X-0.900000X0.600000X0.900000X-0.600000X0.900000X0*%
%ADD18O,1.300000X1.900000*%
%ADD19O,1.900000X1.000000*%
%ADD20C,0.600000*%
%ADD21RoundRect,0.050000X0.200000X0.100000X-0.200000X0.100000X-0.200000X-0.100000X0.200000X-0.100000X0*%
%ADD22RoundRect,0.300000X0.475000X-0.250000X0.475000X0.250000X-0.475000X0.250000X-0.475000X-0.250000X0*%
%ADD23RoundRect,0.300000X-0.325000X-0.650000X0.325000X-0.650000X0.325000X0.650000X-0.325000X0.650000X0*%
%ADD24RoundRect,0.250000X-0.275000X0.200000X-0.275000X-0.200000X0.275000X-0.200000X0.275000X0.200000X0*%
%ADD25RoundRect,0.275000X0.225000X0.250000X-0.225000X0.250000X-0.225000X-0.250000X0.225000X-0.250000X0*%
%ADD26RoundRect,0.300000X-0.475000X0.250000X-0.475000X-0.250000X0.475000X-0.250000X0.475000X0.250000X0*%
%ADD27RoundRect,0.250000X0.200000X0.275000X-0.200000X0.275000X-0.200000X-0.275000X0.200000X-0.275000X0*%
%ADD28RoundRect,0.050000X0.810000X0.300000X-0.810000X0.300000X-0.810000X-0.300000X0.810000X-0.300000X0*%
%ADD29RoundRect,0.050000X2.290000X-2.400000X2.290000X2.400000X-2.290000X2.400000X-2.290000X-2.400000X0*%
%ADD30RoundRect,0.275000X0.250000X-0.225000X0.250000X0.225000X-0.250000X0.225000X-0.250000X-0.225000X0*%
%ADD31RoundRect,0.050000X0.825000X-2.900000X0.825000X2.900000X-0.825000X2.900000X-0.825000X-2.900000X0*%
%ADD32RoundRect,0.275000X-0.250000X0.225000X-0.250000X-0.225000X0.250000X-0.225000X0.250000X0.225000X0*%
G04 APERTURE END LIST*
D10*
%TO.C,J8*%
X121643700Y-124606900D03*
D11*
X123443700Y-123206900D03*
D12*
X120903700Y-121936900D03*
X123443700Y-120666900D03*
X120903700Y-119396900D03*
%TD*%
D10*
%TO.C,J6*%
X123450300Y-104601700D03*
D13*
X121650300Y-106001700D03*
D14*
X124190300Y-107271700D03*
X121650300Y-108541700D03*
X124190300Y-109811700D03*
%TD*%
D15*
%TO.C,J3*%
X122038800Y-101684200D03*
D16*
X122038800Y-99144200D03*
X122038800Y-96604200D03*
%TD*%
D10*
%TO.C,J10*%
X144230500Y-131546900D03*
D17*
X142830500Y-129746900D03*
D18*
X141560500Y-132286900D03*
X140290500Y-129746900D03*
X139020500Y-132286900D03*
%TD*%
D19*
%TO.C,J1*%
X166874400Y-118068200D03*
D20*
X166874400Y-118068200D03*
D19*
X166874400Y-124668200D03*
D20*
X166874400Y-124668200D03*
%TD*%
D10*
%TO.C,J9*%
X134136800Y-131575600D03*
D17*
X132736800Y-129775600D03*
D18*
X131466800Y-132315600D03*
X130196800Y-129775600D03*
X128926800Y-132315600D03*
%TD*%
D21*
%TO.C,U5*%
X136216600Y-101683200D03*
X136216600Y-102183200D03*
X136216600Y-102683200D03*
X136216600Y-103183200D03*
X134916600Y-103183200D03*
X134916600Y-102683200D03*
X134916600Y-102183200D03*
X134916600Y-101683200D03*
%TD*%
D22*
%TO.C,C38*%
X126234400Y-92183600D03*
X126234400Y-90283600D03*
%TD*%
D23*
%TO.C,C27*%
X124962600Y-96882600D03*
X127912600Y-96882600D03*
%TD*%
D22*
%TO.C,C31*%
X144674800Y-91955000D03*
X144674800Y-90055000D03*
%TD*%
D24*
%TO.C,R1*%
X135818800Y-98759200D03*
X135818800Y-100409200D03*
%TD*%
D22*
%TO.C,C22*%
X146884600Y-91980400D03*
X146884600Y-90080400D03*
%TD*%
D25*
%TO.C,C26*%
X136483600Y-104807400D03*
X134933600Y-104807400D03*
%TD*%
D22*
%TO.C,C20*%
X132406600Y-92183600D03*
X132406600Y-90283600D03*
%TD*%
D26*
%TO.C,C23*%
X139798000Y-101520600D03*
X139798000Y-103420600D03*
%TD*%
D22*
%TO.C,C32*%
X128291800Y-92183600D03*
X128291800Y-90283600D03*
%TD*%
D27*
%TO.C,R3*%
X152013800Y-101884200D03*
X150363800Y-101884200D03*
%TD*%
D22*
%TO.C,C17*%
X138020000Y-91955000D03*
X138020000Y-90055000D03*
%TD*%
%TO.C,C14*%
X154754600Y-92003800D03*
X154754600Y-90103800D03*
%TD*%
%TO.C,C29*%
X130349200Y-92183600D03*
X130349200Y-90283600D03*
%TD*%
D28*
%TO.C,Q1*%
X153845200Y-98047650D03*
X153845200Y-99317650D03*
X153845200Y-100587650D03*
X153845200Y-101857650D03*
D29*
X157555200Y-99952650D03*
%TD*%
D24*
%TO.C,R2*%
X137498800Y-98519200D03*
X137498800Y-100169200D03*
%TD*%
D22*
%TO.C,C36*%
X150309600Y-91973400D03*
X150309600Y-90073400D03*
%TD*%
%TO.C,C30*%
X156964400Y-92014000D03*
X156964400Y-90114000D03*
%TD*%
D30*
%TO.C,C25*%
X134118800Y-100429200D03*
X134118800Y-98879200D03*
%TD*%
D31*
%TO.C,L1*%
X131312600Y-101532600D03*
X127274000Y-101507200D03*
%TD*%
D32*
%TO.C,C24*%
X137867600Y-101695600D03*
X137867600Y-103245600D03*
%TD*%
D22*
%TO.C,C35*%
X134464000Y-92183600D03*
X134464000Y-90283600D03*
%TD*%
%TO.C,C34*%
X140255200Y-91955000D03*
X140255200Y-90055000D03*
%TD*%
%TO.C,C33*%
X159148800Y-92024200D03*
X159148800Y-90124200D03*
%TD*%
%TO.C,C21*%
X152544800Y-92003800D03*
X152544800Y-90103800D03*
%TD*%
%TO.C,C37*%
X142465000Y-91955000D03*
X142465000Y-90055000D03*
%TD*%
M02*
