%TF.GenerationSoftware,KiCad,Pcbnew,(6.0.7)*%
%TF.CreationDate,2022-10-31T13:10:49+02:00*%
%TF.ProjectId,DeltaX_SAGA,44656c74-6158-45f5-9341-47412e6b6963,rev?*%
%TF.SameCoordinates,Original*%
%TF.FileFunction,Legend,Top*%
%TF.FilePolarity,Positive*%
%FSLAX46Y46*%
G04 Gerber Fmt 4.6, Leading zero omitted, Abs format (unit mm)*
G04 Created by KiCad (PCBNEW (6.0.7)) date 2022-10-31 13:10:49*
%MOMM*%
%LPD*%
G01*
G04 APERTURE LIST*
%ADD10C,0.200000*%
%ADD11C,0.150000*%
%ADD12C,0.127000*%
%ADD13C,0.120000*%
%ADD14C,0.152400*%
G04 APERTURE END LIST*
D10*
X118850228Y-99031342D02*
X119993085Y-99031342D01*
X119421657Y-99602771D02*
X119421657Y-98459914D01*
X118867371Y-96681342D02*
X120010228Y-96681342D01*
X119030228Y-102321342D02*
X119244514Y-102392771D01*
X119601657Y-102392771D01*
X119744514Y-102321342D01*
X119815942Y-102249914D01*
X119887371Y-102107057D01*
X119887371Y-101964200D01*
X119815942Y-101821342D01*
X119744514Y-101749914D01*
X119601657Y-101678485D01*
X119315942Y-101607057D01*
X119173085Y-101535628D01*
X119101657Y-101464200D01*
X119030228Y-101321342D01*
X119030228Y-101178485D01*
X119101657Y-101035628D01*
X119173085Y-100964200D01*
X119315942Y-100892771D01*
X119673085Y-100892771D01*
X119887371Y-100964200D01*
X131351180Y-88558485D02*
X130351180Y-88558485D01*
X131065466Y-88225152D01*
X130351180Y-87891819D01*
X131351180Y-87891819D01*
X130351180Y-87225152D02*
X130351180Y-87034676D01*
X130398800Y-86939438D01*
X130494038Y-86844200D01*
X130684514Y-86796580D01*
X131017847Y-86796580D01*
X131208323Y-86844200D01*
X131303561Y-86939438D01*
X131351180Y-87034676D01*
X131351180Y-87225152D01*
X131303561Y-87320390D01*
X131208323Y-87415628D01*
X131017847Y-87463247D01*
X130684514Y-87463247D01*
X130494038Y-87415628D01*
X130398800Y-87320390D01*
X130351180Y-87225152D01*
X130351180Y-86510866D02*
X130351180Y-85939438D01*
X131351180Y-86225152D02*
X130351180Y-86225152D01*
X131351180Y-85082295D02*
X131351180Y-85653723D01*
X131351180Y-85368009D02*
X130351180Y-85368009D01*
X130494038Y-85463247D01*
X130589276Y-85558485D01*
X130636895Y-85653723D01*
X142421180Y-88518485D02*
X141421180Y-88518485D01*
X142135466Y-88185152D01*
X141421180Y-87851819D01*
X142421180Y-87851819D01*
X141421180Y-87185152D02*
X141421180Y-86994676D01*
X141468800Y-86899438D01*
X141564038Y-86804200D01*
X141754514Y-86756580D01*
X142087847Y-86756580D01*
X142278323Y-86804200D01*
X142373561Y-86899438D01*
X142421180Y-86994676D01*
X142421180Y-87185152D01*
X142373561Y-87280390D01*
X142278323Y-87375628D01*
X142087847Y-87423247D01*
X141754514Y-87423247D01*
X141564038Y-87375628D01*
X141468800Y-87280390D01*
X141421180Y-87185152D01*
X141421180Y-86470866D02*
X141421180Y-85899438D01*
X142421180Y-86185152D02*
X141421180Y-86185152D01*
X141516419Y-85613723D02*
X141468800Y-85566104D01*
X141421180Y-85470866D01*
X141421180Y-85232771D01*
X141468800Y-85137533D01*
X141516419Y-85089914D01*
X141611657Y-85042295D01*
X141706895Y-85042295D01*
X141849752Y-85089914D01*
X142421180Y-85661342D01*
X142421180Y-85042295D01*
X161677371Y-96854200D02*
X161724990Y-96711342D01*
X161772609Y-96663723D01*
X161867847Y-96616104D01*
X162010704Y-96616104D01*
X162105942Y-96663723D01*
X162153561Y-96711342D01*
X162201180Y-96806580D01*
X162201180Y-97187533D01*
X161201180Y-97187533D01*
X161201180Y-96854200D01*
X161248800Y-96758961D01*
X161296419Y-96711342D01*
X161391657Y-96663723D01*
X161486895Y-96663723D01*
X161582133Y-96711342D01*
X161629752Y-96758961D01*
X161677371Y-96854200D01*
X161677371Y-97187533D01*
X161915466Y-96235152D02*
X161915466Y-95758961D01*
X162201180Y-96330390D02*
X161201180Y-95997057D01*
X162201180Y-95663723D01*
X161201180Y-95473247D02*
X161201180Y-94901819D01*
X162201180Y-95187533D02*
X161201180Y-95187533D01*
X161201180Y-94711342D02*
X161201180Y-94139914D01*
X162201180Y-94425628D02*
X161201180Y-94425628D01*
X161677371Y-93806580D02*
X161677371Y-93473247D01*
X162201180Y-93330390D02*
X162201180Y-93806580D01*
X161201180Y-93806580D01*
X161201180Y-93330390D01*
X162201180Y-92330390D02*
X161724990Y-92663723D01*
X162201180Y-92901819D02*
X161201180Y-92901819D01*
X161201180Y-92520866D01*
X161248800Y-92425628D01*
X161296419Y-92378009D01*
X161391657Y-92330390D01*
X161534514Y-92330390D01*
X161629752Y-92378009D01*
X161677371Y-92425628D01*
X161724990Y-92520866D01*
X161724990Y-92901819D01*
X161724990Y-91711342D02*
X162201180Y-91711342D01*
X161201180Y-92044676D02*
X161724990Y-91711342D01*
X161201180Y-91378009D01*
X160881180Y-105501342D02*
X160881180Y-104929914D01*
X161881180Y-105215628D02*
X160881180Y-105215628D01*
X161881180Y-104596580D02*
X160881180Y-104596580D01*
X161357371Y-104596580D02*
X161357371Y-104025152D01*
X161881180Y-104025152D02*
X160881180Y-104025152D01*
X161881180Y-102977533D02*
X161404990Y-103310866D01*
X161881180Y-103548961D02*
X160881180Y-103548961D01*
X160881180Y-103168009D01*
X160928800Y-103072771D01*
X160976419Y-103025152D01*
X161071657Y-102977533D01*
X161214514Y-102977533D01*
X161309752Y-103025152D01*
X161357371Y-103072771D01*
X161404990Y-103168009D01*
X161404990Y-103548961D01*
X160881180Y-102358485D02*
X160881180Y-102168009D01*
X160928800Y-102072771D01*
X161024038Y-101977533D01*
X161214514Y-101929914D01*
X161547847Y-101929914D01*
X161738323Y-101977533D01*
X161833561Y-102072771D01*
X161881180Y-102168009D01*
X161881180Y-102358485D01*
X161833561Y-102453723D01*
X161738323Y-102548961D01*
X161547847Y-102596580D01*
X161214514Y-102596580D01*
X161024038Y-102548961D01*
X160928800Y-102453723D01*
X160881180Y-102358485D01*
X160881180Y-101596580D02*
X161881180Y-101358485D01*
X161166895Y-101168009D01*
X161881180Y-100977533D01*
X160881180Y-100739438D01*
X161357371Y-100358485D02*
X161357371Y-100025152D01*
X161881180Y-99882295D02*
X161881180Y-100358485D01*
X160881180Y-100358485D01*
X160881180Y-99882295D01*
X161881180Y-98882295D02*
X161404990Y-99215628D01*
X161881180Y-99453723D02*
X160881180Y-99453723D01*
X160881180Y-99072771D01*
X160928800Y-98977533D01*
X160976419Y-98929914D01*
X161071657Y-98882295D01*
X161214514Y-98882295D01*
X161309752Y-98929914D01*
X161357371Y-98977533D01*
X161404990Y-99072771D01*
X161404990Y-99453723D01*
X155051180Y-88778485D02*
X154051180Y-88778485D01*
X154765466Y-88445152D01*
X154051180Y-88111819D01*
X155051180Y-88111819D01*
X154051180Y-87445152D02*
X154051180Y-87254676D01*
X154098800Y-87159438D01*
X154194038Y-87064200D01*
X154384514Y-87016580D01*
X154717847Y-87016580D01*
X154908323Y-87064200D01*
X155003561Y-87159438D01*
X155051180Y-87254676D01*
X155051180Y-87445152D01*
X155003561Y-87540390D01*
X154908323Y-87635628D01*
X154717847Y-87683247D01*
X154384514Y-87683247D01*
X154194038Y-87635628D01*
X154098800Y-87540390D01*
X154051180Y-87445152D01*
X154051180Y-86730866D02*
X154051180Y-86159438D01*
X155051180Y-86445152D02*
X154051180Y-86445152D01*
X154051180Y-85921342D02*
X154051180Y-85302295D01*
X154432133Y-85635628D01*
X154432133Y-85492771D01*
X154479752Y-85397533D01*
X154527371Y-85349914D01*
X154622609Y-85302295D01*
X154860704Y-85302295D01*
X154955942Y-85349914D01*
X155003561Y-85397533D01*
X155051180Y-85492771D01*
X155051180Y-85778485D01*
X155003561Y-85873723D01*
X154955942Y-85921342D01*
%TO.C,J8*%
X119655466Y-116166580D02*
X119655466Y-116880866D01*
X119607847Y-117023723D01*
X119512609Y-117118961D01*
X119369752Y-117166580D01*
X119274514Y-117166580D01*
X120274514Y-116595152D02*
X120179276Y-116547533D01*
X120131657Y-116499914D01*
X120084038Y-116404676D01*
X120084038Y-116357057D01*
X120131657Y-116261819D01*
X120179276Y-116214200D01*
X120274514Y-116166580D01*
X120464990Y-116166580D01*
X120560228Y-116214200D01*
X120607847Y-116261819D01*
X120655466Y-116357057D01*
X120655466Y-116404676D01*
X120607847Y-116499914D01*
X120560228Y-116547533D01*
X120464990Y-116595152D01*
X120274514Y-116595152D01*
X120179276Y-116642771D01*
X120131657Y-116690390D01*
X120084038Y-116785628D01*
X120084038Y-116976104D01*
X120131657Y-117071342D01*
X120179276Y-117118961D01*
X120274514Y-117166580D01*
X120464990Y-117166580D01*
X120560228Y-117118961D01*
X120607847Y-117071342D01*
X120655466Y-116976104D01*
X120655466Y-116785628D01*
X120607847Y-116690390D01*
X120560228Y-116642771D01*
X120464990Y-116595152D01*
X126871180Y-124200866D02*
X125871180Y-124200866D01*
X126585466Y-123867533D01*
X125871180Y-123534200D01*
X126871180Y-123534200D01*
X126871180Y-122534200D02*
X126871180Y-123105628D01*
X126871180Y-122819914D02*
X125871180Y-122819914D01*
X126014038Y-122915152D01*
X126109276Y-123010390D01*
X126156895Y-123105628D01*
X126966419Y-122343723D02*
X126966419Y-121581819D01*
X126347371Y-121343723D02*
X126347371Y-121010390D01*
X126871180Y-120867533D02*
X126871180Y-121343723D01*
X125871180Y-121343723D01*
X125871180Y-120867533D01*
X126204514Y-120438961D02*
X126871180Y-120438961D01*
X126299752Y-120438961D02*
X126252133Y-120391342D01*
X126204514Y-120296104D01*
X126204514Y-120153247D01*
X126252133Y-120058009D01*
X126347371Y-120010390D01*
X126871180Y-120010390D01*
X126823561Y-119105628D02*
X126871180Y-119200866D01*
X126871180Y-119391342D01*
X126823561Y-119486580D01*
X126775942Y-119534200D01*
X126680704Y-119581819D01*
X126394990Y-119581819D01*
X126299752Y-119534200D01*
X126252133Y-119486580D01*
X126204514Y-119391342D01*
X126204514Y-119200866D01*
X126252133Y-119105628D01*
X126871180Y-118534200D02*
X126823561Y-118629438D01*
X126775942Y-118677057D01*
X126680704Y-118724676D01*
X126394990Y-118724676D01*
X126299752Y-118677057D01*
X126252133Y-118629438D01*
X126204514Y-118534200D01*
X126204514Y-118391342D01*
X126252133Y-118296104D01*
X126299752Y-118248485D01*
X126394990Y-118200866D01*
X126680704Y-118200866D01*
X126775942Y-118248485D01*
X126823561Y-118296104D01*
X126871180Y-118391342D01*
X126871180Y-118534200D01*
X126871180Y-117343723D02*
X125871180Y-117343723D01*
X126823561Y-117343723D02*
X126871180Y-117438961D01*
X126871180Y-117629438D01*
X126823561Y-117724676D01*
X126775942Y-117772295D01*
X126680704Y-117819914D01*
X126394990Y-117819914D01*
X126299752Y-117772295D01*
X126252133Y-117724676D01*
X126204514Y-117629438D01*
X126204514Y-117438961D01*
X126252133Y-117343723D01*
X126823561Y-116486580D02*
X126871180Y-116581819D01*
X126871180Y-116772295D01*
X126823561Y-116867533D01*
X126728323Y-116915152D01*
X126347371Y-116915152D01*
X126252133Y-116867533D01*
X126204514Y-116772295D01*
X126204514Y-116581819D01*
X126252133Y-116486580D01*
X126347371Y-116438961D01*
X126442609Y-116438961D01*
X126537847Y-116915152D01*
X126871180Y-116010390D02*
X126204514Y-116010390D01*
X126394990Y-116010390D02*
X126299752Y-115962771D01*
X126252133Y-115915152D01*
X126204514Y-115819914D01*
X126204514Y-115724676D01*
%TO.C,J6*%
X121735466Y-111996580D02*
X121735466Y-112710866D01*
X121687847Y-112853723D01*
X121592609Y-112948961D01*
X121449752Y-112996580D01*
X121354514Y-112996580D01*
X122640228Y-111996580D02*
X122449752Y-111996580D01*
X122354514Y-112044200D01*
X122306895Y-112091819D01*
X122211657Y-112234676D01*
X122164038Y-112425152D01*
X122164038Y-112806104D01*
X122211657Y-112901342D01*
X122259276Y-112948961D01*
X122354514Y-112996580D01*
X122544990Y-112996580D01*
X122640228Y-112948961D01*
X122687847Y-112901342D01*
X122735466Y-112806104D01*
X122735466Y-112568009D01*
X122687847Y-112472771D01*
X122640228Y-112425152D01*
X122544990Y-112377533D01*
X122354514Y-112377533D01*
X122259276Y-112425152D01*
X122211657Y-112472771D01*
X122164038Y-112568009D01*
X118711180Y-112196104D02*
X118711180Y-111624676D01*
X119711180Y-111910390D02*
X118711180Y-111910390D01*
X119711180Y-111291342D02*
X118711180Y-111291342D01*
X119711180Y-110862771D02*
X119187371Y-110862771D01*
X119092133Y-110910390D01*
X119044514Y-111005628D01*
X119044514Y-111148485D01*
X119092133Y-111243723D01*
X119139752Y-111291342D01*
X119711180Y-110386580D02*
X119044514Y-110386580D01*
X119234990Y-110386580D02*
X119139752Y-110338961D01*
X119092133Y-110291342D01*
X119044514Y-110196104D01*
X119044514Y-110100866D01*
X119711180Y-109624676D02*
X119663561Y-109719914D01*
X119615942Y-109767533D01*
X119520704Y-109815152D01*
X119234990Y-109815152D01*
X119139752Y-109767533D01*
X119092133Y-109719914D01*
X119044514Y-109624676D01*
X119044514Y-109481819D01*
X119092133Y-109386580D01*
X119139752Y-109338961D01*
X119234990Y-109291342D01*
X119520704Y-109291342D01*
X119615942Y-109338961D01*
X119663561Y-109386580D01*
X119711180Y-109481819D01*
X119711180Y-109624676D01*
X119044514Y-108958009D02*
X119711180Y-108767533D01*
X119234990Y-108577057D01*
X119711180Y-108386580D01*
X119044514Y-108196104D01*
X119663561Y-107434200D02*
X119711180Y-107529438D01*
X119711180Y-107719914D01*
X119663561Y-107815152D01*
X119568323Y-107862771D01*
X119187371Y-107862771D01*
X119092133Y-107815152D01*
X119044514Y-107719914D01*
X119044514Y-107529438D01*
X119092133Y-107434200D01*
X119187371Y-107386580D01*
X119282609Y-107386580D01*
X119377847Y-107862771D01*
X119711180Y-106958009D02*
X119044514Y-106958009D01*
X119234990Y-106958009D02*
X119139752Y-106910390D01*
X119092133Y-106862771D01*
X119044514Y-106767533D01*
X119044514Y-106672295D01*
%TO.C,C2*%
X125502133Y-114691342D02*
X125454514Y-114738961D01*
X125311657Y-114786580D01*
X125216419Y-114786580D01*
X125073561Y-114738961D01*
X124978323Y-114643723D01*
X124930704Y-114548485D01*
X124883085Y-114358009D01*
X124883085Y-114215152D01*
X124930704Y-114024676D01*
X124978323Y-113929438D01*
X125073561Y-113834200D01*
X125216419Y-113786580D01*
X125311657Y-113786580D01*
X125454514Y-113834200D01*
X125502133Y-113881819D01*
X125883085Y-113881819D02*
X125930704Y-113834200D01*
X126025942Y-113786580D01*
X126264038Y-113786580D01*
X126359276Y-113834200D01*
X126406895Y-113881819D01*
X126454514Y-113977057D01*
X126454514Y-114072295D01*
X126406895Y-114215152D01*
X125835466Y-114786580D01*
X126454514Y-114786580D01*
%TO.C,C1*%
X143012133Y-118571342D02*
X142964514Y-118618961D01*
X142821657Y-118666580D01*
X142726419Y-118666580D01*
X142583561Y-118618961D01*
X142488323Y-118523723D01*
X142440704Y-118428485D01*
X142393085Y-118238009D01*
X142393085Y-118095152D01*
X142440704Y-117904676D01*
X142488323Y-117809438D01*
X142583561Y-117714200D01*
X142726419Y-117666580D01*
X142821657Y-117666580D01*
X142964514Y-117714200D01*
X143012133Y-117761819D01*
X143964514Y-118666580D02*
X143393085Y-118666580D01*
X143678800Y-118666580D02*
X143678800Y-117666580D01*
X143583561Y-117809438D01*
X143488323Y-117904676D01*
X143393085Y-117952295D01*
%TO.C,J3*%
X125383561Y-103264676D02*
X125431180Y-103121819D01*
X125431180Y-102883723D01*
X125383561Y-102788485D01*
X125335942Y-102740866D01*
X125240704Y-102693247D01*
X125145466Y-102693247D01*
X125050228Y-102740866D01*
X125002609Y-102788485D01*
X124954990Y-102883723D01*
X124907371Y-103074200D01*
X124859752Y-103169438D01*
X124812133Y-103217057D01*
X124716895Y-103264676D01*
X124621657Y-103264676D01*
X124526419Y-103217057D01*
X124478800Y-103169438D01*
X124431180Y-103074200D01*
X124431180Y-102836104D01*
X124478800Y-102693247D01*
X124907371Y-102264676D02*
X124907371Y-101931342D01*
X125431180Y-101788485D02*
X125431180Y-102264676D01*
X124431180Y-102264676D01*
X124431180Y-101788485D01*
X125431180Y-100788485D02*
X124954990Y-101121819D01*
X125431180Y-101359914D02*
X124431180Y-101359914D01*
X124431180Y-100978961D01*
X124478800Y-100883723D01*
X124526419Y-100836104D01*
X124621657Y-100788485D01*
X124764514Y-100788485D01*
X124859752Y-100836104D01*
X124907371Y-100883723D01*
X124954990Y-100978961D01*
X124954990Y-101359914D01*
X124431180Y-100502771D02*
X125431180Y-100169438D01*
X124431180Y-99836104D01*
X124431180Y-99312295D02*
X124431180Y-99121819D01*
X124478800Y-99026580D01*
X124574038Y-98931342D01*
X124764514Y-98883723D01*
X125097847Y-98883723D01*
X125288323Y-98931342D01*
X125383561Y-99026580D01*
X125431180Y-99121819D01*
X125431180Y-99312295D01*
X125383561Y-99407533D01*
X125288323Y-99502771D01*
X125097847Y-99550390D01*
X124764514Y-99550390D01*
X124574038Y-99502771D01*
X124478800Y-99407533D01*
X124431180Y-99312295D01*
%TO.C,FB1*%
X148677371Y-133747533D02*
X148677371Y-134080866D01*
X149201180Y-134080866D02*
X148201180Y-134080866D01*
X148201180Y-133604676D01*
X148677371Y-132890390D02*
X148724990Y-132747533D01*
X148772609Y-132699914D01*
X148867847Y-132652295D01*
X149010704Y-132652295D01*
X149105942Y-132699914D01*
X149153561Y-132747533D01*
X149201180Y-132842771D01*
X149201180Y-133223723D01*
X148201180Y-133223723D01*
X148201180Y-132890390D01*
X148248800Y-132795152D01*
X148296419Y-132747533D01*
X148391657Y-132699914D01*
X148486895Y-132699914D01*
X148582133Y-132747533D01*
X148629752Y-132795152D01*
X148677371Y-132890390D01*
X148677371Y-133223723D01*
X149201180Y-131699914D02*
X149201180Y-132271342D01*
X149201180Y-131985628D02*
X148201180Y-131985628D01*
X148344038Y-132080866D01*
X148439276Y-132176104D01*
X148486895Y-132271342D01*
%TO.C,C8*%
X149175942Y-129430866D02*
X149223561Y-129478485D01*
X149271180Y-129621342D01*
X149271180Y-129716580D01*
X149223561Y-129859438D01*
X149128323Y-129954676D01*
X149033085Y-130002295D01*
X148842609Y-130049914D01*
X148699752Y-130049914D01*
X148509276Y-130002295D01*
X148414038Y-129954676D01*
X148318800Y-129859438D01*
X148271180Y-129716580D01*
X148271180Y-129621342D01*
X148318800Y-129478485D01*
X148366419Y-129430866D01*
X148699752Y-128859438D02*
X148652133Y-128954676D01*
X148604514Y-129002295D01*
X148509276Y-129049914D01*
X148461657Y-129049914D01*
X148366419Y-129002295D01*
X148318800Y-128954676D01*
X148271180Y-128859438D01*
X148271180Y-128668961D01*
X148318800Y-128573723D01*
X148366419Y-128526104D01*
X148461657Y-128478485D01*
X148509276Y-128478485D01*
X148604514Y-128526104D01*
X148652133Y-128573723D01*
X148699752Y-128668961D01*
X148699752Y-128859438D01*
X148747371Y-128954676D01*
X148794990Y-129002295D01*
X148890228Y-129049914D01*
X149080704Y-129049914D01*
X149175942Y-129002295D01*
X149223561Y-128954676D01*
X149271180Y-128859438D01*
X149271180Y-128668961D01*
X149223561Y-128573723D01*
X149175942Y-128526104D01*
X149080704Y-128478485D01*
X148890228Y-128478485D01*
X148794990Y-128526104D01*
X148747371Y-128573723D01*
X148699752Y-128668961D01*
%TO.C,J2*%
X130295466Y-122016580D02*
X130295466Y-122730866D01*
X130247847Y-122873723D01*
X130152609Y-122968961D01*
X130009752Y-123016580D01*
X129914514Y-123016580D01*
X130724038Y-122111819D02*
X130771657Y-122064200D01*
X130866895Y-122016580D01*
X131104990Y-122016580D01*
X131200228Y-122064200D01*
X131247847Y-122111819D01*
X131295466Y-122207057D01*
X131295466Y-122302295D01*
X131247847Y-122445152D01*
X130676419Y-123016580D01*
X131295466Y-123016580D01*
%TO.C,J16*%
X167692742Y-104642228D02*
X167692742Y-103499371D01*
X168264171Y-104070800D02*
X167121314Y-104070800D01*
%TO.C,U3*%
X145336895Y-127916580D02*
X145336895Y-128726104D01*
X145384514Y-128821342D01*
X145432133Y-128868961D01*
X145527371Y-128916580D01*
X145717847Y-128916580D01*
X145813085Y-128868961D01*
X145860704Y-128821342D01*
X145908323Y-128726104D01*
X145908323Y-127916580D01*
X146289276Y-127916580D02*
X146908323Y-127916580D01*
X146574990Y-128297533D01*
X146717847Y-128297533D01*
X146813085Y-128345152D01*
X146860704Y-128392771D01*
X146908323Y-128488009D01*
X146908323Y-128726104D01*
X146860704Y-128821342D01*
X146813085Y-128868961D01*
X146717847Y-128916580D01*
X146432133Y-128916580D01*
X146336895Y-128868961D01*
X146289276Y-128821342D01*
%TO.C,D1*%
X155450704Y-133426580D02*
X155450704Y-132426580D01*
X155688800Y-132426580D01*
X155831657Y-132474200D01*
X155926895Y-132569438D01*
X155974514Y-132664676D01*
X156022133Y-132855152D01*
X156022133Y-132998009D01*
X155974514Y-133188485D01*
X155926895Y-133283723D01*
X155831657Y-133378961D01*
X155688800Y-133426580D01*
X155450704Y-133426580D01*
X156974514Y-133426580D02*
X156403085Y-133426580D01*
X156688800Y-133426580D02*
X156688800Y-132426580D01*
X156593561Y-132569438D01*
X156498323Y-132664676D01*
X156403085Y-132712295D01*
%TO.C,J17*%
X168258628Y-100890257D02*
X167115771Y-100890257D01*
%TO.C,C11*%
X154005942Y-133297057D02*
X154053561Y-133344676D01*
X154101180Y-133487533D01*
X154101180Y-133582771D01*
X154053561Y-133725628D01*
X153958323Y-133820866D01*
X153863085Y-133868485D01*
X153672609Y-133916104D01*
X153529752Y-133916104D01*
X153339276Y-133868485D01*
X153244038Y-133820866D01*
X153148800Y-133725628D01*
X153101180Y-133582771D01*
X153101180Y-133487533D01*
X153148800Y-133344676D01*
X153196419Y-133297057D01*
X154101180Y-132344676D02*
X154101180Y-132916104D01*
X154101180Y-132630390D02*
X153101180Y-132630390D01*
X153244038Y-132725628D01*
X153339276Y-132820866D01*
X153386895Y-132916104D01*
X154101180Y-131392295D02*
X154101180Y-131963723D01*
X154101180Y-131678009D02*
X153101180Y-131678009D01*
X153244038Y-131773247D01*
X153339276Y-131868485D01*
X153386895Y-131963723D01*
%TO.C,R4*%
X158112133Y-133536580D02*
X157778800Y-133060390D01*
X157540704Y-133536580D02*
X157540704Y-132536580D01*
X157921657Y-132536580D01*
X158016895Y-132584200D01*
X158064514Y-132631819D01*
X158112133Y-132727057D01*
X158112133Y-132869914D01*
X158064514Y-132965152D01*
X158016895Y-133012771D01*
X157921657Y-133060390D01*
X157540704Y-133060390D01*
X158969276Y-132869914D02*
X158969276Y-133536580D01*
X158731180Y-132488961D02*
X158493085Y-133203247D01*
X159112133Y-133203247D01*
%TO.C,U9*%
X141576895Y-95226580D02*
X141576895Y-96036104D01*
X141624514Y-96131342D01*
X141672133Y-96178961D01*
X141767371Y-96226580D01*
X141957847Y-96226580D01*
X142053085Y-96178961D01*
X142100704Y-96131342D01*
X142148323Y-96036104D01*
X142148323Y-95226580D01*
X142672133Y-96226580D02*
X142862609Y-96226580D01*
X142957847Y-96178961D01*
X143005466Y-96131342D01*
X143100704Y-95988485D01*
X143148323Y-95798009D01*
X143148323Y-95417057D01*
X143100704Y-95321819D01*
X143053085Y-95274200D01*
X142957847Y-95226580D01*
X142767371Y-95226580D01*
X142672133Y-95274200D01*
X142624514Y-95321819D01*
X142576895Y-95417057D01*
X142576895Y-95655152D01*
X142624514Y-95750390D01*
X142672133Y-95798009D01*
X142767371Y-95845628D01*
X142957847Y-95845628D01*
X143053085Y-95798009D01*
X143100704Y-95750390D01*
X143148323Y-95655152D01*
%TO.C,J4*%
X126461180Y-87929914D02*
X125461180Y-87929914D01*
X126175466Y-87596580D01*
X125461180Y-87263247D01*
X126461180Y-87263247D01*
X126461180Y-86263247D02*
X126461180Y-86834676D01*
X126461180Y-86548961D02*
X125461180Y-86548961D01*
X125604038Y-86644200D01*
X125699276Y-86739438D01*
X125746895Y-86834676D01*
X126461180Y-85310866D02*
X126461180Y-85882295D01*
X126461180Y-85596580D02*
X125461180Y-85596580D01*
X125604038Y-85691819D01*
X125699276Y-85787057D01*
X125746895Y-85882295D01*
%TO.C,J10*%
X145201180Y-133743723D02*
X145915466Y-133743723D01*
X146058323Y-133791342D01*
X146153561Y-133886580D01*
X146201180Y-134029438D01*
X146201180Y-134124676D01*
X146201180Y-132743723D02*
X146201180Y-133315152D01*
X146201180Y-133029438D02*
X145201180Y-133029438D01*
X145344038Y-133124676D01*
X145439276Y-133219914D01*
X145486895Y-133315152D01*
X145201180Y-132124676D02*
X145201180Y-132029438D01*
X145248800Y-131934200D01*
X145296419Y-131886580D01*
X145391657Y-131838961D01*
X145582133Y-131791342D01*
X145820228Y-131791342D01*
X146010704Y-131838961D01*
X146105942Y-131886580D01*
X146153561Y-131934200D01*
X146201180Y-132029438D01*
X146201180Y-132124676D01*
X146153561Y-132219914D01*
X146105942Y-132267533D01*
X146010704Y-132315152D01*
X145820228Y-132362771D01*
X145582133Y-132362771D01*
X145391657Y-132315152D01*
X145296419Y-132267533D01*
X145248800Y-132219914D01*
X145201180Y-132124676D01*
X136822133Y-127056580D02*
X136822133Y-126056580D01*
X137155466Y-126770866D01*
X137488800Y-126056580D01*
X137488800Y-127056580D01*
X137869752Y-126056580D02*
X138488800Y-126056580D01*
X138155466Y-126437533D01*
X138298323Y-126437533D01*
X138393561Y-126485152D01*
X138441180Y-126532771D01*
X138488800Y-126628009D01*
X138488800Y-126866104D01*
X138441180Y-126961342D01*
X138393561Y-127008961D01*
X138298323Y-127056580D01*
X138012609Y-127056580D01*
X137917371Y-127008961D01*
X137869752Y-126961342D01*
X138679276Y-127151819D02*
X139441180Y-127151819D01*
X139679276Y-126532771D02*
X140012609Y-126532771D01*
X140155466Y-127056580D02*
X139679276Y-127056580D01*
X139679276Y-126056580D01*
X140155466Y-126056580D01*
X140584038Y-126389914D02*
X140584038Y-127056580D01*
X140584038Y-126485152D02*
X140631657Y-126437533D01*
X140726895Y-126389914D01*
X140869752Y-126389914D01*
X140964990Y-126437533D01*
X141012609Y-126532771D01*
X141012609Y-127056580D01*
X141917371Y-127008961D02*
X141822133Y-127056580D01*
X141631657Y-127056580D01*
X141536419Y-127008961D01*
X141488800Y-126961342D01*
X141441180Y-126866104D01*
X141441180Y-126580390D01*
X141488800Y-126485152D01*
X141536419Y-126437533D01*
X141631657Y-126389914D01*
X141822133Y-126389914D01*
X141917371Y-126437533D01*
X142488800Y-127056580D02*
X142393561Y-127008961D01*
X142345942Y-126961342D01*
X142298323Y-126866104D01*
X142298323Y-126580390D01*
X142345942Y-126485152D01*
X142393561Y-126437533D01*
X142488800Y-126389914D01*
X142631657Y-126389914D01*
X142726895Y-126437533D01*
X142774514Y-126485152D01*
X142822133Y-126580390D01*
X142822133Y-126866104D01*
X142774514Y-126961342D01*
X142726895Y-127008961D01*
X142631657Y-127056580D01*
X142488800Y-127056580D01*
X143679276Y-127056580D02*
X143679276Y-126056580D01*
X143679276Y-127008961D02*
X143584038Y-127056580D01*
X143393561Y-127056580D01*
X143298323Y-127008961D01*
X143250704Y-126961342D01*
X143203085Y-126866104D01*
X143203085Y-126580390D01*
X143250704Y-126485152D01*
X143298323Y-126437533D01*
X143393561Y-126389914D01*
X143584038Y-126389914D01*
X143679276Y-126437533D01*
X144536419Y-127008961D02*
X144441180Y-127056580D01*
X144250704Y-127056580D01*
X144155466Y-127008961D01*
X144107847Y-126913723D01*
X144107847Y-126532771D01*
X144155466Y-126437533D01*
X144250704Y-126389914D01*
X144441180Y-126389914D01*
X144536419Y-126437533D01*
X144584038Y-126532771D01*
X144584038Y-126628009D01*
X144107847Y-126723247D01*
X145012609Y-127056580D02*
X145012609Y-126389914D01*
X145012609Y-126580390D02*
X145060228Y-126485152D01*
X145107847Y-126437533D01*
X145203085Y-126389914D01*
X145298323Y-126389914D01*
%TO.C,J7*%
X168220542Y-96208485D02*
X167306257Y-96208485D01*
%TO.C,C5*%
X126502133Y-109841342D02*
X126454514Y-109888961D01*
X126311657Y-109936580D01*
X126216419Y-109936580D01*
X126073561Y-109888961D01*
X125978323Y-109793723D01*
X125930704Y-109698485D01*
X125883085Y-109508009D01*
X125883085Y-109365152D01*
X125930704Y-109174676D01*
X125978323Y-109079438D01*
X126073561Y-108984200D01*
X126216419Y-108936580D01*
X126311657Y-108936580D01*
X126454514Y-108984200D01*
X126502133Y-109031819D01*
X127406895Y-108936580D02*
X126930704Y-108936580D01*
X126883085Y-109412771D01*
X126930704Y-109365152D01*
X127025942Y-109317533D01*
X127264038Y-109317533D01*
X127359276Y-109365152D01*
X127406895Y-109412771D01*
X127454514Y-109508009D01*
X127454514Y-109746104D01*
X127406895Y-109841342D01*
X127359276Y-109888961D01*
X127264038Y-109936580D01*
X127025942Y-109936580D01*
X126930704Y-109888961D01*
X126883085Y-109841342D01*
%TO.C,R11*%
X133945942Y-93356580D02*
X133612609Y-92880390D01*
X133374514Y-93356580D02*
X133374514Y-92356580D01*
X133755466Y-92356580D01*
X133850704Y-92404200D01*
X133898323Y-92451819D01*
X133945942Y-92547057D01*
X133945942Y-92689914D01*
X133898323Y-92785152D01*
X133850704Y-92832771D01*
X133755466Y-92880390D01*
X133374514Y-92880390D01*
X134898323Y-93356580D02*
X134326895Y-93356580D01*
X134612609Y-93356580D02*
X134612609Y-92356580D01*
X134517371Y-92499438D01*
X134422133Y-92594676D01*
X134326895Y-92642295D01*
X135850704Y-93356580D02*
X135279276Y-93356580D01*
X135564990Y-93356580D02*
X135564990Y-92356580D01*
X135469752Y-92499438D01*
X135374514Y-92594676D01*
X135279276Y-92642295D01*
%TO.C,C16*%
X135045942Y-114651342D02*
X134998323Y-114698961D01*
X134855466Y-114746580D01*
X134760228Y-114746580D01*
X134617371Y-114698961D01*
X134522133Y-114603723D01*
X134474514Y-114508485D01*
X134426895Y-114318009D01*
X134426895Y-114175152D01*
X134474514Y-113984676D01*
X134522133Y-113889438D01*
X134617371Y-113794200D01*
X134760228Y-113746580D01*
X134855466Y-113746580D01*
X134998323Y-113794200D01*
X135045942Y-113841819D01*
X135998323Y-114746580D02*
X135426895Y-114746580D01*
X135712609Y-114746580D02*
X135712609Y-113746580D01*
X135617371Y-113889438D01*
X135522133Y-113984676D01*
X135426895Y-114032295D01*
X136855466Y-113746580D02*
X136664990Y-113746580D01*
X136569752Y-113794200D01*
X136522133Y-113841819D01*
X136426895Y-113984676D01*
X136379276Y-114175152D01*
X136379276Y-114556104D01*
X136426895Y-114651342D01*
X136474514Y-114698961D01*
X136569752Y-114746580D01*
X136760228Y-114746580D01*
X136855466Y-114698961D01*
X136903085Y-114651342D01*
X136950704Y-114556104D01*
X136950704Y-114318009D01*
X136903085Y-114222771D01*
X136855466Y-114175152D01*
X136760228Y-114127533D01*
X136569752Y-114127533D01*
X136474514Y-114175152D01*
X136426895Y-114222771D01*
X136379276Y-114318009D01*
%TO.C,J12*%
X137571180Y-87989914D02*
X136571180Y-87989914D01*
X137285466Y-87656580D01*
X136571180Y-87323247D01*
X137571180Y-87323247D01*
X136666419Y-86894676D02*
X136618800Y-86847057D01*
X136571180Y-86751819D01*
X136571180Y-86513723D01*
X136618800Y-86418485D01*
X136666419Y-86370866D01*
X136761657Y-86323247D01*
X136856895Y-86323247D01*
X136999752Y-86370866D01*
X137571180Y-86942295D01*
X137571180Y-86323247D01*
X137571180Y-85370866D02*
X137571180Y-85942295D01*
X137571180Y-85656580D02*
X136571180Y-85656580D01*
X136714038Y-85751819D01*
X136809276Y-85847057D01*
X136856895Y-85942295D01*
%TO.C,U10*%
X129480704Y-95366580D02*
X129480704Y-96176104D01*
X129528323Y-96271342D01*
X129575942Y-96318961D01*
X129671180Y-96366580D01*
X129861657Y-96366580D01*
X129956895Y-96318961D01*
X130004514Y-96271342D01*
X130052133Y-96176104D01*
X130052133Y-95366580D01*
X131052133Y-96366580D02*
X130480704Y-96366580D01*
X130766419Y-96366580D02*
X130766419Y-95366580D01*
X130671180Y-95509438D01*
X130575942Y-95604676D01*
X130480704Y-95652295D01*
X131671180Y-95366580D02*
X131766419Y-95366580D01*
X131861657Y-95414200D01*
X131909276Y-95461819D01*
X131956895Y-95557057D01*
X132004514Y-95747533D01*
X132004514Y-95985628D01*
X131956895Y-96176104D01*
X131909276Y-96271342D01*
X131861657Y-96318961D01*
X131766419Y-96366580D01*
X131671180Y-96366580D01*
X131575942Y-96318961D01*
X131528323Y-96271342D01*
X131480704Y-96176104D01*
X131433085Y-95985628D01*
X131433085Y-95747533D01*
X131480704Y-95557057D01*
X131528323Y-95461819D01*
X131575942Y-95414200D01*
X131671180Y-95366580D01*
%TO.C,J13*%
X147511180Y-87829914D02*
X146511180Y-87829914D01*
X147225466Y-87496580D01*
X146511180Y-87163247D01*
X147511180Y-87163247D01*
X146606419Y-86734676D02*
X146558800Y-86687057D01*
X146511180Y-86591819D01*
X146511180Y-86353723D01*
X146558800Y-86258485D01*
X146606419Y-86210866D01*
X146701657Y-86163247D01*
X146796895Y-86163247D01*
X146939752Y-86210866D01*
X147511180Y-86782295D01*
X147511180Y-86163247D01*
X146606419Y-85782295D02*
X146558800Y-85734676D01*
X146511180Y-85639438D01*
X146511180Y-85401342D01*
X146558800Y-85306104D01*
X146606419Y-85258485D01*
X146701657Y-85210866D01*
X146796895Y-85210866D01*
X146939752Y-85258485D01*
X147511180Y-85829914D01*
X147511180Y-85210866D01*
%TO.C,C6*%
X157485942Y-123460866D02*
X157533561Y-123508485D01*
X157581180Y-123651342D01*
X157581180Y-123746580D01*
X157533561Y-123889438D01*
X157438323Y-123984676D01*
X157343085Y-124032295D01*
X157152609Y-124079914D01*
X157009752Y-124079914D01*
X156819276Y-124032295D01*
X156724038Y-123984676D01*
X156628800Y-123889438D01*
X156581180Y-123746580D01*
X156581180Y-123651342D01*
X156628800Y-123508485D01*
X156676419Y-123460866D01*
X156581180Y-122603723D02*
X156581180Y-122794200D01*
X156628800Y-122889438D01*
X156676419Y-122937057D01*
X156819276Y-123032295D01*
X157009752Y-123079914D01*
X157390704Y-123079914D01*
X157485942Y-123032295D01*
X157533561Y-122984676D01*
X157581180Y-122889438D01*
X157581180Y-122698961D01*
X157533561Y-122603723D01*
X157485942Y-122556104D01*
X157390704Y-122508485D01*
X157152609Y-122508485D01*
X157057371Y-122556104D01*
X157009752Y-122603723D01*
X156962133Y-122698961D01*
X156962133Y-122889438D01*
X157009752Y-122984676D01*
X157057371Y-123032295D01*
X157152609Y-123079914D01*
%TO.C,R10*%
X146275942Y-93006580D02*
X145942609Y-92530390D01*
X145704514Y-93006580D02*
X145704514Y-92006580D01*
X146085466Y-92006580D01*
X146180704Y-92054200D01*
X146228323Y-92101819D01*
X146275942Y-92197057D01*
X146275942Y-92339914D01*
X146228323Y-92435152D01*
X146180704Y-92482771D01*
X146085466Y-92530390D01*
X145704514Y-92530390D01*
X147228323Y-93006580D02*
X146656895Y-93006580D01*
X146942609Y-93006580D02*
X146942609Y-92006580D01*
X146847371Y-92149438D01*
X146752133Y-92244676D01*
X146656895Y-92292295D01*
X147847371Y-92006580D02*
X147942609Y-92006580D01*
X148037847Y-92054200D01*
X148085466Y-92101819D01*
X148133085Y-92197057D01*
X148180704Y-92387533D01*
X148180704Y-92625628D01*
X148133085Y-92816104D01*
X148085466Y-92911342D01*
X148037847Y-92958961D01*
X147942609Y-93006580D01*
X147847371Y-93006580D01*
X147752133Y-92958961D01*
X147704514Y-92911342D01*
X147656895Y-92816104D01*
X147609276Y-92625628D01*
X147609276Y-92387533D01*
X147656895Y-92197057D01*
X147704514Y-92101819D01*
X147752133Y-92054200D01*
X147847371Y-92006580D01*
%TO.C,U1*%
X158246895Y-118126580D02*
X158246895Y-118936104D01*
X158294514Y-119031342D01*
X158342133Y-119078961D01*
X158437371Y-119126580D01*
X158627847Y-119126580D01*
X158723085Y-119078961D01*
X158770704Y-119031342D01*
X158818323Y-118936104D01*
X158818323Y-118126580D01*
X159818323Y-119126580D02*
X159246895Y-119126580D01*
X159532609Y-119126580D02*
X159532609Y-118126580D01*
X159437371Y-118269438D01*
X159342133Y-118364676D01*
X159246895Y-118412295D01*
%TO.C,C3*%
X140072133Y-119611342D02*
X140024514Y-119658961D01*
X139881657Y-119706580D01*
X139786419Y-119706580D01*
X139643561Y-119658961D01*
X139548323Y-119563723D01*
X139500704Y-119468485D01*
X139453085Y-119278009D01*
X139453085Y-119135152D01*
X139500704Y-118944676D01*
X139548323Y-118849438D01*
X139643561Y-118754200D01*
X139786419Y-118706580D01*
X139881657Y-118706580D01*
X140024514Y-118754200D01*
X140072133Y-118801819D01*
X140405466Y-118706580D02*
X141024514Y-118706580D01*
X140691180Y-119087533D01*
X140834038Y-119087533D01*
X140929276Y-119135152D01*
X140976895Y-119182771D01*
X141024514Y-119278009D01*
X141024514Y-119516104D01*
X140976895Y-119611342D01*
X140929276Y-119658961D01*
X140834038Y-119706580D01*
X140548323Y-119706580D01*
X140453085Y-119658961D01*
X140405466Y-119611342D01*
%TO.C,J1*%
X161891180Y-117947533D02*
X162605466Y-117947533D01*
X162748323Y-117995152D01*
X162843561Y-118090390D01*
X162891180Y-118233247D01*
X162891180Y-118328485D01*
X162891180Y-116947533D02*
X162891180Y-117518961D01*
X162891180Y-117233247D02*
X161891180Y-117233247D01*
X162034038Y-117328485D01*
X162129276Y-117423723D01*
X162176895Y-117518961D01*
%TO.C,J5*%
X167755942Y-93435628D02*
X167755942Y-92292771D01*
X168327371Y-92864200D02*
X167184514Y-92864200D01*
%TO.C,C7*%
X162855942Y-123420866D02*
X162903561Y-123468485D01*
X162951180Y-123611342D01*
X162951180Y-123706580D01*
X162903561Y-123849438D01*
X162808323Y-123944676D01*
X162713085Y-123992295D01*
X162522609Y-124039914D01*
X162379752Y-124039914D01*
X162189276Y-123992295D01*
X162094038Y-123944676D01*
X161998800Y-123849438D01*
X161951180Y-123706580D01*
X161951180Y-123611342D01*
X161998800Y-123468485D01*
X162046419Y-123420866D01*
X161951180Y-123087533D02*
X161951180Y-122420866D01*
X162951180Y-122849438D01*
%TO.C,J9*%
X134991180Y-133517533D02*
X135705466Y-133517533D01*
X135848323Y-133565152D01*
X135943561Y-133660390D01*
X135991180Y-133803247D01*
X135991180Y-133898485D01*
X135991180Y-132993723D02*
X135991180Y-132803247D01*
X135943561Y-132708009D01*
X135895942Y-132660390D01*
X135753085Y-132565152D01*
X135562609Y-132517533D01*
X135181657Y-132517533D01*
X135086419Y-132565152D01*
X135038800Y-132612771D01*
X134991180Y-132708009D01*
X134991180Y-132898485D01*
X135038800Y-132993723D01*
X135086419Y-133041342D01*
X135181657Y-133088961D01*
X135419752Y-133088961D01*
X135514990Y-133041342D01*
X135562609Y-132993723D01*
X135610228Y-132898485D01*
X135610228Y-132708009D01*
X135562609Y-132612771D01*
X135514990Y-132565152D01*
X135419752Y-132517533D01*
X126972133Y-127226580D02*
X126972133Y-126226580D01*
X127305466Y-126940866D01*
X127638800Y-126226580D01*
X127638800Y-127226580D01*
X128067371Y-126321819D02*
X128114990Y-126274200D01*
X128210228Y-126226580D01*
X128448323Y-126226580D01*
X128543561Y-126274200D01*
X128591180Y-126321819D01*
X128638800Y-126417057D01*
X128638800Y-126512295D01*
X128591180Y-126655152D01*
X128019752Y-127226580D01*
X128638800Y-127226580D01*
X128829276Y-127321819D02*
X129591180Y-127321819D01*
X129829276Y-126702771D02*
X130162609Y-126702771D01*
X130305466Y-127226580D02*
X129829276Y-127226580D01*
X129829276Y-126226580D01*
X130305466Y-126226580D01*
X130734038Y-126559914D02*
X130734038Y-127226580D01*
X130734038Y-126655152D02*
X130781657Y-126607533D01*
X130876895Y-126559914D01*
X131019752Y-126559914D01*
X131114990Y-126607533D01*
X131162609Y-126702771D01*
X131162609Y-127226580D01*
X132067371Y-127178961D02*
X131972133Y-127226580D01*
X131781657Y-127226580D01*
X131686419Y-127178961D01*
X131638800Y-127131342D01*
X131591180Y-127036104D01*
X131591180Y-126750390D01*
X131638800Y-126655152D01*
X131686419Y-126607533D01*
X131781657Y-126559914D01*
X131972133Y-126559914D01*
X132067371Y-126607533D01*
X132638800Y-127226580D02*
X132543561Y-127178961D01*
X132495942Y-127131342D01*
X132448323Y-127036104D01*
X132448323Y-126750390D01*
X132495942Y-126655152D01*
X132543561Y-126607533D01*
X132638800Y-126559914D01*
X132781657Y-126559914D01*
X132876895Y-126607533D01*
X132924514Y-126655152D01*
X132972133Y-126750390D01*
X132972133Y-127036104D01*
X132924514Y-127131342D01*
X132876895Y-127178961D01*
X132781657Y-127226580D01*
X132638800Y-127226580D01*
X133829276Y-127226580D02*
X133829276Y-126226580D01*
X133829276Y-127178961D02*
X133734038Y-127226580D01*
X133543561Y-127226580D01*
X133448323Y-127178961D01*
X133400704Y-127131342D01*
X133353085Y-127036104D01*
X133353085Y-126750390D01*
X133400704Y-126655152D01*
X133448323Y-126607533D01*
X133543561Y-126559914D01*
X133734038Y-126559914D01*
X133829276Y-126607533D01*
X134686419Y-127178961D02*
X134591180Y-127226580D01*
X134400704Y-127226580D01*
X134305466Y-127178961D01*
X134257847Y-127083723D01*
X134257847Y-126702771D01*
X134305466Y-126607533D01*
X134400704Y-126559914D01*
X134591180Y-126559914D01*
X134686419Y-126607533D01*
X134734038Y-126702771D01*
X134734038Y-126798009D01*
X134257847Y-126893247D01*
X135162609Y-127226580D02*
X135162609Y-126559914D01*
X135162609Y-126750390D02*
X135210228Y-126655152D01*
X135257847Y-126607533D01*
X135353085Y-126559914D01*
X135448323Y-126559914D01*
%TO.C,C19*%
X135455942Y-106801342D02*
X135408323Y-106848961D01*
X135265466Y-106896580D01*
X135170228Y-106896580D01*
X135027371Y-106848961D01*
X134932133Y-106753723D01*
X134884514Y-106658485D01*
X134836895Y-106468009D01*
X134836895Y-106325152D01*
X134884514Y-106134676D01*
X134932133Y-106039438D01*
X135027371Y-105944200D01*
X135170228Y-105896580D01*
X135265466Y-105896580D01*
X135408323Y-105944200D01*
X135455942Y-105991819D01*
X136408323Y-106896580D02*
X135836895Y-106896580D01*
X136122609Y-106896580D02*
X136122609Y-105896580D01*
X136027371Y-106039438D01*
X135932133Y-106134676D01*
X135836895Y-106182295D01*
X136884514Y-106896580D02*
X137074990Y-106896580D01*
X137170228Y-106848961D01*
X137217847Y-106801342D01*
X137313085Y-106658485D01*
X137360704Y-106468009D01*
X137360704Y-106087057D01*
X137313085Y-105991819D01*
X137265466Y-105944200D01*
X137170228Y-105896580D01*
X136979752Y-105896580D01*
X136884514Y-105944200D01*
X136836895Y-105991819D01*
X136789276Y-106087057D01*
X136789276Y-106325152D01*
X136836895Y-106420390D01*
X136884514Y-106468009D01*
X136979752Y-106515628D01*
X137170228Y-106515628D01*
X137265466Y-106468009D01*
X137313085Y-106420390D01*
X137360704Y-106325152D01*
D11*
%TO.C,C10*%
X160194742Y-133235742D02*
X160147123Y-133283361D01*
X160004266Y-133330980D01*
X159909028Y-133330980D01*
X159766171Y-133283361D01*
X159670933Y-133188123D01*
X159623314Y-133092885D01*
X159575695Y-132902409D01*
X159575695Y-132759552D01*
X159623314Y-132569076D01*
X159670933Y-132473838D01*
X159766171Y-132378600D01*
X159909028Y-132330980D01*
X160004266Y-132330980D01*
X160147123Y-132378600D01*
X160194742Y-132426219D01*
X161147123Y-133330980D02*
X160575695Y-133330980D01*
X160861409Y-133330980D02*
X160861409Y-132330980D01*
X160766171Y-132473838D01*
X160670933Y-132569076D01*
X160575695Y-132616695D01*
X161766171Y-132330980D02*
X161861409Y-132330980D01*
X161956647Y-132378600D01*
X162004266Y-132426219D01*
X162051885Y-132521457D01*
X162099504Y-132711933D01*
X162099504Y-132950028D01*
X162051885Y-133140504D01*
X162004266Y-133235742D01*
X161956647Y-133283361D01*
X161861409Y-133330980D01*
X161766171Y-133330980D01*
X161670933Y-133283361D01*
X161623314Y-133235742D01*
X161575695Y-133140504D01*
X161528076Y-132950028D01*
X161528076Y-132711933D01*
X161575695Y-132521457D01*
X161623314Y-132426219D01*
X161670933Y-132378600D01*
X161766171Y-132330980D01*
D10*
%TO.C,J11*%
X136061980Y-87889114D02*
X135061980Y-87889114D01*
X135776266Y-87555780D01*
X135061980Y-87222447D01*
X136061980Y-87222447D01*
X136061980Y-86222447D02*
X136061980Y-86793876D01*
X136061980Y-86508161D02*
X135061980Y-86508161D01*
X135204838Y-86603400D01*
X135300076Y-86698638D01*
X135347695Y-86793876D01*
X135157219Y-85841495D02*
X135109600Y-85793876D01*
X135061980Y-85698638D01*
X135061980Y-85460542D01*
X135109600Y-85365304D01*
X135157219Y-85317685D01*
X135252457Y-85270066D01*
X135347695Y-85270066D01*
X135490552Y-85317685D01*
X136061980Y-85889114D01*
X136061980Y-85270066D01*
%TO.C,C4*%
X157285942Y-128210866D02*
X157333561Y-128258485D01*
X157381180Y-128401342D01*
X157381180Y-128496580D01*
X157333561Y-128639438D01*
X157238323Y-128734676D01*
X157143085Y-128782295D01*
X156952609Y-128829914D01*
X156809752Y-128829914D01*
X156619276Y-128782295D01*
X156524038Y-128734676D01*
X156428800Y-128639438D01*
X156381180Y-128496580D01*
X156381180Y-128401342D01*
X156428800Y-128258485D01*
X156476419Y-128210866D01*
X156714514Y-127353723D02*
X157381180Y-127353723D01*
X156333561Y-127591819D02*
X157047847Y-127829914D01*
X157047847Y-127210866D01*
%TO.C,C18*%
X150635942Y-106771342D02*
X150588323Y-106818961D01*
X150445466Y-106866580D01*
X150350228Y-106866580D01*
X150207371Y-106818961D01*
X150112133Y-106723723D01*
X150064514Y-106628485D01*
X150016895Y-106438009D01*
X150016895Y-106295152D01*
X150064514Y-106104676D01*
X150112133Y-106009438D01*
X150207371Y-105914200D01*
X150350228Y-105866580D01*
X150445466Y-105866580D01*
X150588323Y-105914200D01*
X150635942Y-105961819D01*
X151588323Y-106866580D02*
X151016895Y-106866580D01*
X151302609Y-106866580D02*
X151302609Y-105866580D01*
X151207371Y-106009438D01*
X151112133Y-106104676D01*
X151016895Y-106152295D01*
X152159752Y-106295152D02*
X152064514Y-106247533D01*
X152016895Y-106199914D01*
X151969276Y-106104676D01*
X151969276Y-106057057D01*
X152016895Y-105961819D01*
X152064514Y-105914200D01*
X152159752Y-105866580D01*
X152350228Y-105866580D01*
X152445466Y-105914200D01*
X152493085Y-105961819D01*
X152540704Y-106057057D01*
X152540704Y-106104676D01*
X152493085Y-106199914D01*
X152445466Y-106247533D01*
X152350228Y-106295152D01*
X152159752Y-106295152D01*
X152064514Y-106342771D01*
X152016895Y-106390390D01*
X151969276Y-106485628D01*
X151969276Y-106676104D01*
X152016895Y-106771342D01*
X152064514Y-106818961D01*
X152159752Y-106866580D01*
X152350228Y-106866580D01*
X152445466Y-106818961D01*
X152493085Y-106771342D01*
X152540704Y-106676104D01*
X152540704Y-106485628D01*
X152493085Y-106390390D01*
X152445466Y-106342771D01*
X152350228Y-106295152D01*
%TO.C,R12*%
X158711180Y-92217057D02*
X158234990Y-92550390D01*
X158711180Y-92788485D02*
X157711180Y-92788485D01*
X157711180Y-92407533D01*
X157758800Y-92312295D01*
X157806419Y-92264676D01*
X157901657Y-92217057D01*
X158044514Y-92217057D01*
X158139752Y-92264676D01*
X158187371Y-92312295D01*
X158234990Y-92407533D01*
X158234990Y-92788485D01*
X158711180Y-91264676D02*
X158711180Y-91836104D01*
X158711180Y-91550390D02*
X157711180Y-91550390D01*
X157854038Y-91645628D01*
X157949276Y-91740866D01*
X157996895Y-91836104D01*
X157806419Y-90883723D02*
X157758800Y-90836104D01*
X157711180Y-90740866D01*
X157711180Y-90502771D01*
X157758800Y-90407533D01*
X157806419Y-90359914D01*
X157901657Y-90312295D01*
X157996895Y-90312295D01*
X158139752Y-90359914D01*
X158711180Y-90931342D01*
X158711180Y-90312295D01*
%TO.C,J15*%
X160187980Y-87939914D02*
X159187980Y-87939914D01*
X159902266Y-87606580D01*
X159187980Y-87273247D01*
X160187980Y-87273247D01*
X159187980Y-86892295D02*
X159187980Y-86273247D01*
X159568933Y-86606580D01*
X159568933Y-86463723D01*
X159616552Y-86368485D01*
X159664171Y-86320866D01*
X159759409Y-86273247D01*
X159997504Y-86273247D01*
X160092742Y-86320866D01*
X160140361Y-86368485D01*
X160187980Y-86463723D01*
X160187980Y-86749438D01*
X160140361Y-86844676D01*
X160092742Y-86892295D01*
X159187980Y-85939914D02*
X159187980Y-85320866D01*
X159568933Y-85654200D01*
X159568933Y-85511342D01*
X159616552Y-85416104D01*
X159664171Y-85368485D01*
X159759409Y-85320866D01*
X159997504Y-85320866D01*
X160092742Y-85368485D01*
X160140361Y-85416104D01*
X160187980Y-85511342D01*
X160187980Y-85797057D01*
X160140361Y-85892295D01*
X160092742Y-85939914D01*
%TO.C,J14*%
X150111780Y-87989914D02*
X149111780Y-87989914D01*
X149826066Y-87656580D01*
X149111780Y-87323247D01*
X150111780Y-87323247D01*
X149111780Y-86942295D02*
X149111780Y-86323247D01*
X149492733Y-86656580D01*
X149492733Y-86513723D01*
X149540352Y-86418485D01*
X149587971Y-86370866D01*
X149683209Y-86323247D01*
X149921304Y-86323247D01*
X150016542Y-86370866D01*
X150064161Y-86418485D01*
X150111780Y-86513723D01*
X150111780Y-86799438D01*
X150064161Y-86894676D01*
X150016542Y-86942295D01*
X150111780Y-85370866D02*
X150111780Y-85942295D01*
X150111780Y-85656580D02*
X149111780Y-85656580D01*
X149254638Y-85751819D01*
X149349876Y-85847057D01*
X149397495Y-85942295D01*
%TO.C,C15*%
X150205942Y-114781342D02*
X150158323Y-114828961D01*
X150015466Y-114876580D01*
X149920228Y-114876580D01*
X149777371Y-114828961D01*
X149682133Y-114733723D01*
X149634514Y-114638485D01*
X149586895Y-114448009D01*
X149586895Y-114305152D01*
X149634514Y-114114676D01*
X149682133Y-114019438D01*
X149777371Y-113924200D01*
X149920228Y-113876580D01*
X150015466Y-113876580D01*
X150158323Y-113924200D01*
X150205942Y-113971819D01*
X151158323Y-114876580D02*
X150586895Y-114876580D01*
X150872609Y-114876580D02*
X150872609Y-113876580D01*
X150777371Y-114019438D01*
X150682133Y-114114676D01*
X150586895Y-114162295D01*
X152063085Y-113876580D02*
X151586895Y-113876580D01*
X151539276Y-114352771D01*
X151586895Y-114305152D01*
X151682133Y-114257533D01*
X151920228Y-114257533D01*
X152015466Y-114305152D01*
X152063085Y-114352771D01*
X152110704Y-114448009D01*
X152110704Y-114686104D01*
X152063085Y-114781342D01*
X152015466Y-114828961D01*
X151920228Y-114876580D01*
X151682133Y-114876580D01*
X151586895Y-114828961D01*
X151539276Y-114781342D01*
%TO.C,C9*%
X153855942Y-129740866D02*
X153903561Y-129788485D01*
X153951180Y-129931342D01*
X153951180Y-130026580D01*
X153903561Y-130169438D01*
X153808323Y-130264676D01*
X153713085Y-130312295D01*
X153522609Y-130359914D01*
X153379752Y-130359914D01*
X153189276Y-130312295D01*
X153094038Y-130264676D01*
X152998800Y-130169438D01*
X152951180Y-130026580D01*
X152951180Y-129931342D01*
X152998800Y-129788485D01*
X153046419Y-129740866D01*
X153951180Y-129264676D02*
X153951180Y-129074200D01*
X153903561Y-128978961D01*
X153855942Y-128931342D01*
X153713085Y-128836104D01*
X153522609Y-128788485D01*
X153141657Y-128788485D01*
X153046419Y-128836104D01*
X152998800Y-128883723D01*
X152951180Y-128978961D01*
X152951180Y-129169438D01*
X152998800Y-129264676D01*
X153046419Y-129312295D01*
X153141657Y-129359914D01*
X153379752Y-129359914D01*
X153474990Y-129312295D01*
X153522609Y-129264676D01*
X153570228Y-129169438D01*
X153570228Y-128978961D01*
X153522609Y-128883723D01*
X153474990Y-128836104D01*
X153379752Y-128788485D01*
%TO.C,U11*%
X153640704Y-95276580D02*
X153640704Y-96086104D01*
X153688323Y-96181342D01*
X153735942Y-96228961D01*
X153831180Y-96276580D01*
X154021657Y-96276580D01*
X154116895Y-96228961D01*
X154164514Y-96181342D01*
X154212133Y-96086104D01*
X154212133Y-95276580D01*
X155212133Y-96276580D02*
X154640704Y-96276580D01*
X154926419Y-96276580D02*
X154926419Y-95276580D01*
X154831180Y-95419438D01*
X154735942Y-95514676D01*
X154640704Y-95562295D01*
X156164514Y-96276580D02*
X155593085Y-96276580D01*
X155878800Y-96276580D02*
X155878800Y-95276580D01*
X155783561Y-95419438D01*
X155688323Y-95514676D01*
X155593085Y-95562295D01*
%TO.C,U7*%
X148501180Y-111306104D02*
X149310704Y-111306104D01*
X149405942Y-111258485D01*
X149453561Y-111210866D01*
X149501180Y-111115628D01*
X149501180Y-110925152D01*
X149453561Y-110829914D01*
X149405942Y-110782295D01*
X149310704Y-110734676D01*
X148501180Y-110734676D01*
X148501180Y-110353723D02*
X148501180Y-109687057D01*
X149501180Y-110115628D01*
%TO.C,U6*%
X163711180Y-111396104D02*
X164520704Y-111396104D01*
X164615942Y-111348485D01*
X164663561Y-111300866D01*
X164711180Y-111205628D01*
X164711180Y-111015152D01*
X164663561Y-110919914D01*
X164615942Y-110872295D01*
X164520704Y-110824676D01*
X163711180Y-110824676D01*
X163711180Y-109919914D02*
X163711180Y-110110390D01*
X163758800Y-110205628D01*
X163806419Y-110253247D01*
X163949276Y-110348485D01*
X164139752Y-110396104D01*
X164520704Y-110396104D01*
X164615942Y-110348485D01*
X164663561Y-110300866D01*
X164711180Y-110205628D01*
X164711180Y-110015152D01*
X164663561Y-109919914D01*
X164615942Y-109872295D01*
X164520704Y-109824676D01*
X164282609Y-109824676D01*
X164187371Y-109872295D01*
X164139752Y-109919914D01*
X164092133Y-110015152D01*
X164092133Y-110205628D01*
X164139752Y-110300866D01*
X164187371Y-110348485D01*
X164282609Y-110396104D01*
%TO.C,U2*%
X160998695Y-127460780D02*
X160998695Y-128270304D01*
X161046314Y-128365542D01*
X161093933Y-128413161D01*
X161189171Y-128460780D01*
X161379647Y-128460780D01*
X161474885Y-128413161D01*
X161522504Y-128365542D01*
X161570123Y-128270304D01*
X161570123Y-127460780D01*
X161998695Y-127556019D02*
X162046314Y-127508400D01*
X162141552Y-127460780D01*
X162379647Y-127460780D01*
X162474885Y-127508400D01*
X162522504Y-127556019D01*
X162570123Y-127651257D01*
X162570123Y-127746495D01*
X162522504Y-127889352D01*
X161951076Y-128460780D01*
X162570123Y-128460780D01*
%TO.C,U8*%
X133551180Y-111326104D02*
X134360704Y-111326104D01*
X134455942Y-111278485D01*
X134503561Y-111230866D01*
X134551180Y-111135628D01*
X134551180Y-110945152D01*
X134503561Y-110849914D01*
X134455942Y-110802295D01*
X134360704Y-110754676D01*
X133551180Y-110754676D01*
X133979752Y-110135628D02*
X133932133Y-110230866D01*
X133884514Y-110278485D01*
X133789276Y-110326104D01*
X133741657Y-110326104D01*
X133646419Y-110278485D01*
X133598800Y-110230866D01*
X133551180Y-110135628D01*
X133551180Y-109945152D01*
X133598800Y-109849914D01*
X133646419Y-109802295D01*
X133741657Y-109754676D01*
X133789276Y-109754676D01*
X133884514Y-109802295D01*
X133932133Y-109849914D01*
X133979752Y-109945152D01*
X133979752Y-110135628D01*
X134027371Y-110230866D01*
X134074990Y-110278485D01*
X134170228Y-110326104D01*
X134360704Y-110326104D01*
X134455942Y-110278485D01*
X134503561Y-110230866D01*
X134551180Y-110135628D01*
X134551180Y-109945152D01*
X134503561Y-109849914D01*
X134455942Y-109802295D01*
X134360704Y-109754676D01*
X134170228Y-109754676D01*
X134074990Y-109802295D01*
X134027371Y-109849914D01*
X133979752Y-109945152D01*
D12*
%TO.C,J8*%
X120543700Y-124851900D02*
X119573700Y-124851900D01*
X119573700Y-117781900D02*
X124773700Y-117781900D01*
X119573700Y-124851900D02*
X119573700Y-117781900D01*
X124773700Y-124851900D02*
X122743700Y-124851900D01*
X124773700Y-117781900D02*
X124773700Y-124851900D01*
D10*
X125551700Y-123206900D02*
G75*
G03*
X125551700Y-123206900I-100000J0D01*
G01*
D12*
%TO.C,J6*%
X120320300Y-104356700D02*
X122350300Y-104356700D01*
X125520300Y-111426700D02*
X120320300Y-111426700D01*
X120320300Y-111426700D02*
X120320300Y-104356700D01*
X124550300Y-104356700D02*
X125520300Y-104356700D01*
X125520300Y-104356700D02*
X125520300Y-111426700D01*
D10*
X119742300Y-106001700D02*
G75*
G03*
X119742300Y-106001700I-100000J0D01*
G01*
D13*
%TO.C,C2*%
X126017620Y-112247600D02*
X126298780Y-112247600D01*
X126017620Y-113267600D02*
X126298780Y-113267600D01*
%TO.C,C1*%
X143864000Y-120211620D02*
X143864000Y-120492780D01*
X142844000Y-120211620D02*
X142844000Y-120492780D01*
%TO.C,J3*%
X123368800Y-95274200D02*
X120708800Y-95274200D01*
X123368800Y-100414200D02*
X120708800Y-100414200D01*
X123368800Y-103014200D02*
X122038800Y-103014200D01*
X120708800Y-100414200D02*
X120708800Y-95274200D01*
X123368800Y-101684200D02*
X123368800Y-103014200D01*
X123368800Y-100414200D02*
X123368800Y-95274200D01*
%TO.C,FB1*%
X149956000Y-132127421D02*
X149956000Y-132452979D01*
X150976000Y-132127421D02*
X150976000Y-132452979D01*
%TO.C,C8*%
X150976000Y-129076220D02*
X150976000Y-129357380D01*
X149956000Y-129076220D02*
X149956000Y-129357380D01*
D10*
%TO.C,J2*%
X137017200Y-116533400D02*
X133587200Y-116533400D01*
X133587200Y-123053400D02*
X137017200Y-123053400D01*
X133367200Y-116003400D02*
G75*
G03*
X133367200Y-116003400I-100000J0D01*
G01*
D13*
%TO.C,J16*%
X162660600Y-102708000D02*
X162660600Y-105400400D01*
X162660600Y-105400400D02*
X166877000Y-105400400D01*
X166877000Y-105400400D02*
X166877000Y-102708000D01*
X166877000Y-102708000D02*
X162660600Y-102708000D01*
D14*
%TO.C,U3*%
X145825400Y-119035000D02*
X145825400Y-118785000D01*
X145825400Y-118785000D02*
X146075400Y-118785000D01*
X145825400Y-126085000D02*
X145825400Y-125835000D01*
X153125400Y-118785000D02*
X153125400Y-119035000D01*
X152875400Y-118785000D02*
X153125400Y-118785000D01*
X153125400Y-125835000D02*
X153125400Y-126085000D01*
X153125400Y-126085000D02*
X152875400Y-126085000D01*
X146075400Y-126085000D02*
X145825400Y-126085000D01*
D10*
X146681400Y-119635000D02*
G75*
G03*
X146681400Y-119635000I-100000J0D01*
G01*
D13*
%TO.C,D1*%
X155848300Y-132204300D02*
X157318300Y-132204300D01*
X157318300Y-132204300D02*
X157318300Y-129919300D01*
X155848300Y-129919300D02*
X155848300Y-132204300D01*
%TO.C,J17*%
X162635200Y-102098400D02*
X166851600Y-102098400D01*
X166851600Y-102098400D02*
X166851600Y-99406000D01*
X166851600Y-99406000D02*
X162635200Y-99406000D01*
X162635200Y-99406000D02*
X162635200Y-102098400D01*
%TO.C,C11*%
X151581600Y-132430780D02*
X151581600Y-132149620D01*
X152601600Y-132430780D02*
X152601600Y-132149620D01*
%TO.C,R4*%
X158731300Y-130956458D02*
X158731300Y-130481942D01*
X157686300Y-130956458D02*
X157686300Y-130481942D01*
%TO.C,U9*%
X144116599Y-94657999D02*
X143816600Y-94657999D01*
X141316600Y-94657999D02*
X141016601Y-94657999D01*
X144116599Y-94482999D02*
X144116599Y-94657999D01*
X141016601Y-94482999D02*
X141016601Y-94657999D01*
X145016600Y-93983000D02*
G75*
G03*
X145016600Y-93983000I-125001J0D01*
G01*
%TO.C,J4*%
X129599600Y-84775200D02*
X126907200Y-84775200D01*
X126907200Y-84775200D02*
X126907200Y-88991600D01*
X129599600Y-88991600D02*
X129599600Y-84775200D01*
X126907200Y-88991600D02*
X129599600Y-88991600D01*
D12*
%TO.C,J10*%
X144475500Y-132646900D02*
X144475500Y-133616900D01*
X144475500Y-128416900D02*
X144475500Y-130446900D01*
X137405500Y-133616900D02*
X137405500Y-128416900D01*
X137405500Y-128416900D02*
X144475500Y-128416900D01*
X144475500Y-133616900D02*
X137405500Y-133616900D01*
D10*
X142930500Y-127738900D02*
G75*
G03*
X142930500Y-127738900I-100000J0D01*
G01*
D13*
%TO.C,J7*%
X166976000Y-94825200D02*
X162759600Y-94825200D01*
X162759600Y-97517600D02*
X166976000Y-97517600D01*
X166976000Y-97517600D02*
X166976000Y-94825200D01*
X162759600Y-94825200D02*
X162759600Y-97517600D01*
%TO.C,C5*%
X126334000Y-107183180D02*
X126334000Y-106902020D01*
X127354000Y-107183180D02*
X127354000Y-106902020D01*
%TO.C,R11*%
X134447258Y-94941300D02*
X133972742Y-94941300D01*
X134447258Y-93896300D02*
X133972742Y-93896300D01*
%TO.C,C16*%
X135923620Y-113293000D02*
X136204780Y-113293000D01*
X135923620Y-112273000D02*
X136204780Y-112273000D01*
%TO.C,J12*%
X140661600Y-89059400D02*
X140661600Y-84843000D01*
X137969200Y-89059400D02*
X140661600Y-89059400D01*
X137969200Y-84843000D02*
X137969200Y-89059400D01*
X140661600Y-84843000D02*
X137969200Y-84843000D01*
%TO.C,U10*%
X131925199Y-94766200D02*
X131925199Y-94941200D01*
X128825201Y-94766200D02*
X128825201Y-94941200D01*
X131925199Y-94941200D02*
X131625200Y-94941200D01*
X129125200Y-94941200D02*
X128825201Y-94941200D01*
X132825200Y-94266201D02*
G75*
G03*
X132825200Y-94266201I-125001J0D01*
G01*
%TO.C,J13*%
X146210400Y-84856800D02*
X143518000Y-84856800D01*
X143518000Y-89073200D02*
X146210400Y-89073200D01*
X146210400Y-89073200D02*
X146210400Y-84856800D01*
X143518000Y-84856800D02*
X143518000Y-89073200D01*
%TO.C,C6*%
X156030600Y-124124980D02*
X156030600Y-123843820D01*
X155010600Y-124124980D02*
X155010600Y-123843820D01*
%TO.C,R10*%
X146969458Y-94534900D02*
X146494942Y-94534900D01*
X146969458Y-93489900D02*
X146494942Y-93489900D01*
D12*
%TO.C,U1*%
X158395600Y-120746000D02*
X158395600Y-122346000D01*
X161535600Y-120746000D02*
X161535600Y-122346000D01*
D10*
X161015600Y-119096000D02*
G75*
G03*
X161015600Y-119096000I-100000J0D01*
G01*
D13*
%TO.C,C3*%
X139719800Y-121661180D02*
X139719800Y-121380020D01*
X140739800Y-121661180D02*
X140739800Y-121380020D01*
D12*
%TO.C,J1*%
X165774400Y-117568200D02*
X165374400Y-117568200D01*
X167974400Y-125168200D02*
X168274400Y-125168200D01*
X168324400Y-125168200D02*
X168324400Y-117568200D01*
X167974400Y-117568200D02*
X168274400Y-117568200D01*
X165374400Y-125168200D02*
X165774400Y-125168200D01*
D10*
X163474400Y-123368200D02*
G75*
G03*
X163474400Y-123368200I-100000J0D01*
G01*
D13*
%TO.C,J5*%
X166976000Y-91548600D02*
X162759600Y-91548600D01*
X162759600Y-94241000D02*
X166976000Y-94241000D01*
X162759600Y-91548600D02*
X162759600Y-94241000D01*
X166976000Y-94241000D02*
X166976000Y-91548600D01*
%TO.C,C7*%
X162528800Y-125628620D02*
X162528800Y-125909780D01*
X161508800Y-125628620D02*
X161508800Y-125909780D01*
D12*
%TO.C,J9*%
X134381800Y-132675600D02*
X134381800Y-133645600D01*
X134381800Y-128445600D02*
X134381800Y-130475600D01*
X127311800Y-133645600D02*
X127311800Y-128445600D01*
X127311800Y-128445600D02*
X134381800Y-128445600D01*
X134381800Y-133645600D02*
X127311800Y-133645600D01*
D10*
X132836800Y-127767600D02*
G75*
G03*
X132836800Y-127767600I-100000J0D01*
G01*
D13*
%TO.C,C19*%
X135923620Y-108340000D02*
X136204780Y-108340000D01*
X135923620Y-107320000D02*
X136204780Y-107320000D01*
%TO.C,C10*%
X160992600Y-130177348D02*
X160992600Y-130699852D01*
X159522600Y-130177348D02*
X159522600Y-130699852D01*
%TO.C,J11*%
X131938000Y-84796800D02*
X131938000Y-89013200D01*
X134630400Y-84796800D02*
X131938000Y-84796800D01*
X134630400Y-89013200D02*
X134630400Y-84796800D01*
X131938000Y-89013200D02*
X134630400Y-89013200D01*
%TO.C,C4*%
X156005200Y-126968020D02*
X156005200Y-127249180D01*
X154985200Y-126968020D02*
X154985200Y-127249180D01*
%TO.C,C18*%
X151036620Y-108390800D02*
X151317780Y-108390800D01*
X151036620Y-107370800D02*
X151317780Y-107370800D01*
%TO.C,R12*%
X158710100Y-94859258D02*
X158710100Y-94384742D01*
X157665100Y-94859258D02*
X157665100Y-94384742D01*
%TO.C,J15*%
X155772600Y-89059400D02*
X158465000Y-89059400D01*
X158465000Y-89059400D02*
X158465000Y-84843000D01*
X158465000Y-84843000D02*
X155772600Y-84843000D01*
X155772600Y-84843000D02*
X155772600Y-89059400D01*
%TO.C,J14*%
X150632600Y-84843000D02*
X150632600Y-89059400D01*
X150632600Y-89059400D02*
X153325000Y-89059400D01*
X153325000Y-84843000D02*
X150632600Y-84843000D01*
X153325000Y-89059400D02*
X153325000Y-84843000D01*
%TO.C,C15*%
X150985820Y-112323800D02*
X151266980Y-112323800D01*
X150985820Y-113343800D02*
X151266980Y-113343800D01*
%TO.C,C9*%
X152525400Y-129076220D02*
X152525400Y-129357380D01*
X151505400Y-129076220D02*
X151505400Y-129357380D01*
%TO.C,U11*%
X156436199Y-94763400D02*
X156136200Y-94763400D01*
X153336201Y-94588400D02*
X153336201Y-94763400D01*
X156436199Y-94588400D02*
X156436199Y-94763400D01*
X153636200Y-94763400D02*
X153336201Y-94763400D01*
X157336200Y-94088401D02*
G75*
G03*
X157336200Y-94088401I-125001J0D01*
G01*
D12*
%TO.C,U7*%
X147982200Y-112319200D02*
X147982200Y-108319200D01*
X137862200Y-112319200D02*
X137862200Y-108319200D01*
D10*
%TO.C,Q1*%
X153795200Y-96952650D02*
G75*
G03*
X153795200Y-96952650I-100000J0D01*
G01*
D12*
%TO.C,U6*%
X152975200Y-112346800D02*
X152975200Y-108346800D01*
X163095200Y-112346800D02*
X163095200Y-108346800D01*
%TO.C,U2*%
X160800900Y-125564500D02*
X160800900Y-127064500D01*
X157800900Y-125564500D02*
X157800900Y-127064500D01*
%TO.C,U8*%
X127981600Y-111845400D02*
X127981600Y-108296000D01*
X133021600Y-112296000D02*
X133021600Y-108296000D01*
X127981600Y-112296000D02*
X127981600Y-111845400D01*
%TD*%
M02*
