%TF.GenerationSoftware,KiCad,Pcbnew,(6.0.7)*%
%TF.CreationDate,2022-10-31T13:10:42+02:00*%
%TF.ProjectId,DeltaX_SAGA,44656c74-6158-45f5-9341-47412e6b6963,rev?*%
%TF.SameCoordinates,Original*%
%TF.FileFunction,Plated,1,4,PTH,Mixed*%
%TF.FilePolarity,Positive*%
%FSLAX46Y46*%
G04 Gerber Fmt 4.6, Leading zero omitted, Abs format (unit mm)*
G04 Created by KiCad (PCBNEW (6.0.7)) date 2022-10-31 13:10:42*
%MOMM*%
%LPD*%
G01*
G04 APERTURE LIST*
%TA.AperFunction,ViaDrill*%
%ADD10C,0.200000*%
%TD*%
G04 aperture for slot hole*
%TA.AperFunction,ComponentDrill*%
%ADD11O,1.200000X0.500000*%
%TD*%
%TA.AperFunction,ComponentDrill*%
%ADD12C,0.700000*%
%TD*%
%TA.AperFunction,ComponentDrill*%
%ADD13C,0.800000*%
%TD*%
%TA.AperFunction,ViaDrill*%
%ADD14C,3.000000*%
%TD*%
G04 APERTURE END LIST*
D10*
X124659600Y-96247600D03*
X125269200Y-97543000D03*
X125751800Y-90024600D03*
X125929600Y-113291000D03*
X127606000Y-106864800D03*
X127770800Y-107817600D03*
X127783800Y-118040800D03*
X127788800Y-120149000D03*
X127834600Y-112757600D03*
X128204024Y-93324846D03*
X128266400Y-97543000D03*
X128774400Y-89948400D03*
X128888800Y-92674200D03*
X129053800Y-91218400D03*
X129250200Y-96834200D03*
X129739600Y-90405600D03*
X129986800Y-96834200D03*
X130298400Y-92712799D03*
X130349200Y-91218400D03*
X130774200Y-96834200D03*
X130882600Y-90405600D03*
X131510800Y-96834200D03*
X131746200Y-91243800D03*
X131788800Y-92704200D03*
X132152600Y-118523400D03*
X132152600Y-119768000D03*
X132178000Y-117253400D03*
X132298200Y-96834200D03*
X132406600Y-107093400D03*
X132406600Y-113519600D03*
X132914600Y-89999200D03*
X133034800Y-96834200D03*
X133822200Y-96834200D03*
X133838800Y-98604200D03*
X134387800Y-122308000D03*
X134558800Y-96834200D03*
X134946600Y-89999200D03*
X135226000Y-94164800D03*
X135508800Y-98494200D03*
X135911800Y-113291000D03*
X135937200Y-108261800D03*
X137228800Y-98304200D03*
X137512000Y-89796000D03*
X137689800Y-107830000D03*
X137715200Y-104375600D03*
X137715200Y-105213800D03*
X137740600Y-112783000D03*
X138528000Y-104604200D03*
X138528000Y-105442400D03*
X139086800Y-94114000D03*
X139391600Y-104604200D03*
X139391600Y-105442400D03*
X140229800Y-104604200D03*
X140229800Y-105442400D03*
X140280600Y-103715200D03*
X140418800Y-92974200D03*
X140585400Y-120326800D03*
X140737800Y-89796000D03*
X141158800Y-92394200D03*
X141220400Y-90939000D03*
X141830000Y-121419000D03*
X141906200Y-90126200D03*
X142515800Y-90939000D03*
X142558800Y-92384200D03*
X142868800Y-106084200D03*
X142947600Y-93580600D03*
X143049200Y-90126200D03*
X143100000Y-121368200D03*
X143912800Y-90964400D03*
X144038800Y-92394200D03*
X144172800Y-119635000D03*
X144192200Y-89796000D03*
X144725600Y-125991000D03*
X145411400Y-118853600D03*
X145436800Y-116643800D03*
X145767000Y-127007000D03*
X146529000Y-119818800D03*
X146630600Y-124187600D03*
X146681400Y-117888400D03*
X146757600Y-115424600D03*
X147113200Y-122333400D03*
X147367200Y-89770600D03*
X147367200Y-107118800D03*
X147367200Y-113519600D03*
X147748200Y-94291800D03*
X147824400Y-125330600D03*
X148611800Y-119768000D03*
X149831000Y-89719800D03*
X149856400Y-129612303D03*
X150148800Y-102154200D03*
X150669200Y-127159400D03*
X150974000Y-113341800D03*
X150999400Y-108414200D03*
X151278700Y-133077700D03*
X151398800Y-93974200D03*
X151431200Y-121257300D03*
X151488800Y-104514200D03*
X152269400Y-127159400D03*
X152528800Y-132114200D03*
X152658800Y-92944200D03*
X152675800Y-129536103D03*
X152752000Y-112833800D03*
X152802800Y-107880800D03*
X153031400Y-89745200D03*
X153418800Y-92504200D03*
X153488600Y-91066000D03*
X154174400Y-90253200D03*
X154384300Y-126378700D03*
X154784000Y-91066000D03*
X154809400Y-92479999D03*
X155012600Y-127351703D03*
X155088800Y-123588897D03*
X155178800Y-93694200D03*
X155317400Y-90253200D03*
X155520600Y-125635400D03*
X155779800Y-101954200D03*
X155805200Y-97915600D03*
X155805200Y-99211000D03*
X155805200Y-100633400D03*
X156181000Y-91091400D03*
X156338800Y-92494200D03*
X156908800Y-129604200D03*
X157380000Y-101954200D03*
X157405400Y-97915600D03*
X157405400Y-99211000D03*
X157405400Y-100633400D03*
X157476400Y-89745200D03*
X157791503Y-129525400D03*
X157908200Y-95638000D03*
X159208800Y-101954200D03*
X159234200Y-97915600D03*
X159234200Y-99211000D03*
X159234200Y-100633400D03*
X159301000Y-125616800D03*
X159635400Y-89770600D03*
X159965600Y-119945800D03*
X160250900Y-128602100D03*
X160968800Y-130794200D03*
X162480200Y-107144200D03*
X162480200Y-113570400D03*
X162577600Y-126099400D03*
X162990800Y-99736200D03*
X162990800Y-101742800D03*
X163115200Y-95155400D03*
X163115200Y-97162000D03*
X163724800Y-120047400D03*
X163803600Y-100752200D03*
X163928000Y-96171400D03*
X164743400Y-99736200D03*
X164743400Y-101742800D03*
X164867800Y-95155400D03*
X164867800Y-97162000D03*
X165683200Y-100752200D03*
X165807600Y-96171400D03*
X166496000Y-99736200D03*
X166496000Y-101742800D03*
X166620400Y-95155400D03*
X166620400Y-97162000D03*
D11*
%TO.C,J1*%
X166874400Y-118068200D03*
X166874400Y-124668200D03*
D12*
%TO.C,J8*%
X120903700Y-119396900D03*
X120903700Y-121936900D03*
%TO.C,J6*%
X121650300Y-106001700D03*
X121650300Y-108541700D03*
%TO.C,J8*%
X123443700Y-120666900D03*
X123443700Y-123206900D03*
%TO.C,J6*%
X124190300Y-107271700D03*
X124190300Y-109811700D03*
%TO.C,J9*%
X128926800Y-132315600D03*
X130196800Y-129775600D03*
X131466800Y-132315600D03*
X132736800Y-129775600D03*
%TO.C,J10*%
X139020500Y-132286900D03*
X140290500Y-129746900D03*
X141560500Y-132286900D03*
X142830500Y-129746900D03*
D13*
%TO.C,J3*%
X122038800Y-96604200D03*
X122038800Y-99144200D03*
X122038800Y-101684200D03*
%TD*%
D14*
X122000000Y-88000000D03*
X122000000Y-131000000D03*
X165000000Y-88000000D03*
X165000000Y-131000000D03*
M02*
